<svg xmlns="http://www.w3.org/2000/svg" width="914.619" height="809.947" viewBox="0 0 914.619 809.947">
  <defs>
    <style>
      .cls-1 {
        fill: #1dea7d;
      }

      .cls-2 {
        fill: #f5d5f5;
      }

      .cls-2, .cls-24, .cls-28, .cls-32, .cls-4, .cls-6 {
        mix-blend-mode: multiply;
        isolation: isolate;
      }

      .cls-3, .cls-6 {
        fill: #4f2451;
      }

      .cls-4, .cls-5 {
        fill: #844685;
      }

      .cls-32, .cls-7 {
        fill: #10375c;
      }

      .cls-8 {
        fill: #feb398;
      }

      .cls-9 {
        fill: #f29a25;
      }

      .cls-10 {
        fill: #2f628c;
      }

      .cls-11 {
        fill: #87492a;
      }

      .cls-12 {
        fill: #b87158;
      }

      .cls-13 {
        fill: #fe9898;
      }

      .cls-14 {
        fill: #c4634e;
      }

      .cls-15 {
        fill: #fff;
      }

      .cls-16 {
        fill: #f08d6d;
      }

      .cls-17 {
        fill: #141719;
      }

      .cls-18 {
        fill: #f3c623;
      }

      .cls-19 {
        fill: #2b0b0c;
      }

      .cls-20 {
        fill: #6e1316;
      }

      .cls-21 {
        fill: #a52831;
      }

      .cls-22 {
        fill: #e89176;
      }

      .cls-23, .cls-28 {
        fill: #f28a7b;
      }

      .cls-24 {
        fill: #fea07f;
      }

      .cls-25 {
        fill: #9e4f36;
      }

      .cls-26 {
        fill: #f06262;
      }

      .cls-27 {
        fill: #8f4939;
      }

      .cls-29 {
        fill: #b06148;
      }

      .cls-30 {
        fill: #e86868;
      }

      .cls-31 {
        fill: #c95a5a;
      }

      .cls-33 {
        fill: #8f3535;
      }
    </style>
  </defs>
  <g id="Grupo_167" data-name="Grupo 167" transform="translate(-4621.381 1658.698)">
    <path id="Caminho_4466" data-name="Caminho 4466" class="cls-1" d="M212.576,731.822S89.682,665.459,156.045,584.349s349.02-329.357,349.02-329.357,61.447-49.158,105.689-29.495S883.579,348.391,967.148,417.212s100.773,142.558,68.821,186.8S920.448,758.859,866.374,771.148s-494.035-39.326-494.035-39.326-54.074,41.784-93.4,39.326S212.576,731.822,212.576,731.822Z" transform="translate(4485 -1723.286)"/>
    <g id="_3961866" data-name="3961866" transform="translate(4666 -1536)">
      <g id="OBJECTS" transform="translate(58.001 -122.698)">
        <ellipse id="Elipse_5" data-name="Elipse 5" class="cls-2" cx="398.545" cy="21.663" rx="398.545" ry="21.663" transform="translate(0 766.62)"/>
        <g id="Grupo_74" data-name="Grupo 74" transform="translate(6.675 628.052)">
          <g id="Grupo_70" data-name="Grupo 70" transform="translate(0 14.442)">
            <path id="Caminho_4264" data-name="Caminho 4264" class="cls-3" d="M159.771,522.564l-2.832.628h-67.7c-.254-33.226-13.281-66.73-37.7-89.267-5.958-5.5-12.521-10.463-17.4-16.938S26.2,402,28.527,394.23c1.829-6.1,6.8-10.937,12.571-13.618s12.29-3.4,18.651-3.179a68.105,68.105,0,0,1,63,48.79c11.583-4.5,26.056.4,32.524,11.013,4.9,8.035,5.219,17.949,5.343,27.359C160.871,483.916,160.021,503.241,159.771,522.564Z" transform="translate(-27.731 -377.397)"/>
            <path id="Caminho_4265" data-name="Caminho 4265" class="cls-4" d="M43.709,385.967c6.6,3.206,13.219,6.5,19.472,10.3a21.682,21.682,0,0,1,4.466-8.585,1.24,1.24,0,0,1,1.743,0,1.257,1.257,0,0,1,0,1.743,19.023,19.023,0,0,0-4,8.218c7.6,4.843,14.584,10.529,20.2,17.883,5.43,7.107,9.527,15.113,13.108,23.281,1.925,4.394,3.722,8.849,5.353,13.364a37.573,37.573,0,0,1,11.429-13.739,1.242,1.242,0,0,1,1.687.442,1.262,1.262,0,0,1-.442,1.687,34.548,34.548,0,0,0-11.44,14.831,1.592,1.592,0,0,1-.081.141c1.048,3.092,2.043,6.2,2.906,9.352a122.9,122.9,0,0,1,4.573,31.293,1.233,1.233,0,0,1-2.466,0c-.163-18.538-5.364-36.6-12.548-53.569-1.943-4.589-4.06-9.127-6.42-13.526a1.164,1.164,0,0,1-.208-.014,37.98,37.98,0,0,0-20.252-.116,1.234,1.234,0,0,1-.657-2.378,40.541,40.541,0,0,1,19.522-.386c-1.256-2.181-2.568-4.326-4-6.4a70.364,70.364,0,0,0-18.239-17.981c-1.02-.7-2.083-1.331-3.126-1.995a1.268,1.268,0,0,1-.719.054A1.17,1.17,0,0,1,62.7,398.8c-6.509-3.985-13.376-7.372-20.234-10.7C41.037,387.4,42.286,385.275,43.709,385.967Z" transform="translate(-16.601 -370.741)"/>
          </g>
          <g id="Grupo_71" data-name="Grupo 71" transform="translate(632.815)">
            <path id="Caminho_4266" data-name="Caminho 4266" class="cls-5" d="M448.691,529.557H385.941c-3.3-21.4-5.675-42.039-3.942-63.617s7.754-43.163,20.023-61,31.216-31.6,52.6-34.986c8.928-1.412,18.872-.748,25.79,5.072,7.193,6.051,9.436,16.572,7.518,25.773s-7.366,17.278-13.45,24.442-12.927,13.7-18.423,21.326C438.921,470.336,434.034,504.188,448.691,529.557Z" transform="translate(-381.416 -369.325)"/>
            <path id="Caminho_4267" data-name="Caminho 4267" class="cls-3" d="M447.968,500.6H405.752c-2.324-17.164-.839-35.9,2.208-52.946,1.335-7.463,3.2-14.906,6.613-21.678s8.463-12.877,15.085-16.57,14.9-4.743,21.9-1.839,12.3,10.071,12.075,17.649c-.211,7.023-4.7,13.063-8.434,19.016a77.983,77.983,0,0,0-10.753,25.879C442.606,479.317,444.753,491.771,447.968,500.6Z" transform="translate(-363.109 -340.465)"/>
            <path id="Caminho_4268" data-name="Caminho 4268" class="cls-6" d="M400.9,444.961A117.74,117.74,0,0,1,424.279,398.3a98.812,98.812,0,0,1,21.3-19.123c1.27-.841,2.455,1.2,1.192,2.038-14.02,9.281-25.224,22.335-33.134,37.11-8.751,16.348-13.283,34.673-14.414,53.123a173.6,173.6,0,0,0,1.267,33.095c.2,1.5-2.167,1.489-2.362,0C395.536,484.736,396,464.39,400.9,444.961Z" transform="translate(-369.457 -361.706)"/>
            <path id="Caminho_4269" data-name="Caminho 4269" class="cls-6" d="M426.384,426.967A84.752,84.752,0,0,1,434.8,412.79c.891-1.209,2.941-.032,2.038,1.193-11.837,16.06-16.858,35.8-19.057,55.345-.658,5.86-1.088,11.741-1.433,17.625-.088,1.51-2.449,1.521-2.36,0C415.183,466.516,417.563,445.7,426.384,426.967Z" transform="translate(-355.711 -335.422)"/>
          </g>
          <g id="Grupo_72" data-name="Grupo 72" transform="translate(88.449 43.716)">
            <path id="Caminho_4270" data-name="Caminho 4270" class="cls-5" d="M299.519,484.537a28.8,28.8,0,0,0-26.538-5.108c4.648-15.024,9.345-30.493,8.137-46.176s-9.714-31.843-24.41-37.445c-15.63-5.958-33.843,1.759-44.963,14.253-10.819,12.156-16.357,27.971-21.313,43.5,1.381-5.568-2.444-11.9-7.958-13.868-5.949-2.12-12.877.222-17.318,4.715a27.538,27.538,0,0,0-6.879,13.616,19.917,19.917,0,0,0-25.714-21.231c-9.529,2.945-15.609,12.813-16.953,22.694s1.168,19.849,3.909,29.44c-3.614-7.729-14.074-11.345-21.689-7.5s-10.912,14.408-6.838,21.9c-6.334-2.081-9.511,2.557-13.827,7.64H308.949C310.022,501.638,306.771,490.506,299.519,484.537Z" transform="translate(-77.166 -393.758)"/>
            <path id="Caminho_4271" data-name="Caminho 4271" class="cls-4" d="M234.993,474.187a17,17,0,0,0-15.668-3.017c2.745-8.871,5.518-18,4.8-27.26s-5.733-18.8-14.41-22.107c-9.227-3.518-19.98,1.039-26.545,8.415-6.387,7.177-9.656,16.513-12.582,25.681.814-3.287-1.444-7.026-4.7-8.187-3.512-1.252-7.6.131-10.225,2.782a16.267,16.267,0,0,0-4.06,8.039A11.76,11.76,0,0,0,136.428,446c-5.625,1.739-9.216,7.563-10.009,13.4s.689,11.719,2.308,17.38a9.438,9.438,0,1,0-16.842,8.5c-3.739-1.229-5.615,1.51-8.164,4.511H240.559C241.193,484.282,239.275,477.71,234.993,474.187Z" transform="translate(-56.209 -372.58)"/>
          </g>
          <g id="Grupo_73" data-name="Grupo 73" transform="translate(477.05 71.904)">
            <path id="Caminho_4272" data-name="Caminho 4272" class="cls-3" d="M489.073,497.837H294.61c-.626-2.968-.181-7.839,2.424-9.413a7.64,7.64,0,0,1,8.545.646c-.4-4.525-.807-9.172.365-13.555s4.262-8.567,8.665-9.717c3.859-1.011,8.506,1.131,9.8,4.747a65.377,65.377,0,0,1,6.525-44.444c4.627-8.424,12.324-16.362,21.92-16.584,10.222-.224,18.787,8.747,21.6,18.584,2.807,9.819,1.192,20.3-.444,30.384a11.9,11.9,0,0,1,22.929,1.6c2.383-10.789,4.888-21.839,10.828-31.152s16.121-16.727,27.171-16.242c13.494.607,24.181,12.889,27.475,25.979,3.292,13.111.868,26.91-1.557,40.2a18.432,18.432,0,0,1,20.989-.465A18.07,18.07,0,0,1,489.073,497.837Z" transform="translate(-294.358 -409.513)"/>
            <path id="Caminho_4273" data-name="Caminho 4273" class="cls-6" d="M445.32,477.861h-131.9c1.091-5.838,7.778-12.081,13.514-10.524-1.131-4.89-2.262-9.839-2.12-14.849.122-5.01,1.657-10.182,5.171-13.737,3.536-3.575,9.293-5.131,13.779-2.868,3.818,1.9,6.019,6.121,6.645,10.343.607,4.223-.141,8.484-.887,12.687a15.283,15.283,0,0,1,29.454,3.918,10.246,10.246,0,0,1,18.969,5.536c1.9-7.091,3.918-14.4,8.606-20.061,4.666-5.657,12.807-9.152,19.535-6.223,5.131,2.222,8.284,7.636,9.273,13.111,1.009,5.495.2,11.131-.607,16.647C438.331,470.225,443.482,474.064,445.32,477.861Z" transform="translate(-279.312 -389.537)"/>
          </g>
        </g>
        <g id="Grupo_157" data-name="Grupo 157" transform="translate(32.054 130.999)">
          <g id="Grupo_92" data-name="Grupo 92">
            <g id="Grupo_77" data-name="Grupo 77" transform="translate(34.895 360.687)">
              <g id="Grupo_75" data-name="Grupo 75" transform="translate(0 212.86)">
                <path id="Caminho_4274" data-name="Caminho 4274" class="cls-7" d="M107.546,445.941l-34.5,11.623a18.8,18.8,0,0,0-9.1,6.384,14.071,14.071,0,0,0-2.523,5.144h70.475s2.2-12.553-2.691-23.151Z" transform="translate(-61.419 -385.353)"/>
                <path id="Caminho_4275" data-name="Caminho 4275" class="cls-8" d="M109.475,472.666l6.5-60.588-29.563.687,1.4,59.9S94.616,475.67,109.475,472.666Z" transform="translate(-41.691 -412.078)"/>
              </g>
              <g id="Grupo_76" data-name="Grupo 76" transform="translate(80.339 213.216)">
                <path id="Caminho_4276" data-name="Caminho 4276" class="cls-7" d="M152.448,445.941l-34.5,11.623a18.784,18.784,0,0,0-9.1,6.384,14.1,14.1,0,0,0-2.525,5.144H176.8s2.2-12.553-2.693-23.151Z" transform="translate(-106.321 -385.709)"/>
                <path id="Caminho_4277" data-name="Caminho 4277" class="cls-8" d="M155.607,472.509l3.7-60.232H129.76l4.19,60.232S140.747,475.513,155.607,472.509Z" transform="translate(-87.823 -412.277)"/>
              </g>
              <path id="Caminho_4278" data-name="Caminho 4278" class="cls-9" d="M108.564,293.637S86.425,398.225,85.886,420.9s-.322,87.905-.322,87.905,16.2,3.62,33.2-1.508c0,0,9.808-73.71,11.3-80.729s44.773-130.832,44.773-130.832Z" transform="translate(-42.398 -292.692)"/>
              <path id="Caminho_4279" data-name="Caminho 4279" class="cls-9" d="M180.855,293.109s-14.68,96.864-12.789,214.465c0,0-17.268,3.421-32.225-.025,0,0-15.571-152.787-16.087-213.5Z" transform="translate(-15.381 -293.109)"/>
            </g>
            <g id="Grupo_80" data-name="Grupo 80" transform="translate(117.69 169.115)">
              <path id="Caminho_4280" data-name="Caminho 4280" class="cls-8" d="M210.3,186.044s-58.586,46.127-61.688,45.92c-1.8-.122-21.988-24.491-21.988-24.491l-18.933,5.251s25.41,49.126,34.086,49.112c10.22-.018,63.2-32.984,63.2-32.984Z" transform="translate(-107.694 -186.033)"/>
              <g id="Grupo_79" data-name="Grupo 79" transform="translate(40.903)">
                <path id="Caminho_4281" data-name="Caminho 4281" class="cls-3" d="M133.1,268.744l1.939-1.091,1.879-1.05,18.969-10.665,1.839-1.031,19.009-10.667,1.859-1.05,8.667-4.868,5.01-52.282c-1.091.324-5.919,3.516-12.383,8-.87.607-1.778,1.233-2.707,1.879-5.495,3.84-11.859,8.384-18,12.829-.909.626-1.8,1.272-2.687,1.9v.02c-7.11,5.131-13.738,9.939-18.121,13.131-1.011.748-1.9,1.394-2.646,1.939-1.718,1.252-2.707,1.979-2.707,1.979S127.422,255.289,133.1,268.744Z" transform="translate(-130.555 -186.038)"/>
                <g id="Grupo_78" data-name="Grupo 78" transform="translate(2.665 8)">
                  <path id="Caminho_4282" data-name="Caminho 4282" class="cls-5" d="M157.508,240.71l1.859-1.05c-.2-1.05-.383-2.12-.565-3.172-2.485-15.171-3.009-31.291,1.859-45.979-.87.607-1.778,1.233-2.707,1.879-.263.889-.5,1.8-.728,2.707C153.528,210.146,154.761,225.6,157.508,240.71Z" transform="translate(-113.993 -190.509)"/>
                  <path id="Caminho_4283" data-name="Caminho 4283" class="cls-5" d="M145.684,245.921l1.839-1.031c-.061-.324-.1-.626-.163-.95-2.444-14.908-2.99-30.747,1.617-45.211-.909.626-1.8,1.272-2.687,1.9v.02c-.183.626-.344,1.272-.5,1.9C142.271,216.87,143.221,231.538,145.684,245.921Z" transform="translate(-123.018 -184.022)"/>
                  <path id="Caminho_4284" data-name="Caminho 4284" class="cls-5" d="M133.863,251l1.879-1.05c-2.222-14.162-2.646-29.069,1.455-42.807-1.011.748-1.9,1.394-2.646,1.939-.061.263-.141.524-.2.787C131.015,223.423,131.7,237.323,133.863,251Z" transform="translate(-132.044 -177.383)"/>
                </g>
              </g>
            </g>
            <g id="Grupo_81" data-name="Grupo 81" transform="translate(186.592 195.807)">
              <path id="Caminho_4285" data-name="Caminho 4285" class="cls-8" d="M160.87,200.956c8.135,7.89,17.212,68.8,19.914,70.731S261.81,314.8,261.81,314.8l-3.666,16.785s-88.261-28.745-92.89-32.411-18.042-45.453-18.042-45.453Z" transform="translate(-145.409 -200.956)"/>
              <path id="Caminho_4286" data-name="Caminho 4286" class="cls-10" d="M161.3,200.956c6.08,1.473,17.142,38.523,17.142,38.523s-14.187,27.953-24.117,36.85l-8.119-19.9Z" transform="translate(-146.204 -200.956)"/>
            </g>
            <g id="Grupo_91" data-name="Grupo 91">
              <g id="Grupo_83" data-name="Grupo 83">
                <g id="Grupo_82" data-name="Grupo 82">
                  <path id="Caminho_4287" data-name="Caminho 4287" class="cls-8" d="M173.662,262.429c-1.526.238-67.117-47.951-71.67-56.673s-35.3-92.092-35.3-92.092l-19.068,3.385S70.754,220.438,74.222,226.484c4.625,8.071,89.577,74.086,89.577,74.086Z" transform="translate(-37.407 -74.041)"/>
                  <path id="Caminho_4288" data-name="Caminho 4288" class="cls-10" d="M132.473,203.182c-1.3-.683-18.211-14.446-18.211-14.446S99,205.961,99.855,228.29l21.66,13.516Z" transform="translate(3.782 -14.793)"/>
                  <path id="Caminho_4289" data-name="Caminho 4289" class="cls-8" d="M76.623,108.594c-2.1-.9-6.271,5.092-8.223,8.134-2.262-10.782-5.373-23.546-7.352-23.143-3.41.692.682,20.556.682,20.556s-6.343-23.761-9.882-22.58,3.829,26.092,3.829,26.092-6.405-19.306-9.746-18.112,4.8,21.392,4.8,21.392-6.022-12.283-8.5-10.674,10.351,25.6,10.351,25.6l18.645-4.584.081-.213C72.148,128.828,79.251,109.727,76.623,108.594Z" transform="translate(-41.916 -91.518)"/>
                </g>
                <path id="Caminho_4290" data-name="Caminho 4290" class="cls-10" d="M95.683,369.966c28.683,25.02,105.853,10.832,105.853,10.832,1.542-10.844-3.4-53.855-5.593-79.561-1.188-14.14-2.2-24.544-2.2-24.544l.256-2.274,7.542-68.111L190.3,201.164l-9.914-4.539-21.714-2.449-1.823.388-21.111,4.326c-.394.664-.785,1.3-1.179,1.966a75.5,75.5,0,0,0-9.757,47.285,68.923,68.923,0,0,0,5.779,21.182l-5.615,18.026Z" transform="translate(0.517 -10.501)"/>
                <path id="Caminho_4291" data-name="Caminho 4291" class="cls-11" d="M134.127,198.657s-1.065,16.291-3.437,16.45-2.619-12.968-2.619-12.968-.318,17.464-3.349,16.609S122.4,201,122.4,201s-1.6,14.421-3.246,13.99S117,199.362,117,199.362s-2.587,9.857-3.605,9.826-2.351-15.282,1.05-17.538C119.146,188.53,133.2,196.056,134.127,198.657Z" transform="translate(13.598 -13.081)"/>
              </g>
              <g id="Grupo_90" data-name="Grupo 90" transform="translate(127.512 76.705)">
                <path id="Caminho_4292" data-name="Caminho 4292" class="cls-7" d="M144.39,156.155a22.067,22.067,0,1,0,28.1-14.24A22.276,22.276,0,0,0,144.39,156.155Z" transform="translate(-89.51 -129.355)"/>
                <ellipse id="Elipse_6" data-name="Elipse 6" class="cls-7" cx="37.957" cy="37.245" rx="37.957" ry="37.245" transform="translate(0 71.92) rotate(-71.334)"/>
                <g id="Grupo_89" data-name="Grupo 89" transform="translate(12.44 14.652)">
                  <g id="Grupo_84" data-name="Grupo 84">
                    <path id="Caminho_4293" data-name="Caminho 4293" class="cls-8" d="M120.192,186.965a1.888,1.888,0,0,0-.018.363q-.043.679-.018,1.365c-.166,5.731.689,11.3,3.342,15.478a36.632,36.632,0,0,0,6.182,7.495c.66.623,1.3,1.174,1.906,1.721.58.521,1.165,1,1.7,1.492,4.452,4.015,7.012,7.611,6.137,17.391,0,0,10.8,7.4,21.556,3.045a115.6,115.6,0,0,1,7.55-26.09q1.092-2.716,2.4-5.479c.481-1.018.982-2.033,1.53-3.043q.448-.942.964-1.877s.345-1.648.823-4.264c1.328-7.128,3.8-21.175,3.5-26.593-1.374-25.453-44.676-29.651-51.474-7.81C126.27,160.161,120.9,173.768,120.192,186.965Z" transform="translate(-120.136 -139.842)"/>
                    <path id="Caminho_4294" data-name="Caminho 4294" class="cls-7" d="M126.89,152.919a26.747,26.747,0,0,1,18.092-10.181c6.225-.68,12.512.878,18.293,3.287a39.935,39.935,0,0,1,11.481,6.928,22.95,22.95,0,0,1,7.087,11.229,24.686,24.686,0,0,1-.281,11.9c-.966,3.89-1.734,8.76-3.41,12.4-9.417-1.1-38.765-16.691-44.183-35.049-7.357,5.985-10.411,13.63-12.229,19.6A26.751,26.751,0,0,1,126.89,152.919Z" transform="translate(-119.105 -142.578)"/>
                    <path id="Caminho_4295" data-name="Caminho 4295" class="cls-8" d="M132.35,188.416a.521.521,0,0,1,.213-1.016,26.1,26.1,0,0,0,13.39-1.721.522.522,0,0,1,.678.284.516.516,0,0,1-.283.678,27.145,27.145,0,0,1-13.925,1.791A.482.482,0,0,1,132.35,188.416Z" transform="translate(-110.794 -108.594)"/>
                  </g>
                  <g id="Grupo_87" data-name="Grupo 87" transform="translate(1.002 32.168)">
                    <path id="Caminho_4296" data-name="Caminho 4296" class="cls-12" d="M129.861,168.7a3.25,3.25,0,0,0-1.936-.356,1.657,1.657,0,0,0-1.252,1.215c-.358,1.333.73,2.385,1.744,3.038a.407.407,0,0,0,.555-.072.4.4,0,0,0-.07-.555c-.714-.46-1.657-1.161-1.485-2.131a.864.864,0,0,1,.7-.726,2.65,2.65,0,0,1,1.437.317A.4.4,0,0,0,129.861,168.7Z" transform="translate(-116.033 -154.449)"/>
                    <path id="Caminho_4297" data-name="Caminho 4297" class="cls-13" d="M120.714,168.568c-.19,1.172,1.1,2.353,2.866,2.637s3.36-.437,3.548-1.608-1.1-2.353-2.866-2.637S120.9,167.4,120.714,168.568Z" transform="translate(-120.696 -155.554)"/>
                    <path id="Caminho_4298" data-name="Caminho 4298" class="cls-13" d="M131.957,170.1c-.188,1.172,1.095,2.353,2.866,2.637s3.36-.435,3.548-1.607-1.095-2.355-2.866-2.639S132.145,168.93,131.957,170.1Z" transform="translate(-111.822 -154.343)"/>
                    <path id="Caminho_4299" data-name="Caminho 4299" class="cls-7" d="M131.952,161.264a12.123,12.123,0,0,1,5.87,1.344.921.921,0,0,1,.338,1.249.934.934,0,0,1-1.249.336c-.208-.107-.417-.208-.632-.3l-.129-.055c.084.034.073.029-.032-.013s-.233-.089-.351-.131a11.291,11.291,0,0,0-1.254-.363,9.338,9.338,0,0,0-2.548-.236.914.914,0,1,1-.014-1.829Z" transform="translate(-112.528 -160.003)"/>
                    <path id="Caminho_4300" data-name="Caminho 4300" class="cls-7" d="M129.979,160.986a12.109,12.109,0,0,0-6.022-.095.92.92,0,0,0-.624,1.131.933.933,0,0,0,1.131.624c.227-.054.456-.1.687-.141l.138-.023c-.089.013-.077.011.034-.005s.247-.03.372-.043A10.961,10.961,0,0,1,127,162.38a9.342,9.342,0,0,1,2.53.378.914.914,0,0,0,.449-1.771Z" transform="translate(-118.646 -160.557)"/>
                    <path id="Caminho_4301" data-name="Caminho 4301" class="cls-14" d="M127.371,174.252c-.227-.17.009,0,.045.025l.179.113c.132.081.267.156.406.225s.281.131.422.193v0l.018,0c.079.027.159.055.24.081a5.943,5.943,0,0,0,.866.193l.079.009c.064.005.129.011.2.014.154.009.31.009.463,0s.317-.018.474-.034l.021,0,.005,0c.072-.014.141-.025.213-.039a6.975,6.975,0,0,0,.909-.27l.032-.009c.063-.03.125-.057.188-.088.156-.077.306-.159.454-.249.123-.075.243-.154.361-.236l.082-.059c.055-.045.111-.093.165-.14a1.071,1.071,0,0,1,1.542,1.487,6.85,6.85,0,0,1-8.848.318,1.072,1.072,0,0,1-.027-1.514A1.1,1.1,0,0,1,127.371,174.252Z" transform="translate(-116.858 -150.211)"/>
                    <g id="Grupo_85" data-name="Grupo 85" transform="translate(5.804 4.75)">
                      <path id="Caminho_4302" data-name="Caminho 4302" d="M123.96,165.425a2.2,2.2,0,0,0,1.576,2.621c1.022.116,1.97-.871,2.12-2.2a2.2,2.2,0,0,0-1.576-2.621C125.06,163.1,124.11,164.092,123.96,165.425Z" transform="translate(-123.94 -163.212)"/>
                      <path id="Caminho_4303" data-name="Caminho 4303" class="cls-15" d="M125.06,164.218a.679.679,0,0,0,.487.809c.315.036.607-.268.653-.68a.678.678,0,0,0-.487-.807C125.4,163.5,125.106,163.809,125.06,164.218Z" transform="translate(-123.061 -162.955)"/>
                    </g>
                    <g id="Grupo_86" data-name="Grupo 86" transform="translate(18.517 6.183)">
                      <path id="Caminho_4304" data-name="Caminho 4304" d="M131.065,166.226a2.2,2.2,0,0,0,1.576,2.621c1.022.116,1.972-.871,2.122-2.2a2.2,2.2,0,0,0-1.578-2.621C132.165,163.907,131.215,164.893,131.065,166.226Z" transform="translate(-131.045 -164.013)"/>
                      <path id="Caminho_4305" data-name="Caminho 4305" class="cls-15" d="M132.165,165.021a.678.678,0,0,0,.487.807c.315.036.607-.268.653-.68a.676.676,0,0,0-.485-.807C132.5,164.305,132.211,164.61,132.165,165.021Z" transform="translate(-130.166 -163.756)"/>
                    </g>
                  </g>
                  <g id="Grupo_88" data-name="Grupo 88" transform="translate(47.226 41.546)">
                    <path id="Caminho_4306" data-name="Caminho 4306" class="cls-8" d="M160.689,179.152c-3.224,4.319-8.468,5.858-11.712,3.435s-3.263-7.887-.039-12.206,8.468-5.856,11.712-3.435S163.913,174.833,160.689,179.152Z" transform="translate(-146.531 -165.799)"/>
                    <path id="Caminho_4307" data-name="Caminho 4307" class="cls-12" d="M158.959,168.523a6.543,6.543,0,0,0-6.368.447,12.475,12.475,0,0,0-4.571,5.946c-.4.932,1.016,1.639,1.421.7a11.4,11.4,0,0,1,3.7-5.11,5.025,5.025,0,0,1,5.124-.56A.793.793,0,0,0,158.959,168.523Z" transform="translate(-145.412 -164.147)"/>
                    <path id="Caminho_4308" data-name="Caminho 4308" class="cls-12" d="M154.9,172.412a4.092,4.092,0,0,0-5.21-2.677.792.792,0,1,0,.492,1.507c.088-.029.177-.054.267-.077l.038-.009q.07-.013.14-.021a4.069,4.069,0,0,1,.553-.02l.007,0c.057.009.115.013.172.021.091.014.182.034.274.055.045.011.089.023.134.036l.025.007c.089.034.179.07.267.111s.174.088.258.138l.07.045.066.048a3.092,3.092,0,0,1,.456.422l.02.025c.03.039.061.079.091.12.057.082.113.168.163.254.032.055.061.111.089.166l0,.005c0,.005,0,0,0,.014.036.107.082.209.116.318a.792.792,0,0,0,1.507-.492Z" transform="translate(-144.475 -162.853)"/>
                  </g>
                </g>
              </g>
            </g>
          </g>
          <g id="Grupo_112" data-name="Grupo 112" transform="translate(157.171 24.518)">
            <g id="Grupo_94" data-name="Grupo 94" transform="translate(131.678)">
              <path id="Caminho_4309" data-name="Caminho 4309" class="cls-11" d="M203.356,235.586c2.576.787,75.8-29.291,79.321-31.787,8.808-6.235,58.219-80.53,58.219-80.53l16.164,10.463s-47.453,89.156-58.026,94.352-90.841,44.66-90.841,44.66Z" transform="translate(-203.356 -90.978)"/>
              <path id="Caminho_4310" data-name="Caminho 4310" class="cls-11" d="M282.637,114.322c2.278-.163,4.244,6.876,5.081,10.39,5.691-9.433,12.836-20.456,14.573-19.424,2.992,1.778-7.422,19.182-7.422,19.182s13.822-20.341,16.774-18.06-12.217,23.371-12.217,23.371S311.839,113.668,314.6,115.9s-11.582,18.615-11.582,18.615,9.735-9.61,11.539-7.277-18.212,20.755-18.212,20.755l-16.09-10.476-.005-.227C280.189,134.9,279.783,114.526,282.637,114.322Z" transform="translate(-142.714 -105.221)"/>
              <path id="Caminho_4311" data-name="Caminho 4311" class="cls-3" d="M203.358,213.136,209.6,261.6s8.3-4.02,19.98-9.656c.626-.324,1.272-.626,1.94-.95,8.121-3.938,17.676-8.565,27.11-13.131q1-.483,2-.97c12-5.817,23.6-11.474,31.637-15.414.666-.322,1.292-.626,1.9-.929,4.486-2.2,7.556-3.738,8.565-4.262,6.182-3.314,22.081-27.092,22.081-27.092-1.818-14.079-22.948-37.495-22.948-37.495s-24.161,26.505-24.727,28.04c-.021.061-.122.141-.283.243a14.453,14.453,0,0,1-1.718,1.009c-4.081,2.222-13.94,6.99-25.111,12.183l-1.818.848c-9.919,4.586-20.646,9.434-29.152,13.09-.626.263-1.252.546-1.837.789C209.742,211.1,204.349,213.217,203.358,213.136Z" transform="translate(-203.354 -68.539)"/>
              <g id="Grupo_93" data-name="Grupo 93" transform="translate(13.863 111.447)">
                <path id="Caminho_4312" data-name="Caminho 4312" class="cls-5" d="M211.1,183.462c.646,1.333,1.272,2.666,1.859,4.02a130.436,130.436,0,0,1,10.5,40.019c.626-.324,1.272-.626,1.94-.95-.141-1.292-.283-2.605-.465-3.918a132.408,132.408,0,0,0-12-39.96C212.315,182.936,211.689,183.219,211.1,183.462Z" transform="translate(-211.104 -155.543)"/>
                <path id="Caminho_4313" data-name="Caminho 4313" class="cls-5" d="M228.424,175.731q.88,1.908,1.7,3.879a114.909,114.909,0,0,1,8.726,39.958q1-.483,2-.97c-.02-.989-.081-1.959-.161-2.949a117.493,117.493,0,0,0-10.445-40.767Z" transform="translate(-197.435 -161.691)"/>
                <path id="Caminho_4314" data-name="Caminho 4314" class="cls-5" d="M243.475,168.519c.122.163.222.3.324.465A115.08,115.08,0,0,1,260.607,209c.666-.322,1.292-.626,1.9-.929-.4-1.939-.87-3.859-1.394-5.777a118.126,118.126,0,0,0-15.919-34.788A14.449,14.449,0,0,1,243.475,168.519Z" transform="translate(-185.557 -167.51)"/>
              </g>
            </g>
            <g id="Grupo_95" data-name="Grupo 95" transform="translate(49.266 128.4)">
              <path id="Caminho_4315" data-name="Caminho 4315" class="cls-16" d="M292.638,176.985c-4.927,1.77-51,85.112-54.732,86.558s-80.611,53.681-80.611,53.681l1.084,22.583s87.948-44.431,89.974-47.9,38.489-51.8,38.489-51.8Z" transform="translate(-157.295 -176.985)"/>
              <path id="Caminho_4316" data-name="Caminho 4316" class="cls-17" d="M251.206,176.985c-4.446,1.576-41.413,48.2-41.413,48.2s6.277,25.532,23.3,37.824l14.634-21.75Z" transform="translate(-115.863 -176.985)"/>
            </g>
            <g id="Grupo_110" data-name="Grupo 110" transform="translate(0 33.013)">
              <g id="Grupo_98" data-name="Grupo 98" transform="translate(0 290.353)">
                <g id="Grupo_96" data-name="Grupo 96" transform="translate(66.829 264.868)">
                  <path id="Caminho_4317" data-name="Caminho 4317" class="cls-17" d="M215.525,445.3l-36.212,12.2a19.724,19.724,0,0,0-9.554,6.7,14.776,14.776,0,0,0-2.648,5.4h73.967s2.312-13.176-2.825-24.3Z" transform="translate(-167.111 -425.064)"/>
                  <path id="Caminho_4318" data-name="Caminho 4318" class="cls-11" d="M192.854,433.99l2.263,20.236s6.969,3.258,22.73,0l-.177-20.236Z" transform="translate(-146.794 -433.99)"/>
                </g>
                <g id="Grupo_97" data-name="Grupo 97" transform="translate(0 264.868)">
                  <path id="Caminho_4319" data-name="Caminho 4319" class="cls-17" d="M178.172,445.3l-36.212,12.2a19.711,19.711,0,0,0-9.553,6.7,14.748,14.748,0,0,0-2.648,5.4h73.968s2.312-13.176-2.825-24.3Z" transform="translate(-129.76 -425.064)"/>
                  <path id="Caminho_4320" data-name="Caminho 4320" class="cls-11" d="M155.5,433.99l2.263,20.236s6.971,3.258,22.73,0l-.177-20.236Z" transform="translate(-109.444 -433.99)"/>
                </g>
                <path id="Caminho_4321" data-name="Caminho 4321" class="cls-18" d="M236.813,285.953c8.227,61.6-9.624,114.48-3.482,271.424,0,0-17.965,3.781-36.459,0,0,0-21.385-152.558-15.276-271.131Z" transform="translate(-89.717 -285.953)"/>
                <path id="Caminho_4322" data-name="Caminho 4322" class="cls-18" d="M161.236,285.953s-16.978,150.579-8.1,272.265c0,0,20.835,4.292,35.884,0,0,0,7.6-170.016,31.35-272.265Z" transform="translate(-113.341 -285.953)"/>
              </g>
              <g id="Grupo_101" data-name="Grupo 101" transform="translate(43.462 104.09)">
                <g id="Grupo_99" data-name="Grupo 99">
                  <path id="Caminho_4323" data-name="Caminho 4323" class="cls-3" d="M154.051,376.332a40.864,40.864,0,0,0,5.656,3.253c23.7,11.352,62.465,5.19,84.687.12,10.343-2.342,17.11-4.484,17.11-4.484.041-1.394.061-2.97.02-4.707-.02-2.222-.1-4.727-.222-7.454-.12-2.444-.261-5.092-.444-7.919q-.212-3.242-.485-6.788c-.02-.363-.061-.726-.081-1.111l-.061-.909c-.182-2.122-.344-4.3-.526-6.545-.242-2.607-.463-5.294-.726-8.041-.222-2.444-.445-4.929-.687-7.456-.041-.322-.061-.666-.1-.989-.161-1.676-.322-3.373-.5-5.071-.039-.646-.122-1.292-.181-1.94v-.081c-.243-2.464-.506-4.91-.748-7.414-.3-2.646-.587-5.312-.889-8-.263-2.464-.546-4.949-.809-7.454-.2-1.718-.383-3.435-.565-5.131-.081-.667-.161-1.333-.222-2-.041-.283-.081-.565-.1-.848-.3-2.5-.587-4.99-.85-7.475-.322-2.686-.626-5.353-.948-8-.263-2.242-.526-4.464-.789-6.686-.039-.263-.061-.526-.1-.789-.122-1.05-.243-2.059-.344-3.07-.041-.383-.081-.748-.141-1.131-.081-.687-.161-1.354-.243-2.02-.059-.587-.141-1.172-.222-1.757,0-.061-.02-.143-.02-.2l-.061-.485c-.161-1.313-.324-2.648-.465-3.96-.12-.95-.242-1.9-.344-2.848-.12-.911-.242-1.8-.344-2.687-.181-1.374-.342-2.707-.524-4.061-.041-.4-.081-.807-.141-1.211-.161-1.435-.324-2.848-.5-4.262-.141-1.072-.283-2.142-.4-3.213-.041-.344-.081-.666-.122-.989-.1-.768-.2-1.535-.283-2.3-.081-.687-.183-1.354-.263-2.02-.1-.909-.222-1.8-.344-2.687-.322-2.605-.626-5.11-.948-7.475-.365-2.848-.708-5.534-1.031-8.019-.363-2.748-.687-5.253-.97-7.454-.1-.828-.222-1.637-.324-2.385-.081-.687-.161-1.353-.263-1.979-.181-1.415-.344-2.646-.485-3.637-.261-2.081-.424-3.212-.424-3.212l-5.334-1.737h-.02l-14.99-4.929-2.544-.828H196.758l-3.314,1.091-16.625,5.414-3.092.989c-.2,1.192-.363,2.444-.546,3.757-.2,1.313-.383,2.668-.565,4.1-.1.667-.181,1.335-.263,2.02-.1.626-.181,1.274-.261,1.92-.3,2.364-.626,4.849-.95,7.454q-.486,3.881-.97,8.06c-.3,2.424-.585,4.91-.87,7.456a.26.26,0,0,0-.02.122c-.122.989-.242,1.979-.344,2.968-.039.263-.081.546-.1.809-.041.4-.081.809-.122,1.211-.1.889-.182,1.8-.3,2.729,0,.081-.021.141-.021.222-.2,1.676-.383,3.394-.585,5.131-.081.768-.161,1.555-.243,2.344-.059.524-.12,1.07-.181,1.616-.183,1.777-.385,3.535-.565,5.353-.041.344-.081.687-.122,1.05-.122.97-.222,1.959-.324,2.95-.141,1.494-.322,3.009-.485,4.525-.02.161-.039.3-.061.463-.02.122-.02.263-.039.4l-.122,1.213c-.061.666-.141,1.333-.2,2.02-.02.263-.061.5-.081.768-.1,1.05-.222,2.1-.344,3.151-.242,2.485-.5,4.97-.748,7.475-.283,2.707-.565,5.373-.848,8.06-.242,2.485-.485,4.969-.748,7.454-.039.344-.061.687-.1,1.031-.061.667-.141,1.354-.2,2.02-.161,1.676-.324,3.333-.5,5.01-.243,2.485-.485,4.97-.728,7.434-.263,2.707-.546,5.394-.787,8.041-.263,2.526-.5,5.01-.748,7.434v.021l-.182,2c-.2,2.042-.383,4.062-.585,6.04-.242,2.546-.485,5.031-.707,7.456-.283,2.766-.526,5.454-.768,8.039-.2,2.183-.4,4.324-.607,6.344-.039.383-.061.748-.1,1.111-.021.3-.061.6-.082.909q-.362,3.787-.666,7.151c-.263,2.768-.5,5.312-.728,7.575-.283,3.051-.5,5.595-.707,7.6C154.212,374.553,154.051,376.332,154.051,376.332Z" transform="translate(-154.051 -181.849)"/>
                </g>
                <g id="Grupo_100" data-name="Grupo 100" transform="translate(2.544 14.344)">
                  <path id="Caminho_4324" data-name="Caminho 4324" class="cls-5" d="M164.28,192.9c1.637.263,3.274.506,4.929.709,22.041,2.888,44.263,1.574,66.161-1.759-.081-.687-.161-1.353-.263-1.979-.3.039-.626.1-.929.141-22.989,3.455-46.646,4.545-69.636.868C164.443,191.542,164.362,192.21,164.28,192.9Z" transform="translate(-148.522 -189.866)"/>
                  <path id="Caminho_4325" data-name="Caminho 4325" class="cls-5" d="M162.248,209.662c2.848.526,5.7.97,8.565,1.335,23.333,3.049,46.89,1.394,70.04-2.344-.081-.687-.183-1.354-.263-2.02-1.6.263-3.192.524-4.808.768-24.222,3.636-49.171,4.647-73.313.242-.039.263-.081.546-.1.809C162.329,208.855,162.289,209.26,162.248,209.662Z" transform="translate(-150.126 -176.633)"/>
                  <path id="Caminho_4326" data-name="Caminho 4326" class="cls-5" d="M160.43,226.451q5.88,1.181,11.818,1.94c24.585,3.212,49.373,1.211,73.717-2.97-.081-.687-.161-1.354-.243-2.02-2.827.5-5.656.97-8.5,1.394-25.333,3.8-51.434,4.727-76.585-.363C160.571,225.1,160.491,225.764,160.43,226.451Z" transform="translate(-151.561 -163.401)"/>
                  <path id="Caminho_4327" data-name="Caminho 4327" class="cls-5" d="M158.714,243.168q7.364,1.637,14.888,2.607c25.757,3.373,51.758,1.009,77.211-3.6-.081-.667-.161-1.333-.222-2q-6,1.09-12.02,2c-26.342,3.94-53.554,4.808-79.655-1.031C158.855,241.815,158.775,242.5,158.714,243.168Z" transform="translate(-152.915 -150.16)"/>
                  <path id="Caminho_4328" data-name="Caminho 4328" class="cls-5" d="M157.065,259.874a172.163,172.163,0,0,0,17.838,3.294c26.829,3.514,53.939.807,80.4-4.2-.039-.646-.122-1.292-.181-1.94v-.08c-5.071.97-10.163,1.859-15.253,2.627-27.353,4.1-55.635,4.868-82.625-1.718v.021Z" transform="translate(-154.217 -136.927)"/>
                  <path id="Caminho_4329" data-name="Caminho 4329" class="cls-5" d="M155.473,276.487a164.053,164.053,0,0,0,20.687,4.02c27.738,3.616,55.757.6,83.091-4.707-.02-.363-.061-.726-.081-1.111l-.061-.909c-5.979,1.15-11.959,2.222-17.98,3.131-28.323,4.242-57.616,4.91-85.474-2.444-.039.383-.061.748-.1,1.111C155.534,275.881,155.494,276.183,155.473,276.487Z" transform="translate(-155.473 -123.641)"/>
                </g>
              </g>
              <g id="Grupo_109" data-name="Grupo 109" transform="translate(57.414)">
                <g id="Grupo_108" data-name="Grupo 108">
                  <g id="Grupo_102" data-name="Grupo 102">
                    <path id="Caminho_4330" data-name="Caminho 4330" d="M161.851,151.963c-.079-5.691,3.217-11.862,8.771-13.111-.734-4.461,1.694-9.057,5.353-11.71s8.341-3.577,12.861-3.459a32.456,32.456,0,0,1,27.48,17.3,9.2,9.2,0,0,1,8.271.515,17.926,17.926,0,0,1,6.067,5.992c5.369,8.023,7.067,18.966,2.441,27.439-4.056,7.431-12.406,11.921-20.839,12.66s-16.887-1.888-24.3-5.967A101.086,101.086,0,0,1,172.92,171.1c-1.752-1.428-3.559-2.639-5.382-3.949-1.839-1.32-2.648-3.6-3.473-5.618A26.552,26.552,0,0,1,161.851,151.963Z" transform="translate(-161.849 -123.672)"/>
                    <path id="Caminho_4331" data-name="Caminho 4331" class="cls-11" d="M164.507,177.56c0,.476.021.929.068,1.4.023.115.023.25.045.363.408,5.917,1.836,11.583,4.987,15.641a37.317,37.317,0,0,0,5.35,5.645c.59.544,1.179,1.02,1.746,1.451.748.565,1.474,1.088,2.154,1.585,6.1,4.33,9.905,6.62,9.928,18.635,0,0,10.791,9.293,22.714-1.088,0,0,.181-9.5,5.01-25.48.567-1.95,1.224-3.9,1.9-5.894.408-1.088.816-2.176,1.292-3.287.25-.68.5-1.338.816-2.018,0,0,.182-1.744.408-4.487.658-7.459,1.837-22.193,1-27.747-3.945-26.092-48.987-26.137-53.816-2.97C168.111,149.313,163.917,163.867,164.507,177.56Z" transform="translate(-159.797 -116.856)"/>
                    <path id="Caminho_4332" data-name="Caminho 4332" d="M201.513,158.8a36.276,36.276,0,0,0,3.319,7.881,13.24,13.24,0,0,0,6.291,5.6,8.183,8.183,0,0,0,8.094-1.1c1.974-1.676,2.807-4.333,3.2-6.892a29.583,29.583,0,0,0-10.606-27.11,32.6,32.6,0,0,0-9.5-5.164,37.328,37.328,0,0,0-23.959-.2,19.61,19.61,0,0,0-6.434,3.337,11.2,11.2,0,0,0-2.793,3.414c-.75,1.451-1.088,2.342-.009,3.612a46.345,46.345,0,0,0,6.5,6.25,49.015,49.015,0,0,0,15.881,8.4A47.031,47.031,0,0,0,201.513,158.8Z" transform="translate(-156.651 -118.722)"/>
                    <path id="Caminho_4333" data-name="Caminho 4333" class="cls-11" d="M178.856,177.1a.539.539,0,0,1,.118-1.068,27.033,27.033,0,0,0,13.628-3.1.538.538,0,1,1,.5.952,28.094,28.094,0,0,1-14.171,3.222C178.906,177.108,178.881,177.1,178.856,177.1Z" transform="translate(-148.774 -84.843)"/>
                  </g>
                  <g id="Grupo_106" data-name="Grupo 106" transform="translate(5.493 43.607)">
                    <path id="Caminho_4334" data-name="Caminho 4334" class="cls-19" d="M174.368,156.488a3.378,3.378,0,0,0-2.029-.175,1.714,1.714,0,0,0-1.172,1.376c-.236,1.408.988,2.387,2.1,2.958a.421.421,0,0,0,.565-.129.414.414,0,0,0-.127-.565c-.782-.4-1.821-1.031-1.741-2.047a.9.9,0,0,1,.651-.819,2.733,2.733,0,0,1,1.512.186A.411.411,0,0,0,174.368,156.488Z" transform="translate(-160.012 -141.596)"/>
                    <path id="Caminho_4335" data-name="Caminho 4335" class="cls-20" d="M164.922,157.31c-.077,1.226,1.362,2.315,3.215,2.433s3.419-.78,3.5-2.007-1.36-2.315-3.213-2.433S165,156.083,164.922,157.31Z" transform="translate(-164.919 -142.325)"/>
                    <path id="Caminho_4336" data-name="Caminho 4336" class="cls-20" d="M176.659,157.781c-.079,1.226,1.362,2.315,3.215,2.433s3.419-.78,3.5-2.007-1.362-2.317-3.213-2.435S176.738,156.553,176.659,157.781Z" transform="translate(-155.657 -141.955)"/>
                    <path id="Caminho_4337" data-name="Caminho 4337" d="M175.967,148.256a12.551,12.551,0,0,1,6.18.821.953.953,0,0,1,.467,1.254.965.965,0,0,1-1.254.467c-.224-.089-.451-.174-.68-.25l-.138-.045-.036-.011c-.123-.034-.247-.07-.372-.1a11.608,11.608,0,0,0-1.329-.254,9.72,9.72,0,0,0-2.648,0,.954.954,0,0,1-1.036-.846A.965.965,0,0,1,175.967,148.256Z" transform="translate(-156.87 -147.95)"/>
                    <path id="Caminho_4338" data-name="Caminho 4338" d="M173.959,148.367a12.547,12.547,0,0,0-6.232.15.953.953,0,0,0-.6,1.2.967.967,0,0,0,1.2.6c.233-.064.467-.125.7-.175l.141-.03c-.091.016-.079.014.036-.005s.254-.043.383-.061a11.3,11.3,0,0,1,1.347-.109,9.7,9.7,0,0,1,2.634.286.946.946,0,0,0,.39-1.852Z" transform="translate(-163.217 -148.045)"/>
                    <g id="Grupo_103" data-name="Grupo 103" transform="translate(18.557 6.617)">
                      <path id="Caminho_4339" data-name="Caminho 4339" d="M175.291,154.237a2.009,2.009,0,1,0,1.961-2.494A2.282,2.282,0,0,0,175.291,154.237Z" transform="translate(-175.291 -151.743)"/>
                      <path id="Caminho_4340" data-name="Caminho 4340" class="cls-15" d="M176.513,152.691a.536.536,0,1,0,.522-.666A.609.609,0,0,0,176.513,152.691Z" transform="translate(-174.327 -151.52)"/>
                    </g>
                    <g id="Grupo_104" data-name="Grupo 104" transform="translate(5.991 6.547)">
                      <path id="Caminho_4341" data-name="Caminho 4341" d="M168.268,154.2a2.009,2.009,0,1,0,1.961-2.494A2.279,2.279,0,0,0,168.268,154.2Z" transform="translate(-168.268 -151.704)"/>
                      <path id="Caminho_4342" data-name="Caminho 4342" class="cls-15" d="M169.49,152.651a.535.535,0,1,0,.522-.664A.608.608,0,0,0,169.49,152.651Z" transform="translate(-167.304 -151.481)"/>
                    </g>
                    <g id="Grupo_105" data-name="Grupo 105" transform="translate(8.733 22.835)">
                      <path id="Caminho_4343" data-name="Caminho 4343" class="cls-20" d="M169.814,162.578a3.321,3.321,0,0,0,1.025,2.614,5.034,5.034,0,0,0,.759.6,7.061,7.061,0,0,0,3.722.857,7.139,7.139,0,0,0,2.963-.547,4.047,4.047,0,0,0,1.378-1,3.211,3.211,0,0,0,.66-1.138,2.519,2.519,0,0,0-.8-2.725,2.461,2.461,0,0,0-1.53-.437,4.576,4.576,0,0,0-1.082.141c-.871.238-1.685.66-2.557.9a6.74,6.74,0,0,1-2.85.182c-.3-.055-.646-.2-.955-.225a.578.578,0,0,0-.211-.013C169.968,161.834,169.855,162.27,169.814,162.578Z" transform="translate(-169.8 -160.807)"/>
                      <path id="Caminho_4344" data-name="Caminho 4344" class="cls-15" d="M170.216,161.8a1.851,1.851,0,0,0,.576,1.111,2.773,2.773,0,0,0,1.587.576,7.266,7.266,0,0,0,3.652-.576,3.012,3.012,0,0,0,1.306-.927,1.58,1.58,0,0,0,.324-1.181,4.576,4.576,0,0,0-1.082.141c-.871.238-1.685.66-2.557.9a6.74,6.74,0,0,1-2.85.182C170.876,161.975,170.526,161.833,170.216,161.8Z" transform="translate(-169.472 -160.807)"/>
                      <path id="Caminho_4345" data-name="Caminho 4345" class="cls-21" d="M170.381,163.8a5.034,5.034,0,0,0,.759.6,7.061,7.061,0,0,0,3.722.857,7.139,7.139,0,0,0,2.963-.547,4.047,4.047,0,0,0,1.378-1,6.118,6.118,0,0,0-2.177-.929,11.222,11.222,0,0,0-3.357-.168,5.9,5.9,0,0,0-2.725.73A2.838,2.838,0,0,0,170.381,163.8Z" transform="translate(-169.342 -159.416)"/>
                    </g>
                  </g>
                  <g id="Grupo_107" data-name="Grupo 107" transform="translate(53.828 49.208)">
                    <path id="Caminho_4346" data-name="Caminho 4346" class="cls-11" d="M206.763,164.606c-2.895,4.77-8.146,6.872-11.728,4.7s-4.142-7.8-1.247-12.573,8.146-6.872,11.73-4.7S209.658,159.838,206.763,164.606Z" transform="translate(-191.934 -151.175)"/>
                    <path id="Caminho_4347" data-name="Caminho 4347" class="cls-19" d="M204.089,153.729a6.777,6.777,0,0,0-6.518,1.09,12.932,12.932,0,0,0-4.124,6.579c-.322,1,1.21,1.589,1.535.58a11.782,11.782,0,0,1,3.3-5.631,5.2,5.2,0,0,1,5.224-1.082A.821.821,0,0,0,204.089,153.729Z" transform="translate(-190.776 -149.487)"/>
                    <path id="Caminho_4348" data-name="Caminho 4348" class="cls-19" d="M200.564,157.851a4.236,4.236,0,0,0-5.632-2.244.821.821,0,0,0,.657,1.5c.088-.039.177-.073.267-.107l.038-.013c.047-.013.095-.025.141-.036a4.063,4.063,0,0,1,.569-.075l.007,0c.059,0,.12,0,.179.005.1.005.191.016.286.03.048.005.095.014.141.023l.029.005c.1.025.191.054.284.088s.188.073.281.116l.075.038.073.043a3.511,3.511,0,0,1,.512.39l.023.025c.036.038.072.077.106.116.068.079.132.159.193.245.038.052.073.107.109.161l0,.005.005.014c.047.107.1.209.15.317a.82.82,0,1,0,1.5-.655Z" transform="translate(-189.96 -147.96)"/>
                  </g>
                </g>
              </g>
            </g>
            <g id="Grupo_111" data-name="Grupo 111" transform="translate(42.126 266.233)">
              <path id="Caminho_4349" data-name="Caminho 4349" class="cls-16" d="M157.165,256.064s17.5-3.659,18.359-1.184-12.923,6.593-12.923,6.593,18.524-4.8,18.5-1.324-18.053,7.683-18.053,7.683,15.684-2.535,15.706-.664-15.865,6.885-15.865,6.885,11.154-.149,11.419.941-15.444,6.99-18.815,4.04C150.833,274.955,154.69,257.82,157.165,256.064Z" transform="translate(-153.304 -254.021)"/>
              <path id="Caminho_4350" data-name="Caminho 4350" class="cls-11" d="M223.424,265.952s-15.987-3.31-16.77-1.065,11.8,5.976,11.8,5.976-16.919-4.342-16.9-1.193,16.488,6.964,16.488,6.964-14.326-2.294-14.348-.6,14.491,6.239,14.491,6.239-10.191-.131-10.433.859,14.106,6.334,17.187,3.655C229.2,283.087,225.684,267.543,223.424,265.952Z" transform="translate(-115.225 -246.061)"/>
            </g>
          </g>
          <g id="Grupo_129" data-name="Grupo 129" transform="translate(268.071 36.03)">
            <g id="Grupo_113" data-name="Grupo 113" transform="translate(144.532 116.896)">
              <path id="Caminho_4351" data-name="Caminho 4351" class="cls-16" d="M272.523,176.99c6.912,4,55.621,90.89,55.621,90.89l44.87,46.546,4.765,22.769s-61.774-45.4-67.913-52.145c-3.868-4.249-29.679-48.113-29.679-48.113Z" transform="translate(-272.523 -176.99)"/>
              <path id="Caminho_4352" data-name="Caminho 4352" class="cls-17" d="M272.523,176.99c4.675,2.029,33.045,41.819,33.045,41.819s-4.9,20.17-18.828,35.645l-8.767-15.861Z" transform="translate(-272.523 -176.99)"/>
            </g>
            <g id="Grupo_128" data-name="Grupo 128">
              <g id="Grupo_116" data-name="Grupo 116" transform="translate(0 305.827)">
                <g id="Grupo_114" data-name="Grupo 114" transform="translate(0 269.417)">
                  <path id="Caminho_4353" data-name="Caminho 4353" class="cls-7" d="M241.764,444.849l-37.414,12.6a20.38,20.38,0,0,0-9.869,6.924,15.243,15.243,0,0,0-2.737,5.577h76.424s2.389-13.612-2.92-25.1Z" transform="translate(-191.743 -423.942)"/>
                  <path id="Caminho_4354" data-name="Caminho 4354" class="cls-16" d="M218.34,433.164l2.34,20.907s7.2,3.367,23.483,0l-.182-20.907Z" transform="translate(-170.753 -433.164)"/>
                </g>
                <g id="Grupo_115" data-name="Grupo 115" transform="translate(93.874 269.417)">
                  <path id="Caminho_4355" data-name="Caminho 4355" class="cls-7" d="M294.231,444.849l-37.414,12.6a20.393,20.393,0,0,0-9.871,6.924,15.268,15.268,0,0,0-2.736,5.577h76.424s2.387-13.612-2.92-25.1Z" transform="translate(-244.21 -423.942)"/>
                  <path id="Caminho_4356" data-name="Caminho 4356" class="cls-16" d="M270.807,433.164l2.339,20.907s7.2,3.367,23.485,0l-.184-20.907Z" transform="translate(-223.22 -433.164)"/>
                </g>
                <path id="Caminho_4357" data-name="Caminho 4357" class="cls-7" d="M229.9,282.585s-22.324,128.948-12.158,277.058c0,0,14.75,4.194,36.876,1.2,0,0,9.767-182.138,39.067-278.263Z" transform="translate(-173.321 -282.585)"/>
                <path id="Caminho_4358" data-name="Caminho 4358" class="cls-7" d="M310.61,282.585s-.231,150.878,6.4,279.034c0,0-19.821,5.3-37.357,2.947,0,0-27.08-142.532-30.173-281.981Z" transform="translate(-146.177 -282.585)"/>
              </g>
              <g id="Grupo_121" data-name="Grupo 121" transform="translate(53.377 109.14)">
                <path id="Caminho_4359" data-name="Caminho 4359" class="cls-22" d="M324.539,200.363c-3.485,1.816-42.345,68.319-47.84,69.4-3.339.658-49.506,4.926-49.506,4.926l-.873,13.111s55.712,5.7,61.207,3.952c7.307-2.319,37.011-47.027,37.011-47.027Z" transform="translate(-217.831 -150.788)"/>
                <g id="Grupo_118" data-name="Grupo 118" transform="translate(0.006)">
                  <path id="Caminho_4360" data-name="Caminho 4360" class="cls-17" d="M221.579,373.581c33.455,23.131,111.008-1.131,111.008-1.131.506-16.808-3.616-58.505-8.263-98.727-.3-2.768-.626-5.514-.948-8.243-.122-1.15-.263-2.281-.4-3.414-.2-1.8-.424-3.575-.626-5.353-.122-.97-.222-1.918-.324-2.848-.061-.383-.1-.787-.141-1.172-.061-.546-.12-1.07-.181-1.6-.182-1.394-.344-2.788-.506-4.181-.181-1.333-.343-2.666-.5-4.02v-.061c-.222-1.918-.465-3.838-.707-5.716-.182-1.413-.344-2.807-.526-4.181-.222-1.92-.444-3.818-.687-5.677-.181-1.433-.363-2.89-.544-4.323-3.111-24.848-5.5-42.526-5.5-42.526l-2.968-.968-19.132-6.284-1.555-.5H265.7l-3.879,1.252-15.312,4.99-4.607,1.514c-1.453,9.8-3.212,23.859-5.029,39.94-.161,1.333-.283,2.705-.444,4.06-.224,1.8-.424,3.657-.648,5.536-.039.363-.061.746-.1,1.131-.1.989-.222,1.981-.344,2.95-.182,1.837-.385,3.655-.585,5.534-.122,1.091-.243,2.2-.365,3.314-.02.283-.061.546-.081.828-.181,1.837-.385,3.677-.607,5.555-.059.607-.12,1.192-.181,1.8-.081.787-.163,1.574-.243,2.342-.02.143-.02.263-.039.4-.283,2.729-.567,5.455-.85,8.2-.12,1.133-.242,2.263-.344,3.416-.3,2.727-.565,5.475-.848,8.2-1.272,12.626-2.525,25.171-3.655,36.888C224.1,345.784,221.579,373.581,221.579,373.581Z" transform="translate(-221.579 -172.655)"/>
                  <g id="Grupo_117" data-name="Grupo 117" transform="translate(29.839 38.106)">
                    <path id="Caminho_4361" data-name="Caminho 4361" class="cls-18" d="M251.466,198.3l-5.232,18.94a1.021,1.021,0,0,0,.984,1.292h8.13a1.018,1.018,0,0,1,1.011,1.154l-2.036,15.167a1.02,1.02,0,0,0,1.909.619l12.748-23.655a1.019,1.019,0,0,0-.9-1.5h-7.86a1.018,1.018,0,0,1-.959-1.362l3.584-10.037a1.019,1.019,0,0,0-.959-1.363h-9.44A1.021,1.021,0,0,0,251.466,198.3Z" transform="translate(-231.989 -191.116)"/>
                    <path id="Caminho_4362" data-name="Caminho 4362" class="cls-18" d="M263.917,245.276a25.662,25.662,0,1,1,25.664-25.661A25.69,25.69,0,0,1,263.917,245.276Zm0-49.674a24.013,24.013,0,1,0,24.015,24.013A24.038,24.038,0,0,0,263.917,195.6Z" transform="translate(-238.256 -193.953)"/>
                  </g>
                </g>
                <g id="Grupo_120" data-name="Grupo 120" transform="translate(0 133.735)">
                  <g id="Grupo_119" data-name="Grupo 119">
                    <path id="Caminho_4363" data-name="Caminho 4363" class="cls-23" d="M224.738,249.06s14.366-2.975,15.07-.957-10.606,5.369-10.606,5.369,15.2-3.9,15.189-1.072-14.816,6.257-14.816,6.257,12.873-2.061,12.893-.535-13.022,5.606-13.022,5.606,9.157-.116,9.374.773-12.675,5.691-15.443,3.283C219.549,264.456,222.707,250.489,224.738,249.06Z" transform="translate(-221.576 -247.401)"/>
                  </g>
                </g>
              </g>
              <g id="Grupo_127" data-name="Grupo 127" transform="translate(67.042)">
                <g id="Grupo_126" data-name="Grupo 126">
                  <g id="Grupo_122" data-name="Grupo 122">
                    <path id="Caminho_4364" data-name="Caminho 4364" d="M229.431,135.354a17.559,17.559,0,0,1,1.8-7.014,7.531,7.531,0,0,1,5.708-4.056,8.493,8.493,0,0,1,12.813-6.352,15.543,15.543,0,0,1,10.277-6,29.775,29.775,0,0,1,12.1.92c9.816,2.507,19.026,7.862,25.374,15.756s9.635,18.393,8.05,28.4-8.309,19.246-17.688,23.075c-5.237,2.14-11,2.587-16.661,2.6a34.877,34.877,0,0,1-10.771-1.263c-7.345-2.353-12.575-8.42-18.674-12.8a35.319,35.319,0,0,0-4.766-2.906,5.231,5.231,0,0,1-2.65-2.31,45.74,45.74,0,0,1-4.115-12.7A54.99,54.99,0,0,1,229.431,135.354Z" transform="translate(-229.213 -111.656)"/>
                    <path id="Caminho_4365" data-name="Caminho 4365" class="cls-16" d="M290.668,170.779c-.234,2.811-.42,4.614-.42,4.614-.3.7-.587,1.4-.845,2.084-.467,1.149-.913,2.3-1.311,3.419-.725,2.038-1.4,4.076-1.99,6.067-4.965,16.511-5.176,26.348-5.176,26.348-12.32,10.728-23.444,1.1-23.444,1.1-.048-12.108-3.795-14.661-9.86-18.948-.141-.093-.283-.209-.422-.3-.7-.492-1.453-1.031-2.226-1.616a39.4,39.4,0,0,1-7.33-7.354c-3.255-4.192-4.731-10.025-5.13-16.137a9.173,9.173,0,0,1-.093-1.125c-.023-.258-.047-.492-.047-.726-.585-14.122,3.723-29.159,3.723-29.159,4.988-23.936,51.527-23.913,55.6,3.068C292.567,147.851,291.371,163.052,290.668,170.779Z" transform="translate(-226.762 -103.913)"/>
                    <path id="Caminho_4366" data-name="Caminho 4366" d="M267.389,138.429a9.787,9.787,0,0,0,8.513,6.341,26.244,26.244,0,0,0,11.249,18.871,4.275,4.275,0,0,0,3.369.986,4.211,4.211,0,0,0,2.228-2.054c5.284-8.513,4.262-20.1-1.344-28.4s-15.18-13.442-25.076-15.017a35.7,35.7,0,0,0-19.2,1.859,26.473,26.473,0,0,0-8.611,5.733c-1.712,1.719-5.359,5.412-4.339,8.144.555,1.489,2.4,2.109,3.722,2.682a39.466,39.466,0,0,0,5.419,1.884,40.544,40.544,0,0,0,11.376,1.369A38.936,38.936,0,0,0,267.389,138.429Z" transform="translate(-225.435 -106.154)"/>
                    <path id="Caminho_4367" data-name="Caminho 4367" class="cls-24" d="M247.2,167.746a.557.557,0,0,1,.123-1.1,27.916,27.916,0,0,0,14.079-3.2.557.557,0,0,1,.521.984,29.06,29.06,0,0,1-14.643,3.328C247.257,167.753,247.231,167.749,247.2,167.746Z" transform="translate(-215.374 -70.836)"/>
                  </g>
                  <g id="Grupo_124" data-name="Grupo 124" transform="translate(6.427 47.2)">
                    <path id="Caminho_4368" data-name="Caminho 4368" class="cls-25" d="M242.567,146.449a3.461,3.461,0,0,0-2.1-.181,1.764,1.764,0,0,0-1.21,1.419c-.245,1.456,1.02,2.467,2.167,3.058a.435.435,0,0,0,.583-.134.426.426,0,0,0-.132-.583c-.805-.415-1.882-1.065-1.8-2.115a.926.926,0,0,1,.675-.846,2.809,2.809,0,0,1,1.56.191A.424.424,0,0,0,242.567,146.449Z" transform="translate(-227.735 -131.619)"/>
                    <path id="Caminho_4369" data-name="Caminho 4369" class="cls-26" d="M232.808,147.3c-.081,1.267,1.406,2.394,3.321,2.516s3.534-.807,3.614-2.076-1.406-2.392-3.323-2.514S232.889,146.031,232.808,147.3Z" transform="translate(-232.805 -132.372)"/>
                    <path id="Caminho_4370" data-name="Caminho 4370" class="cls-26" d="M244.934,147.782c-.081,1.269,1.408,2.394,3.323,2.516s3.532-.807,3.612-2.074-1.406-2.394-3.321-2.516S245.015,146.516,244.934,147.782Z" transform="translate(-223.235 -131.989)"/>
                    <path id="Caminho_4371" data-name="Caminho 4371" d="M244.15,138.247a12.949,12.949,0,0,1,6.425.458.982.982,0,0,1,.56,1.263,1,1,0,0,1-1.263.56c-.236-.077-.476-.15-.717-.215l-.145-.038c.093.021.081.018-.036-.009s-.261-.055-.392-.081a12.032,12.032,0,0,0-1.387-.177,9.976,9.976,0,0,0-2.73.168.989.989,0,0,1-1.124-.809A1,1,0,0,1,244.15,138.247Z" transform="translate(-224.496 -138.036)"/>
                    <path id="Caminho_4372" data-name="Caminho 4372" d="M242.012,138.424a12.959,12.959,0,0,0-6.441.039.985.985,0,0,0-.642,1.224,1,1,0,0,0,1.226.642c.242-.063.485-.12.73-.168l.147-.029q-.142.024.038-.005c.131-.02.263-.039.4-.055a11.716,11.716,0,0,1,1.4-.088,10,10,0,0,1,2.714.345.978.978,0,0,0,.438-1.905Z" transform="translate(-231.167 -138.036)"/>
                    <g id="Grupo_123" data-name="Grupo 123" transform="translate(9.022 23.037)">
                      <path id="Caminho_4373" data-name="Caminho 4373" class="cls-27" d="M237.862,152.741a3.427,3.427,0,0,0,1.059,2.7,5.174,5.174,0,0,0,.784.624,7.3,7.3,0,0,0,3.845.884,7.382,7.382,0,0,0,3.063-.565,4.151,4.151,0,0,0,1.421-1.031,3.257,3.257,0,0,0,.683-1.176,2.6,2.6,0,0,0-.828-2.814,2.549,2.549,0,0,0-1.582-.451,4.761,4.761,0,0,0-1.116.145c-.9.247-1.743.682-2.643.929a6.982,6.982,0,0,1-2.945.19c-.3-.059-.667-.2-.988-.233a.571.571,0,0,0-.216-.014C238.022,151.972,237.905,152.423,237.862,152.741Z" transform="translate(-237.848 -150.911)"/>
                      <path id="Caminho_4374" data-name="Caminho 4374" class="cls-15" d="M238.277,151.943a1.92,1.92,0,0,0,.6,1.147,2.851,2.851,0,0,0,1.639.594,7.482,7.482,0,0,0,3.773-.594,3.121,3.121,0,0,0,1.351-.959,1.619,1.619,0,0,0,.333-1.218,4.761,4.761,0,0,0-1.116.145c-.9.247-1.743.682-2.643.929a6.982,6.982,0,0,1-2.945.19C238.96,152.116,238.6,151.971,238.277,151.943Z" transform="translate(-237.509 -150.911)"/>
                      <path id="Caminho_4375" data-name="Caminho 4375" class="cls-26" d="M238.448,154a5.174,5.174,0,0,0,.784.624,7.3,7.3,0,0,0,3.845.884,7.382,7.382,0,0,0,3.063-.565,4.151,4.151,0,0,0,1.421-1.031,6.325,6.325,0,0,0-2.249-.957,11.545,11.545,0,0,0-3.467-.174,6.072,6.072,0,0,0-2.816.753A2.89,2.89,0,0,0,238.448,154Z" transform="translate(-237.374 -149.474)"/>
                    </g>
                    <path id="Caminho_4376" data-name="Caminho 4376" d="M248.336,146.028a.585.585,0,0,1-.573-.465c-.283-1.34-1.088-3.321-1.918-3.321s-1.535,1.968-1.766,3.3a.585.585,0,0,1-1.154-.2c.073-.438.793-4.274,2.92-4.274,2.108,0,2.974,3.816,3.065,4.251a.588.588,0,0,1-.453.694A.762.762,0,0,1,248.336,146.028Z" transform="translate(-224.825 -135.642)"/>
                    <path id="Caminho_4377" data-name="Caminho 4377" d="M241.192,146.028a.585.585,0,0,1-.573-.465c-.283-1.34-1.088-3.321-1.918-3.321s-1.535,1.968-1.766,3.3a.584.584,0,0,1-1.152-.2c.072-.438.791-4.274,2.918-4.274,2.108,0,2.974,3.816,3.065,4.251a.588.588,0,0,1-.453.694A.722.722,0,0,1,241.192,146.028Z" transform="translate(-230.462 -135.642)"/>
                  </g>
                  <g id="Grupo_125" data-name="Grupo 125" transform="translate(56.367 52.43)">
                    <path id="Caminho_4378" data-name="Caminho 4378" class="cls-16" d="M276.038,154.837c-2.992,4.927-8.416,7.1-12.118,4.852s-4.278-8.064-1.288-12.991,8.418-7.1,12.12-4.852S279.029,149.91,276.038,154.837Z" transform="translate(-260.717 -140.959)"/>
                    <path id="Caminho_4379" data-name="Caminho 4379" class="cls-25" d="M273.274,143.6a7,7,0,0,0-6.735,1.125,13.369,13.369,0,0,0-4.26,6.8c-.333,1.032,1.251,1.641,1.585.6a12.179,12.179,0,0,1,3.414-5.817,5.373,5.373,0,0,1,5.4-1.12A.848.848,0,0,0,273.274,143.6Z" transform="translate(-259.521 -139.215)"/>
                    <path id="Caminho_4380" data-name="Caminho 4380" class="cls-25" d="M269.634,147.856a4.378,4.378,0,0,0-5.82-2.317.847.847,0,1,0,.678,1.553c.089-.039.182-.073.276-.109l.039-.013q.073-.021.145-.038a4.656,4.656,0,0,1,.589-.079l.007,0c.061.005.123,0,.186.007.1.005.2.016.3.03.048.007.1.016.147.025l.029.005c.1.027.2.055.293.089s.2.077.29.122l.079.039.075.045a3.6,3.6,0,0,1,.53.4l.023.025c.036.039.073.079.107.12a3.015,3.015,0,0,1,.2.252c.039.055.075.111.113.168l.005.005,0,.014c.048.111.109.216.157.327a.847.847,0,1,0,1.553-.678Z" transform="translate(-258.678 -137.637)"/>
                  </g>
                </g>
              </g>
            </g>
          </g>
          <g id="Grupo_144" data-name="Grupo 144" transform="translate(388.163 90.34)">
            <g id="Grupo_130" data-name="Grupo 130" transform="translate(38.709 62.644)">
              <path id="Caminho_4381" data-name="Caminho 4381" class="cls-11" d="M408.049,177.022c-6.305,1.628-56.093,70.119-57.369,70.233s-53.642-32.5-53.642-32.5L280.5,226.789s68.936,53.429,75.111,52.4c4.5-.755,44.857-38.865,44.857-38.865Z" transform="translate(-280.498 -177.022)"/>
              <path id="Caminho_4382" data-name="Caminho 4382" class="cls-9" d="M368.446,177.022c-5.273,1.972-37.768,38.675-37.768,38.675s4.969,21.408,17.441,39.8L367.351,239Z" transform="translate(-240.896 -177.022)"/>
            </g>
            <path id="Caminho_4383" data-name="Caminho 4383" class="cls-5" d="M347.289,173.989l.068.454c.358,2.423,1.43,3.045,3.235,4.638a21.056,21.056,0,0,1,7.1,14.224c.272,4.194-.712,8.611.921,12.483,1.655,3.927,5.658,6.353,9.671,7.787s8.295,2.156,12.12,4.036c9.986,4.908,14.874,17.466,12.5,28.337s-10.934,19.739-21.071,24.324-21.665,5.307-32.725,4.092c-13.21-1.453-26.441-5.767-36.528-14.417s-16.579-22.086-14.8-35.254c.78-5.785,3.079-11.419,2.709-17.243-.5-7.837-5.666-14.469-10.385-20.748-4.1-5.455-8.361-11.651-8.76-18.694-.369-6.507-.072-13.376,4.394-18.57,3.274-3.809,8.161-5.944,13.106-6.822s10.012-.619,15.029-.356c6.387.336,12.839.682,18.985,2.453q1.044.3,2.065.675a35.542,35.542,0,0,1,20.83,21.712A38.764,38.764,0,0,1,347.289,173.989Z" transform="translate(-249.096 -142.01)"/>
            <g id="Grupo_135" data-name="Grupo 135" transform="translate(0 268.46)">
              <g id="Grupo_132" data-name="Grupo 132" transform="translate(0 2.832)">
                <g id="Grupo_131" data-name="Grupo 131" transform="translate(0 251.224)">
                  <path id="Caminho_4384" data-name="Caminho 4384" class="cls-17" d="M304.99,445.941l-34.5,11.623a18.8,18.8,0,0,0-9.1,6.384,14.071,14.071,0,0,0-2.523,5.144H329.34s2.2-12.553-2.693-23.151Z" transform="translate(-258.863 -424.662)"/>
                  <path id="Caminho_4385" data-name="Caminho 4385" class="cls-23" d="M306.808,455.327l1.3-21.279-24.1.562,1.15,20.717S291.949,458.331,306.808,455.327Z" transform="translate(-239.024 -434.048)"/>
                </g>
                <path id="Caminho_4386" data-name="Caminho 4386" class="cls-17" d="M290.047,293.637C259.8,436.462,287.438,553.2,287.438,553.2s20.975,6.829,29.951-1.467c0,0,6.475-145.368,32.318-256.209Z" transform="translate(-245.422 -293.637)"/>
              </g>
              <g id="Grupo_134" data-name="Grupo 134" transform="translate(80.124)">
                <g id="Grupo_133" data-name="Grupo 133" transform="translate(0 254.056)">
                  <path id="Caminho_4387" data-name="Caminho 4387" class="cls-17" d="M349.772,445.941l-34.5,11.623a18.8,18.8,0,0,0-9.1,6.384,14.072,14.072,0,0,0-2.523,5.144H374.12s2.2-12.553-2.691-23.151Z" transform="translate(-303.645 -424.662)"/>
                  <path id="Caminho_4388" data-name="Caminho 4388" class="cls-23" d="M351.591,455.327l1.3-21.279-24.1.562,1.152,20.717S336.731,458.331,351.591,455.327Z" transform="translate(-283.807 -434.048)"/>
                </g>
                <path id="Caminho_4389" data-name="Caminho 4389" class="cls-17" d="M306.806,292.054c4.72,133.936,36.36,262.4,36.36,262.4s20.975,6.829,29.951-1.467c0,0-11.154-126.992-6.652-259.041Z" transform="translate(-301.15 -292.054)"/>
              </g>
            </g>
            <g id="Grupo_136" data-name="Grupo 136" transform="translate(35.904 92.101)">
              <path id="Caminho_4390" data-name="Caminho 4390" class="cls-18" d="M286.511,376.225c33.6,17.887,104.414-.955,104.414-.955-1.966-13.956-18.171-58.852-26.117-83.4-4.355-13.5-7.7-23.408-7.7-23.408l-.265-2.274-8.055-68.052-12.109-2.471L326,193.486l-21.707,2.526-1.687.789L283.02,205.79c-.234.734-.471,1.446-.7,2.181a75.517,75.517,0,0,0,1.188,48.266,68.933,68.933,0,0,0,10.419,19.327L292.53,294.4Z" transform="translate(-278.93 -193.486)"/>
              <path id="Caminho_4391" data-name="Caminho 4391" class="cls-11" d="M300.344,195.375s9.354,13.38,7.6,14.988-10.15-8.484-10.15-8.484,10.669,13.831,7.769,15.058-12.907-12.4-12.907-12.4,7.765,12.258,6.214,12.948-11.454-10.85-11.454-10.85,4.144,9.311,3.33,9.923S279.356,206.1,280.6,202.212C282.321,196.837,297.989,193.926,300.344,195.375Z" transform="translate(-277.692 -192.287)"/>
              <path id="Caminho_4392" data-name="Caminho 4392" class="cls-16" d="M339.514,258.105s-11.5-4.41-12.356-1.959,10.009,6.847,10.009,6.847-15.054-5.339-15.178-1.836,15.72,8.737,15.72,8.737-13.825-3.416-13.92-1.528,13.809,7.812,13.809,7.812-9.9-.759-10.179.327,13.432,7.894,16.545,5.1C348.266,277.744,344.318,260.911,339.514,258.105Z" transform="translate(-244.949 -144.62)"/>
              <path id="Caminho_4393" data-name="Caminho 4393" class="cls-23" d="M319.145,196.086c8.715,2.161,54.361,66.895,56.682,67.41s85.105,19.341,85.105,19.341l-1.288,17.28s-88.666-9.127-91.3-10.832S325.3,248.1,325.3,248.1C310.151,212.518,319.145,196.086,319.145,196.086Z" transform="translate(-249.283 -191.434)"/>
            </g>
            <g id="Grupo_143" data-name="Grupo 143" transform="translate(29.238 1.702)">
              <g id="Grupo_142" data-name="Grupo 142">
                <g id="Grupo_137" data-name="Grupo 137">
                  <path id="Caminho_4394" data-name="Caminho 4394" class="cls-23" d="M277.416,193.634a1.89,1.89,0,0,0,.064.356c.075.449.172.893.292,1.337,1.134,5.618,3.226,10.852,6.756,14.321a36.745,36.745,0,0,0,7.715,5.9c.784.456,1.537.848,2.245,1.243.683.378,1.36.71,1.995,1.07,5.244,2.9,8.552,5.827,9.912,15.552,0,0,12.193,4.765,21.687-1.907a115.568,115.568,0,0,1,1.453-27.121q.451-2.9,1.1-5.879c.238-1.1.5-2.2.8-3.31q.223-1.02.515-2.047s-.036-1.684-.163-4.339c-.318-7.244-1.084-21.487-2.6-26.695-7.094-24.483-50.225-18.781-51.907,4.031C277.277,166.15,275.126,180.618,277.416,193.634Z" transform="translate(-274.292 -140.395)"/>
                  <path id="Caminho_4395" data-name="Caminho 4395" class="cls-5" d="M277.54,158.622a26.755,26.755,0,0,1,15.323-14.008c5.91-2.068,12.387-1.972,18.561-.934a39.928,39.928,0,0,1,12.752,4.153,22.965,22.965,0,0,1,9.443,9.334,24.656,24.656,0,0,1,2.414,11.653c-.061,4.006.293,8.925-.515,12.848-9.422,1.057-41.536-7.493-50.966-24.151-5.813,7.495-7.058,15.632-7.479,21.859A26.751,26.751,0,0,1,277.54,158.622Z" transform="translate(-275.204 -142.961)"/>
                  <path id="Caminho_4396" data-name="Caminho 4396" class="cls-28" d="M293.008,190.377a.52.52,0,0,1-.023-1.038,26.082,26.082,0,0,0,12.653-4.7.521.521,0,0,1,.6.848,27.167,27.167,0,0,1-13.16,4.893A.532.532,0,0,1,293.008,190.377Z" transform="translate(-261.544 -110.147)"/>
                </g>
                <g id="Grupo_140" data-name="Grupo 140" transform="translate(3.62 35.079)">
                  <path id="Caminho_4397" data-name="Caminho 4397" class="cls-29" d="M286.19,170.512a3.263,3.263,0,0,0-1.966.091,1.654,1.654,0,0,0-.945,1.465c-.048,1.379,1.249,2.16,2.385,2.566a.409.409,0,0,0,.526-.2.4.4,0,0,0-.2-.526c-.8-.284-1.877-.755-1.929-1.737a.867.867,0,0,1,.519-.868,2.651,2.651,0,0,1,1.471-.016A.4.4,0,0,0,286.19,170.512Z" transform="translate(-272.454 -156.381)"/>
                  <path id="Caminho_4398" data-name="Caminho 4398" class="cls-30" d="M277.232,172.588c.082,1.184,1.6,2.045,3.389,1.92s3.176-1.183,3.094-2.367-1.6-2.045-3.389-1.922S277.149,171.4,277.232,172.588Z" transform="translate(-277.228 -156.537)"/>
                  <path id="Caminho_4399" data-name="Caminho 4399" class="cls-30" d="M288.531,171.54c.082,1.184,1.6,2.045,3.389,1.922s3.174-1.184,3.094-2.369-1.6-2.045-3.389-1.922S288.448,170.356,288.531,171.54Z" transform="translate(-268.311 -157.364)"/>
                  <path id="Caminho_4400" data-name="Caminho 4400" class="cls-5" d="M286.719,162.859a12.121,12.121,0,0,1,6.019.19.922.922,0,0,1,.571,1.161.935.935,0,0,1-1.159.571c-.225-.066-.451-.125-.678-.175l-.138-.03c.088.016.077.014-.034-.005s-.245-.043-.369-.063a11.318,11.318,0,0,0-1.3-.115,9.427,9.427,0,0,0-2.544.258.914.914,0,1,1-.365-1.791Z" transform="translate(-270.311 -162.567)"/>
                  <path id="Caminho_4401" data-name="Caminho 4401" class="cls-5" d="M284.979,162.972a12.11,12.11,0,0,0-6.013.315.92.92,0,0,0-.547,1.17.935.935,0,0,0,1.172.547c.224-.07.447-.132.674-.19l.136-.032.034-.007c.123-.023.245-.048.367-.068a10.945,10.945,0,0,1,1.3-.141,9.411,9.411,0,0,1,2.55.2.921.921,0,0,0,1.063-.735A.931.931,0,0,0,284.979,162.972Z" transform="translate(-276.334 -162.437)"/>
                  <path id="Caminho_4402" data-name="Caminho 4402" class="cls-31" d="M285.052,177.14c-.259-.113.007,0,.048.014q.1.038.2.07c.148.048.3.091.447.129s.3.063.454.093h.02c.084.009.168.018.252.023a5.858,5.858,0,0,0,.886-.007l.079-.007c.064-.011.129-.02.193-.032.154-.027.3-.061.454-.1s.3-.089.453-.141l.021-.007,0,0c.066-.03.132-.057.2-.088a6.942,6.942,0,0,0,.825-.467l.029-.018c.054-.043.109-.084.163-.127.134-.109.263-.224.386-.345.1-.1.2-.2.3-.311l.066-.075c.047-.057.088-.116.131-.174a1.071,1.071,0,0,1,1.838,1.1,6.849,6.849,0,0,1-8.545,2.31,1.072,1.072,0,0,1-.369-1.469A1.1,1.1,0,0,1,285.052,177.14Z" transform="translate(-272.33 -152.721)"/>
                  <g id="Grupo_138" data-name="Grupo 138" transform="translate(17.009 4.834)">
                    <path id="Caminho_4403" data-name="Caminho 4403" d="M286.757,167.957c.159,1.362,1.108,2.371,2.122,2.253s1.705-1.317,1.546-2.678-1.107-2.371-2.12-2.253S286.6,166.6,286.757,167.957Z" transform="translate(-286.735 -165.269)"/>
                    <path id="Caminho_4404" data-name="Caminho 4404" class="cls-15" d="M287.665,166.365c.052.46.372.8.714.76a.755.755,0,0,0,.521-.9c-.052-.458-.372-.8-.714-.759A.752.752,0,0,0,287.665,166.365Z" transform="translate(-286.006 -165.118)"/>
                  </g>
                  <g id="Grupo_139" data-name="Grupo 139" transform="translate(4.495 6.29)">
                    <path id="Caminho_4405" data-name="Caminho 4405" d="M279.763,168.771c.159,1.362,1.109,2.369,2.122,2.251s1.705-1.317,1.546-2.678-1.108-2.369-2.12-2.251S279.605,167.409,279.763,168.771Z" transform="translate(-279.741 -166.083)"/>
                    <path id="Caminho_4406" data-name="Caminho 4406" class="cls-15" d="M280.671,167.179c.054.46.374.8.714.759a.753.753,0,0,0,.522-.9c-.054-.46-.374-.8-.716-.759A.753.753,0,0,0,280.671,167.179Z" transform="translate(-279.012 -165.932)"/>
                  </g>
                </g>
                <g id="Grupo_141" data-name="Grupo 141" transform="translate(50.132 34.591)">
                  <path id="Caminho_4407" data-name="Caminho 4407" class="cls-23" d="M317.715,174.65c-2.163,4.936-6.924,7.62-10.633,5.994s-4.961-6.944-2.8-11.88,6.924-7.62,10.632-6S319.878,169.714,317.715,174.65Z" transform="translate(-303.224 -162.294)"/>
                  <path id="Caminho_4408" data-name="Caminho 4408" class="cls-29" d="M313.926,164.464a6.548,6.548,0,0,0-6.1,1.875,12.478,12.478,0,0,0-3.11,6.826c-.181,1,1.362,1.367,1.544.36a11.364,11.364,0,0,1,2.444-5.813,5.026,5.026,0,0,1,4.865-1.705A.792.792,0,0,0,313.926,164.464Z" transform="translate(-302.06 -160.714)"/>
                  <path id="Caminho_4409" data-name="Caminho 4409" class="cls-29" d="M311.485,168.5a4.1,4.1,0,0,0-5.681-1.428.792.792,0,1,0,.819,1.356c.079-.048.161-.091.243-.136l.034-.018c.043-.018.086-.036.131-.05a3.947,3.947,0,0,1,.535-.147h.007c.057,0,.115-.013.172-.016.093-.007.186-.009.279-.009l.138.005.027,0c.1.013.19.027.285.048a2.633,2.633,0,0,1,.283.075l.079.027.075.032a3.164,3.164,0,0,1,.54.308l.025.02c.038.032.077.064.115.1.075.066.147.136.216.209.043.047.084.095.125.141l.005.005.005.013c.059.1.127.186.186.284a.793.793,0,0,0,1.356-.821Z" transform="translate(-301.49 -158.996)"/>
                </g>
              </g>
            </g>
          </g>
          <g id="Grupo_156" data-name="Grupo 156" transform="translate(489.206 32.447)">
            <g id="Grupo_148" data-name="Grupo 148" transform="translate(0 305.206)">
              <g id="Grupo_145" data-name="Grupo 145" transform="translate(89.288 294.532)">
                <path id="Caminho_4410" data-name="Caminho 4410" class="cls-7" d="M415.255,444.851l-37.409,12.6a20.385,20.385,0,0,0-9.869,6.922,15.269,15.269,0,0,0-2.736,5.577h76.413s2.389-13.61-2.918-25.1Z" transform="translate(-365.241 -444.851)"/>
              </g>
              <g id="Grupo_146" data-name="Grupo 146" transform="translate(0 294.532)">
                <path id="Caminho_4411" data-name="Caminho 4411" class="cls-7" d="M365.351,444.851l-37.407,12.6a20.377,20.377,0,0,0-9.869,6.922,15.242,15.242,0,0,0-2.737,5.577h76.415s2.387-13.61-2.92-25.1Z" transform="translate(-315.337 -444.851)"/>
              </g>
              <path id="Caminho_4412" data-name="Caminho 4412" class="cls-11" d="M423.287,280.235s-2.541,132.509,13,294.532c0,0-5.278,4.208-24.383.3,0,0-45.82-186.108-43.481-294.534Z" transform="translate(-273.507 -280.235)"/>
              <path id="Caminho_4413" data-name="Caminho 4413" class="cls-11" d="M345.232,280.235s-10.488,168.822-1.32,294.532c0,0,9.633,3.285,25.335,0,0,0,12.532-188.9,37.07-294.532Z" transform="translate(-295.752 -280.235)"/>
              <g id="Grupo_147" data-name="Grupo 147" transform="translate(39.826 1.957)">
                <path id="Caminho_4414" data-name="Caminho 4414" class="cls-7" d="M337.6,419.205c23.9,4.829,52.787.344,52.787.344.848-21.313,5.334-63.776,5.334-63.776l2.464,63.776c12.626,3.051,31.374,1.313,44.667-.607,2.161-.322,4.181-.646,6-.948,6.04-1.011,9.959-1.879,9.959-1.879l-9.494-134.786h-103.8Z" transform="translate(-337.596 -281.329)"/>
                <path id="Caminho_4415" data-name="Caminho 4415" class="cls-32" d="M390.381,281.329q1.181,14.879,2.344,29.8Q396.936,365,401.19,418.942c2.161-.322,4.181-.646,6-.948q-.878-10.91-1.718-21.818-4.544-57.425-9.03-114.847Z" transform="translate(-295.938 -281.329)"/>
              </g>
            </g>
            <g id="Grupo_149" data-name="Grupo 149" transform="translate(44.889 112.786)">
              <path id="Caminho_4416" data-name="Caminho 4416" class="cls-18" d="M340.426,373.591a42.159,42.159,0,0,0,5.851,3.362c24.483,11.741,64.529,5.369,87.487.127,10.7-2.424,17.674-4.618,17.674-4.618.041-1.44.063-3.07.021-4.867-.021-2.3-.106-4.888-.231-7.71-.125-2.526-.272-5.264-.46-8.168-.166-2.591-.354-5.326-.585-8.168-.188-2.485-.4-5.055-.6-7.708-.25-2.695-.481-5.453-.751-8.295-.231-2.526-.46-5.1-.71-7.708-.043-.335-.063-.689-.106-1.023-.229-2.381-.46-4.8-.71-7.248-.25-2.55-.522-5.119-.773-7.729-.292-2.737-.585-5.495-.9-8.273-.272-2.548-.564-5.119-.836-7.688-.313-2.757-.626-5.514-.92-8.252-.313-2.589-.6-5.158-.877-7.729-.335-2.777-.648-5.514-.982-8.25-.272-2.319-.542-4.618-.814-6.915-.041-.272-.063-.544-.106-.814-.125-1.086-.25-2.131-.354-3.176-.209-1.734-.4-3.383-.626-5.076,0-.063-.021-.147-.021-.209-.021-.166-.041-.335-.063-.5-.166-1.358-.335-2.716-.479-4.074-.125-.982-.252-1.963-.356-2.945-.125-.941-.25-1.859-.354-2.779-.188-1.421-.356-2.8-.544-4.2-.041-.417-.084-.836-.147-1.252-.166-1.483-.335-2.947-.523-4.409-.145-1.108-.292-2.215-.417-3.321l-.125-1c-.313-2.485-.607-4.91-.92-7.248-.335-2.695-.648-5.285-.982-7.729-.376-2.947-.73-5.724-1.065-8.273-.376-2.841-.71-5.43-1-7.708-.458-3.51-.836-6.309-1.106-8.273-.272-2.151-.44-3.3-.44-3.3l-5.514-1.8h-.021l-15.478-5.1-2.632-.857H384.548l-3.407,1.127-17.192,5.6-3.2,1.025c-.188,1.211-.356,2.507-.544,3.865-.376,2.548-.73,5.346-1.127,8.313-.313,2.446-.648,5.015-.982,7.71-.335,2.653-.667,5.43-1,8.314-.313,2.507-.607,5.076-.9,7.708a.259.259,0,0,0-.021.125c-.147,1.3-.313,2.612-.46,3.906-.147,1.338-.272,2.7-.438,4.053,0,.084-.021.147-.021.231-.208,1.734-.4,3.509-.6,5.307-.084.793-.168,1.608-.25,2.423-.063.542-.125,1.108-.188,1.671-.19,1.838-.4,3.655-.585,5.536-.043.354-.084.71-.125,1.086-.127,1-.231,2.027-.335,3.051-.147,1.524-.335,3.092-.5,4.657-.021.168-.043.315-.064.481-.02.125-.02.272-.041.419-.147,1.356-.272,2.757-.417,4.135-.106,1.086-.231,2.174-.356,3.26-.25,2.569-.522,5.139-.773,7.729-.292,2.779-.585,5.536-.877,8.314-.25,2.569-.5,5.139-.773,7.708-.272,2.779-.544,5.557-.836,8.314-.25,2.569-.5,5.139-.753,7.686-.27,2.8-.564,5.579-.814,8.314-.272,2.612-.522,5.182-.773,7.688-.272,2.841-.522,5.6-.794,8.314-.25,2.632-.5,5.2-.73,7.708-.293,2.841-.544,5.62-.794,8.293s-.5,5.266-.732,7.71c-.27,2.966-.542,5.745-.773,8.314-.27,2.861-.521,5.493-.751,7.833-.292,3.154-.523,5.786-.732,7.855C340.594,371.773,340.426,373.591,340.426,373.591Z" transform="translate(-340.426 -172.69)"/>
            </g>
            <g id="Grupo_154" data-name="Grupo 154" transform="translate(59.023)">
              <g id="Grupo_153" data-name="Grupo 153">
                <g id="Grupo_150" data-name="Grupo 150">
                  <path id="Caminho_4417" data-name="Caminho 4417" d="M348.661,141.417a9.01,9.01,0,0,1-.027-4.72,3.486,3.486,0,0,1,3.616-2.483c-1.311-10.136,5.518-20.717,15.292-23.7s21.347,1.993,25.909,11.138a26.913,26.913,0,0,1,28.16,32.866,4.686,4.686,0,0,1,3.378,3.122,9.831,9.831,0,0,1,.259,4.763c-1.424,9.685-9.459,17.677-18.853,20.438s-19.764.773-28.328-3.968A58.947,58.947,0,0,1,362.8,166.319c-2.016-2.263-3.713-4.863-5.967-6.894a19.269,19.269,0,0,1-4.553-6.828A51.915,51.915,0,0,1,348.661,141.417Z" transform="translate(-348.325 -109.653)"/>
                  <path id="Caminho_4418" data-name="Caminho 4418" class="cls-11" d="M351.234,168.256c0,.492.023.961.07,1.453.023.116.023.258.047.374.422,6.112,1.9,11.966,5.153,16.158a38.51,38.51,0,0,0,5.525,5.831c.61.562,1.218,1.054,1.8,1.5.773.585,1.523,1.124,2.226,1.639,6.3,4.473,10.232,6.838,10.258,19.25,0,0,11.147,9.6,23.464-1.124,0,0,.188-9.812,5.176-26.323.585-2.015,1.265-4.028,1.966-6.089.422-1.124.843-2.247,1.335-3.4.258-.7.515-1.381.844-2.084,0,0,.186-1.8.42-4.636.68-7.7,1.9-22.927,1.031-28.665-4.074-26.954-50.606-27-55.594-3.067C354.957,139.078,350.624,154.113,351.234,168.256Z" transform="translate(-346.076 -100.295)"/>
                  <path id="Caminho_4419" data-name="Caminho 4419" d="M391.1,143.819a11.329,11.329,0,0,0,11.018,10.4,17.329,17.329,0,0,0,5.513,17.366,28.874,28.874,0,0,0,4.092-14.453,53.865,53.865,0,0,0-1.961-15.02c-1.346-5.26-3.228-10.556-6.846-14.605a26.879,26.879,0,0,0-13.975-7.778,62.951,62.951,0,0,0-16.155-1.2,45.209,45.209,0,0,0-10.138,1.115c-2.483.639-7.649,2.036-7.393,5.375.227,3,4.094,5.72,6.212,7.457a50.59,50.59,0,0,0,18.1,9.488A48.49,48.49,0,0,0,391.1,143.819Z" transform="translate(-342.865 -102.689)"/>
                  <path id="Caminho_4420" data-name="Caminho 4420" class="cls-11" d="M366.058,167.782a.556.556,0,0,1,.122-1.1,27.917,27.917,0,0,0,14.079-3.2.557.557,0,0,1,.521.986,29.051,29.051,0,0,1-14.641,3.326A.55.55,0,0,1,366.058,167.782Z" transform="translate(-334.69 -67.223)"/>
                </g>
                <g id="Grupo_151" data-name="Grupo 151" transform="translate(5.967 50.602)">
                  <path id="Caminho_4421" data-name="Caminho 4421" class="cls-19" d="M361.422,146.489a3.475,3.475,0,0,0-2.1-.181,1.768,1.768,0,0,0-1.211,1.419c-.243,1.456,1.02,2.467,2.167,3.056a.435.435,0,0,0,.585-.132.426.426,0,0,0-.132-.583c-.807-.415-1.882-1.066-1.8-2.115a.926.926,0,0,1,.673-.846,2.813,2.813,0,0,1,1.562.191A.424.424,0,0,0,361.422,146.489Z" transform="translate(-346.591 -131.406)"/>
                  <path id="Caminho_4422" data-name="Caminho 4422" class="cls-20" d="M351.663,147.337c-.081,1.267,1.406,2.394,3.321,2.516s3.532-.807,3.612-2.074-1.406-2.394-3.321-2.516S351.744,146.071,351.663,147.337Z" transform="translate(-351.66 -132.159)"/>
                  <path id="Caminho_4423" data-name="Caminho 4423" class="cls-20" d="M363.788,147.824c-.081,1.267,1.406,2.392,3.321,2.514s3.532-.807,3.612-2.074-1.406-2.394-3.321-2.516S363.869,146.556,363.788,147.824Z" transform="translate(-342.091 -131.776)"/>
                  <path id="Caminho_4424" data-name="Caminho 4424" d="M362.992,138.168a12.975,12.975,0,0,1,6.429.4.985.985,0,0,1,.573,1.258,1,1,0,0,1-1.258.574q-.357-.115-.719-.209c-.048-.013-.1-.025-.147-.036.095.02.082.018-.036-.009s-.261-.054-.392-.077a12.082,12.082,0,0,0-1.388-.165,10.068,10.068,0,0,0-2.729.2.978.978,0,0,1-.333-1.927Z" transform="translate(-343.353 -137.935)"/>
                  <path id="Caminho_4425" data-name="Caminho 4425" d="M360.875,138.5a12.958,12.958,0,0,0-6.441-.021.983.983,0,0,0-.653,1.217,1,1,0,0,0,1.218.655c.242-.061.485-.116.732-.161l.147-.027c-.095.014-.082.011.038-.007s.263-.036.4-.05a12.151,12.151,0,0,1,1.4-.075,10.059,10.059,0,0,1,2.709.37.977.977,0,0,0,.458-1.9Z" transform="translate(-350.022 -137.822)"/>
                  <path id="Caminho_4426" data-name="Caminho 4426" d="M367.2,145.717c.021,0,.043,0,.064,0a.507.507,0,0,0,.437-.567c-.021-.159-.537-3.89-2.856-3.89s-2.907,3.72-2.931,3.879a.505.505,0,0,0,1,.154c0-.03.51-3.024,1.932-3.024,1.192,0,1.75,2.229,1.854,3.011A.507.507,0,0,0,367.2,145.717Z" transform="translate(-343.575 -135.313)"/>
                  <path id="Caminho_4427" data-name="Caminho 4427" d="M359.81,145.717c.021,0,.045,0,.066,0a.507.507,0,0,0,.435-.567c-.022-.159-.537-3.89-2.854-3.89s-2.907,3.72-2.932,3.879a.505.505,0,1,0,1,.154c.005-.03.512-3.024,1.934-3.024,1.192,0,1.75,2.229,1.852,3.011A.507.507,0,0,0,359.81,145.717Z" transform="translate(-349.404 -135.313)"/>
                  <path id="Caminho_4428" data-name="Caminho 4428" class="cls-33" d="M357.46,153.069a1.018,1.018,0,0,1,1.367-.415,5.187,5.187,0,0,0,3.387.8,5.771,5.771,0,0,0,1.48-.406,6.389,6.389,0,0,0,1.224-.768,1.042,1.042,0,0,1,1.428-.05,1.018,1.018,0,0,1,.05,1.428,7.388,7.388,0,0,1-3.976,1.8,7.082,7.082,0,0,1-4.545-1.025A1.035,1.035,0,0,1,357.46,153.069Z" transform="translate(-347.175 -126.857)"/>
                </g>
                <g id="Grupo_152" data-name="Grupo 152" transform="translate(55.9 56.087)">
                  <path id="Caminho_4429" data-name="Caminho 4429" class="cls-11" d="M394.887,154.875c-2.99,4.927-8.415,7.1-12.117,4.852s-4.278-8.062-1.288-12.988,8.416-7.1,12.118-4.852S397.878,149.949,394.887,154.875Z" transform="translate(-379.568 -141)"/>
                  <path id="Caminho_4430" data-name="Caminho 4430" class="cls-19" d="M392.123,143.639a7,7,0,0,0-6.733,1.125,13.345,13.345,0,0,0-4.26,6.8c-.333,1.032,1.249,1.641,1.585.6a12.179,12.179,0,0,1,3.414-5.817,5.367,5.367,0,0,1,5.4-1.118A.848.848,0,0,0,392.123,143.639Z" transform="translate(-378.372 -139.256)"/>
                  <path id="Caminho_4431" data-name="Caminho 4431" class="cls-19" d="M388.483,147.9a4.378,4.378,0,0,0-5.82-2.315.847.847,0,0,0,.678,1.553c.091-.039.184-.075.277-.109l.039-.014c.048-.014.1-.025.145-.036a4.085,4.085,0,0,1,.587-.079h.007c.063.005.125,0,.186.007.1.005.2.016.3.03.05.007.1.016.147.025l.029.005c.1.027.2.055.3.091a2.712,2.712,0,0,1,.288.12l.079.039.077.045a3.491,3.491,0,0,1,.528.4l.023.025c.038.039.073.079.109.12.07.081.136.166.2.252.039.055.075.111.113.168l0,.005.005.014c.048.111.109.217.156.327a.847.847,0,1,0,1.553-.678Z" transform="translate(-377.529 -137.679)"/>
                </g>
              </g>
            </g>
            <g id="Grupo_155" data-name="Grupo 155" transform="translate(122.698 120.409)">
              <path id="Caminho_4432" data-name="Caminho 4432" class="cls-11" d="M397.249,177.022c11.766,4.035,46.324,102.035,44.261,112.695s-36.278,105.908-36.278,105.908-12.034-2.924-21.318-8.08c0,0,26.346-101.711,26.559-103.087s-13.492-42.71-13.492-42.71Z" transform="translate(-383.914 -176.894)"/>
              <path id="Caminho_4433" data-name="Caminho 4433" class="cls-9" d="M394.6,177.078c6.021-3.364,32.4,60.772,32.4,60.772S413.93,256.922,398.113,263.2l-10.488-28.1S384.9,182.5,394.6,177.078Z" transform="translate(-381.264 -176.951)"/>
            </g>
          </g>
        </g>
        <g id="Grupo_158" data-name="Grupo 158" transform="translate(26.676 104.791)">
          <path id="Caminho_4434" data-name="Caminho 4434" class="cls-15" d="M384.359,119.3a26.538,26.538,0,0,1-8.969,15.652.337.337,0,0,0,0,.528c5.715,4.75,8.161,12.914,8.973,16.357a.345.345,0,0,0,.671,0c.812-3.442,3.26-11.607,8.973-16.357a.338.338,0,0,0,0-.528,26.537,26.537,0,0,1-8.971-15.652A.344.344,0,0,0,384.359,119.3Z" transform="translate(226.54 -43.606)"/>
          <path id="Caminho_4435" data-name="Caminho 4435" class="cls-15" d="M48.01,262.276a26.553,26.553,0,0,1-8.971,15.652.335.335,0,0,0,0,.526c5.715,4.75,8.161,12.914,8.975,16.357a.344.344,0,0,0,.669,0c.814-3.442,3.26-11.607,8.973-16.357a.336.336,0,0,0,0-.526,26.544,26.544,0,0,1-8.971-15.652A.343.343,0,0,0,48.01,262.276Z" transform="translate(-38.91 69.233)"/>
          <path id="Caminho_4436" data-name="Caminho 4436" class="cls-15" d="M66.693,96.372a26.544,26.544,0,0,1-8.971,15.652.336.336,0,0,0,0,.526c5.713,4.75,8.161,12.914,8.973,16.357a.345.345,0,0,0,.671,0c.812-3.442,3.258-11.607,8.973-16.357a.335.335,0,0,0,0-.526,26.553,26.553,0,0,1-8.971-15.652A.343.343,0,0,0,66.693,96.372Z" transform="translate(-24.164 -61.699)"/>
          <path id="Caminho_4438" data-name="Caminho 4438" class="cls-15" d="M448.835,90.8a15.672,15.672,0,0,1-5.3,9.241.2.2,0,0,0,0,.311c3.373,2.8,4.816,7.624,5.3,9.655a.2.2,0,0,0,.4,0c.48-2.031,1.923-6.851,5.3-9.655a.2.2,0,0,0,0-.311,15.681,15.681,0,0,1-5.3-9.241A.2.2,0,0,0,448.835,90.8Z" transform="translate(280.366 -66.006)"/>
          <path id="Caminho_4439" data-name="Caminho 4439" class="cls-15" d="M73.457,294.014a15.681,15.681,0,0,1-5.3,9.241.2.2,0,0,0,0,.311c3.373,2.8,4.817,7.624,5.3,9.655a.2.2,0,0,0,.4,0c.481-2.031,1.925-6.851,5.3-9.655a.2.2,0,0,0,0-.311,15.671,15.671,0,0,1-5.3-9.241A.2.2,0,0,0,73.457,294.014Z" transform="translate(-15.885 94.371)"/>
          <path id="Caminho_4440" data-name="Caminho 4440" class="cls-15" d="M68.239,211.682a15.664,15.664,0,0,1-5.3,9.239.2.2,0,0,0,0,.311c3.373,2.806,4.818,7.624,5.3,9.656a.2.2,0,0,0,.4,0c.48-2.033,1.923-6.851,5.3-9.656a.2.2,0,0,0,0-.311,15.665,15.665,0,0,1-5.294-9.239A.2.2,0,0,0,68.239,211.682Z" transform="translate(-20.002 29.394)"/>
          <path id="Caminho_4441" data-name="Caminho 4441" class="cls-15" d="M438.622,202.371a15.664,15.664,0,0,1-5.3,9.239.2.2,0,0,0,0,.311c3.373,2.8,4.818,7.624,5.3,9.656a.2.2,0,0,0,.4,0c.48-2.033,1.923-6.853,5.3-9.656a.2.2,0,0,0,0-.311,15.674,15.674,0,0,1-5.3-9.239A.2.2,0,0,0,438.622,202.371Z" transform="translate(272.306 22.046)"/>
          <path id="Caminho_4443" data-name="Caminho 4443" class="cls-15" d="M397.273,256.7a15.681,15.681,0,0,1-5.3,9.241.2.2,0,0,0,0,.311c3.374,2.8,4.818,7.624,5.3,9.656a.2.2,0,0,0,.4,0c.481-2.033,1.925-6.853,5.3-9.656a.2.2,0,0,0,0-.311,15.671,15.671,0,0,1-5.3-9.241A.2.2,0,0,0,397.273,256.7Z" transform="translate(239.671 64.926)"/>
        </g>
        <g id="Grupo_162" data-name="Grupo 162" transform="translate(22.796 0)">
          <path id="Caminho_4446" data-name="Caminho 4446" class="cls-18" d="M465.289,120.447c0-1.054,0-2.108-.014-3.163a9.18,9.18,0,0,1-.03-1.31,6.959,6.959,0,0,1-7.153,5.919c-.025,0-.045,4.14-.045,4.473s-.041,4.469.045,4.473a6.959,6.959,0,0,0,7.153-5.919,10.042,10.042,0,0,0,.03-1.31C465.287,122.556,465.289,121.5,465.289,120.447Z" transform="translate(295.747 58.781)"/>
          <path id="Caminho_4447" data-name="Caminho 4447" class="cls-18" d="M107.622,137.391a14.1,14.1,0,0,1-11.848-4.609,13.312,13.312,0,0,1-2.618-4.593c.079-.234.14-.472.231-.7a5.334,5.334,0,0,0,.03-1.31c.013-1.054.014-2.109.014-3.163s0-2.109-.014-3.163a4.759,4.759,0,0,1-.03-1.31,14.008,14.008,0,0,0-.941,4.011c-.261,3.142-.118,6.375-.066,9.519a15.265,15.265,0,0,0,1.943,7.661,13.99,13.99,0,0,0,13.3,6.606C107.98,146.3,107.395,137.413,107.622,137.391Z" transform="translate(7.101 60.806)"/>
          <path id="Caminho_4448" data-name="Caminho 4448" class="cls-18" d="M81.573,257.336c.013-1.056.014-2.109.014-3.163s0-2.109-.014-3.163a4.446,4.446,0,0,1-.03-1.31,18.266,18.266,0,0,1-15.108,9.477c-.2.009.061,8.944,0,8.946a18.266,18.266,0,0,0,15.108-9.477A5.107,5.107,0,0,0,81.573,257.336Z" transform="translate(-13.366 164.318)"/>
          <path id="Caminho_4449" data-name="Caminho 4449" class="cls-18" d="M337.851,140.416c0-.327-.059-4.473-.045-4.473a7.582,7.582,0,0,1-5.437-1.7,7.311,7.311,0,0,1-2.423-4.083c0-.626,0-1.254-.009-1.882a6.85,6.85,0,0,1-.03-1.31,9.425,9.425,0,0,0-.179,1.628c-.018-.191-.023.1-.018.909,0,.107-.005.215-.007.322q-.035,3.234,0,6.468l0,.041c-.009,1.084,0,1.394.032.948.007.3,0,.592.029.887a7.618,7.618,0,0,0,1.322,3.629,7.509,7.509,0,0,0,6.718,3.088C337.914,144.88,337.853,140.756,337.851,140.416Z" transform="translate(194.453 67.458)"/>
          <path id="Caminho_4450" data-name="Caminho 4450" class="cls-18" d="M448.169,264.931c.011-1.054.013-2.109.013-3.163s0-2.108-.013-3.163a4.7,4.7,0,0,1-.032-1.31,10.748,10.748,0,0,1-19.633.571,6.414,6.414,0,0,1-.032,1.31q-.016,1.581-.013,3.163c0,1.054,0,2.108.013,3.163a3.993,3.993,0,0,0,.032,1.31,10.748,10.748,0,0,0,19.633-.571A5.175,5.175,0,0,0,448.169,264.931Z" transform="translate(272.381 170.312)"/>
          <path id="Caminho_4451" data-name="Caminho 4451" class="cls-18" d="M164.045,20.238a4.345,4.345,0,0,0-.728-1.936,7.209,7.209,0,0,1-.032,1.31c-.011,1.054-.013,2.108-.013,3.163,0,.313,0,.626,0,.941a7.414,7.414,0,0,1-2.492,2.641,19.418,19.418,0,0,1-6.835,2.267c-.043.009-.034,1.5-.032,1.31q-.016,1.583-.012,3.163c0,1.054,0,2.109.012,3.163,0,.131.041,1.308.032,1.31,3.108-.615,6.74-1.335,8.772-4.019a7.075,7.075,0,0,0,1.378-4.285c.039-2.084.03-4.172.016-6.259A25.111,25.111,0,0,0,164.045,20.238Z" transform="translate(55.724 -18.302)"/>
          <path id="Caminho_4452" data-name="Caminho 4452" class="cls-18" d="M343.725,37.42a6.26,6.26,0,0,1-3.58-1.659,6.015,6.015,0,0,1,.882-.734,7.463,7.463,0,0,0,.032-1.31c.011-1.054.013-2.109.013-3.163s0-2.108-.013-3.163a7.51,7.51,0,0,1-.032-1.31,6.3,6.3,0,0,0-2.593,3.43,8.412,8.412,0,0,0-.313,2.371c-.018.916-.005,1.834-.007,2.752q-.145,8.086.025,5.611c.007.179.007.361.021.539a6.286,6.286,0,0,0,5.564,5.582c-.014,0,.045-4.138.045-4.473S343.862,37.435,343.725,37.42Z" transform="translate(201.05 -12.162)"/>
          <path id="Caminho_4453" data-name="Caminho 4453" class="cls-18" d="M42.9,154.037a10.974,10.974,0,0,0-6.1-9.506c.021.011-.034,1.5-.03,1.311-.013,1.054-.014,2.108-.014,3.162s0,2.109.014,3.163a5.463,5.463,0,0,0,.03,1.31,11.039,11.039,0,0,1,5.08,5.149,10.949,10.949,0,0,1-2.746,3.691,6.377,6.377,0,0,0-.03,1.31c-.013,1.056-.014,2.109-.014,3.163s0,2.109.014,3.163a5.742,5.742,0,0,1,.03,1.31,10.956,10.956,0,0,0,3.331-5.21,12.124,12.124,0,0,0,.444-3.07C42.985,160.009,43,157.011,42.9,154.037Z" transform="translate(-36.741 81.319)"/>
          <path id="Caminho_4455" data-name="Caminho 4455" class="cls-10" d="M459.787,194.275c0-.333-.106-4.464-.045-4.473-3.9.542-8.712,1.224-11.081,4.786a8.461,8.461,0,0,0-1.292,4.108c-.013-.07-.021.066-.021.437-.072,1.311-.005,2.652-.005,3.961,0,1.057-.007,2.12.007,3.183-.013,1.032,0,1.408.03,1.138.007.156,0,.313.013.469a5.784,5.784,0,0,0,.2,1.236,4.651,4.651,0,0,0,1.288,2.111,10.4,10.4,0,0,1,.032-1.311c.011-1.054.013-2.108.013-3.162s0-2.109-.013-3.163c0-.07.009-.215.02-.378a8.415,8.415,0,0,1,2.415-2.143c2.532-1.5,5.527-1.927,8.393-2.326C459.884,198.728,459.787,194.624,459.787,194.275Z" transform="translate(287.286 117.047)"/>
          <g id="Grupo_161" data-name="Grupo 161" transform="translate(275.997 167.428)">
            <path id="Caminho_4456" data-name="Caminho 4456" class="cls-10" d="M196.444,117.993c-.005-2.025.222-4.214-.646-6.114a6.324,6.324,0,0,1-.03,1.31c-.013,1.054-.014,2.109-.014,3.163,0,.437.005.873.005,1.31a7.293,7.293,0,0,1-4.716,4.323,12.437,12.437,0,0,0-.03,1.31C191,124.35,191,125.4,191,126.457s0,2.109.014,3.163c0,.132.054,1.3.03,1.31a7.4,7.4,0,0,0,4.892-4.718,7.886,7.886,0,0,0,.406-1.671c.036-.277.052-.556.064-.836l0-.161,0,.129,0-.05C196.478,121.748,196.45,119.868,196.444,117.993Z" transform="translate(-190.998 -111.879)"/>
            <path id="Caminho_4457" data-name="Caminho 4457" class="cls-10" d="M194.022,118.471l0,.032C194.031,119.171,194.038,118.952,194.022,118.471Z" transform="translate(-188.613 -106.677)"/>
          </g>
          <path id="Caminho_4459" data-name="Caminho 4459" class="cls-10" d="M91.506,173.477q.016-1.581.014-3.163c0-1.054,0-2.108-.014-3.163a4.51,4.51,0,0,1-.032-1.31,15.318,15.318,0,0,1-17.361,7.325c.129.038-.045,4.11-.045,4.473,0,1.056,0,2.109.013,3.163a7.3,7.3,0,0,0,.032,1.31,15.318,15.318,0,0,0,17.361-7.325A5.033,5.033,0,0,0,91.506,173.477Z" transform="translate(-7.283 98.136)"/>
          <path id="Caminho_4460" data-name="Caminho 4460" class="cls-10" d="M67.251,334.545c0-1.054,0-2.108-.014-3.163a8.988,8.988,0,0,1-.03-1.31,7.531,7.531,0,0,1-6.858.011,6.765,6.765,0,0,1-2.3-1.9c.132-.174.249-.354.4-.517a5.785,5.785,0,0,0,.03-1.31c.013-1.056.014-2.109.014-3.163s0-2.109-.014-3.163a5.019,5.019,0,0,1-.03-1.31,7.259,7.259,0,0,0-1.836,3.909,11.048,11.048,0,0,0-.093,1.263v.016a12.367,12.367,0,0,0-.011,1.725c-.009,1.088-.021,2.174-.02,3.262a28.865,28.865,0,0,0,.177,5.23,7.062,7.062,0,0,0,5.811,5.6,7.309,7.309,0,0,0,4.731-.714,8.426,8.426,0,0,0,.03-1.31C67.25,336.654,67.251,335.6,67.251,334.545Z" transform="translate(-21.181 218.792)"/>
          <path id="Caminho_4461" data-name="Caminho 4461" class="cls-10" d="M414.319,322.185c.013-1.054.014-2.109.014-3.163s0-2.108-.014-3.163a4.763,4.763,0,0,1-.03-1.31,14.933,14.933,0,0,1-14.65,9.143c.15.011-.284,8.925,0,8.946a14.933,14.933,0,0,0,14.65-9.143A5.331,5.331,0,0,0,414.319,322.185Z" transform="translate(249.581 215.498)"/>
        </g>
        <g id="Grupo_163" data-name="Grupo 163" transform="translate(62.924 86.227)">
          <path id="Caminho_4462" data-name="Caminho 4462" class="cls-5" d="M406.244,159.552l6.183,13.383,9.234,19.984a26.668,26.668,0,0,0-11.3,2.641,11.909,11.909,0,0,0-5.461,5.294c-1.052,2.358-.746,5.448,1.227,7.114,1.846,1.557,4.536,1.517,6.922,1.149a35.035,35.035,0,0,0,9.105-2.711,15.006,15.006,0,0,0,4.468-2.859,7.05,7.05,0,0,0,2.215-4.707,6.153,6.153,0,0,0-.417-2.437l.045-.02-11.952-25.867,28.8-17.071,10.868,23.521a26.686,26.686,0,0,0-11.3,2.641,11.918,11.918,0,0,0-5.461,5.294c-1.052,2.358-.746,5.45,1.227,7.114,1.845,1.557,4.537,1.519,6.922,1.149a35.067,35.067,0,0,0,9.107-2.711,15.019,15.019,0,0,0,4.466-2.859,7.05,7.05,0,0,0,2.215-4.707,6.144,6.144,0,0,0-.417-2.435l.045-.021L449.4,151.025l-4.346-9.406-1.714-3.709Z" transform="translate(213.212 -10.134)"/>
          <path id="Caminho_4464" data-name="Caminho 4464" class="cls-5" d="M62.366,233.321l4.761,11.539,7.109,17.23a22.573,22.573,0,0,0-9.653,1.836,10.087,10.087,0,0,0-4.806,4.287,5.237,5.237,0,0,0,.787,6.062c1.507,1.381,3.784,1.444,5.815,1.215a29.729,29.729,0,0,0,7.8-1.974,12.713,12.713,0,0,0,3.879-2.262,5.974,5.974,0,0,0,2.04-3.9,5.233,5.233,0,0,0-.267-2.076l.038-.016-9.2-22.3,24.968-13.426L104,249.808a22.576,22.576,0,0,0-9.653,1.838,10.085,10.085,0,0,0-4.806,4.287,5.238,5.238,0,0,0,.789,6.06c1.507,1.383,3.784,1.444,5.815,1.215a29.66,29.66,0,0,0,7.8-1.973,12.712,12.712,0,0,0,3.879-2.262,5.969,5.969,0,0,0,2.04-3.9,5.2,5.2,0,0,0-.268-2.076l.039-.016-10.46-25.351-3.346-8.11-1.32-3.2Z" transform="translate(-59.17 51.744)"/>
          <path id="Caminho_4465" data-name="Caminho 4465" class="cls-5" d="M441.781,283.539l-3.015,12.115-4.5,18.085a22.61,22.61,0,0,0-8.86-4.248,10.079,10.079,0,0,0-6.412.6,5.234,5.234,0,0,0-2.961,5.346c.392,2.006,2.19,3.407,3.959,4.428a29.739,29.739,0,0,0,7.448,3.038,12.679,12.679,0,0,0,4.464.48,5.964,5.964,0,0,0,3.96-1.932,5.23,5.23,0,0,0,1.016-1.829l.039.009,5.824-23.412,28.065,4-5.3,21.29a22.593,22.593,0,0,0-8.86-4.249,10.1,10.1,0,0,0-6.411.6,5.234,5.234,0,0,0-2.961,5.346c.392,2.008,2.188,3.407,3.959,4.428a29.674,29.674,0,0,0,7.448,3.038,12.679,12.679,0,0,0,4.464.48,5.966,5.966,0,0,0,3.959-1.931,5.2,5.2,0,0,0,1.014-1.83l.041.011,6.62-26.614,2.118-8.515.836-3.357Z" transform="translate(222.412 104.797)"/>
        </g>
      </g>
    </g>
  </g>
</svg>
