<svg xmlns="http://www.w3.org/2000/svg" width="275" height="275" viewBox="0 0 275 275">
  <defs>
    <style>
      .cls-1 {
        fill: #fff;
        stroke: #05311a;
        stroke-width: 4px;
        opacity: 0.45;
      }

      .cls-2 {
        fill: #ff0729;
      }

      .cls-3 {
        fill: #ffebee;
      }

      .cls-4 {
        stroke: none;
      }

      .cls-5 {
        fill: none;
      }
    </style>
  </defs>
  <g id="Grupo_68" data-name="Grupo 68" transform="translate(-556 -308)">
    <g id="Elipse_3" data-name="Elipse 3" class="cls-1" transform="translate(556 308)">
      <circle class="cls-4" cx="137.5" cy="137.5" r="137.5"/>
      <circle class="cls-5" cx="137.5" cy="137.5" r="135.5"/>
    </g>
    <circle id="Elipse_4" data-name="Elipse 4" class="cls-2" cx="118.5" cy="118.5" r="118.5" transform="translate(575 327)"/>
    <path id="rgba_0_0_0_1_" data-name="rgba(0,0,0,1)" class="cls-3" d="M78.735,73l12.666.384,11.131,3.071A52.922,52.922,0,0,1,122.3,90.464a38.349,38.349,0,0,1,8.444,14.394l1.343-.384,3.454-2.687,5.757-2.3,3.838-.768h5.374l4.222.768,4.99,1.919a28.863,28.863,0,0,1,7.868,6.333,24.7,24.7,0,0,1,5.374,10.363l.384,1.919v8.444l-1.151,4.606-2.687,5.566q13.7,3.109,21.111,12.858a37.769,37.769,0,0,1,7.293,13.434l1.152,4.99.384,8.444-1.535,8.828-3.454,8.06a43.02,43.02,0,0,1-9.4,10.939,37.354,37.354,0,0,1-9.6,5.757l-6.141,1.919-4.99.384-.384.384H47.645L38.817,213.1a39.059,39.059,0,0,1-9.98-4.222A49.422,49.422,0,0,1,16.747,198.7a41.96,41.96,0,0,1-8.06-13.434l-2.3-9.212L6,168.381,6.384,168v-4.606l.768-4.222,2.3-6.909a45.452,45.452,0,0,1,12.474-17.08l6.525-4.606,3.646-1.535V118.484l.384-.384.384-4.606,1.919-6.909,3.838-8.06,8.06-10.555,7.485-6.141L63,76.838l6.525-2.3,5.757-1.151h3.071Zm16.313,35.312-1.151.768L67.413,135.564v.384l-1.151.768q.384.768-.768.384v.768h-.768l-1.151,1.919q-1.151-.384-.768.768h-.768v.768h-.768v.768H60.5v.768h-.768v.768h-.768l-1.535,2.687L57.817,149l3.071,1.535H83.149v36.08l2.3,2.3h21.878l.768-.384L109.25,187V150.533H131.9l1.535-.384,1.535-1.535-.384-3.454L98.5,108.7Z" transform="translate(595 294.42)"/>
  </g>
</svg>
