<svg xmlns="http://www.w3.org/2000/svg" width="923.573" height="527.65" viewBox="0 0 923.573 527.65">
  <g id="_4009374" data-name="4009374" transform="translate(-69.079 -69.674)">
    <g id="OBJECTS" transform="translate(69.079 69.674)">
      <g id="Grupo_12" data-name="Grupo 12">
        <path id="Caminho_20" data-name="Caminho 20" d="M485.261,82.193c-63.135-2.5-124.848,15.4-178.554,62.57-37.215,32.684-68.1,71.794-100.167,109.546-61.633,72.57-207.241,227.5-81.705,312,44.992,30.284,105.282,29.92,155.627,14.979,81.117-24.076,139.687-92.642,220.051-119.522q8.275-2.767,16.726-4.957c53.379-13.724,110.283-10.26,159.969,14.38,48.687,24.144,88.691,63.28,140.163,82.322,42.311,15.653,94.591,8.663,126.474-24.99,85.075-89.8-37.274-225.683-104.267-281.6C777.657,195.232,706.122,156.076,633.528,121.6,585.359,98.73,534.871,84.16,485.261,82.193Z" transform="translate(-65.96 -63.564)" fill="#1dea7d"/>
        <g id="Grupo_3" data-name="Grupo 3" transform="translate(0 2.097)">
          <g id="Grupo_1" data-name="Grupo 1" transform="translate(0 32.619)">
            <path id="Caminho_21" data-name="Caminho 21" d="M79.948,284.808a10.87,10.87,0,1,1,10.871-10.871A10.882,10.882,0,0,1,79.948,284.808Zm0-17.6a6.733,6.733,0,1,0,6.734,6.733A6.74,6.74,0,0,0,79.948,267.2Z" transform="translate(-69.079 -8.245)" fill="#ff2c45"/>
            <path id="Caminho_22" data-name="Caminho 22" d="M489.688,114.6a10.87,10.87,0,1,1,10.869-10.869A10.882,10.882,0,0,1,489.688,114.6Zm0-17.6a6.733,6.733,0,1,0,6.733,6.734A6.74,6.74,0,0,0,489.688,97Z" transform="translate(134.621 -92.862)" fill="#ffd300"/>
            <path id="Caminho_23" data-name="Caminho 23" d="M340.512,128.1a10.871,10.871,0,1,1,10.869-10.871A10.883,10.883,0,0,1,340.512,128.1Zm0-17.6a6.734,6.734,0,1,0,6.733,6.734A6.741,6.741,0,0,0,340.512,110.492Z" transform="translate(60.458 -86.154)" fill="#fff"/>
            <path id="Caminho_24" data-name="Caminho 24" d="M406.211,379.726a10.87,10.87,0,1,1,10.871-10.871A10.883,10.883,0,0,1,406.211,379.726Zm0-17.6a6.734,6.734,0,1,0,6.734,6.734A6.742,6.742,0,0,0,406.211,362.121Z" transform="translate(93.12 38.943)" fill="#30a0fc"/>
            <path id="Caminho_25" data-name="Caminho 25" d="M644.468,214.406a10.871,10.871,0,1,1,10.871-10.871A10.883,10.883,0,0,1,644.468,214.406Zm0-17.6a6.734,6.734,0,1,0,6.734,6.734A6.742,6.742,0,0,0,644.468,196.8Z" transform="translate(211.569 -43.246)" fill="#03d06f"/>
          </g>
          <g id="Grupo_2" data-name="Grupo 2" transform="translate(65.212)">
            <path id="Caminho_26" data-name="Caminho 26" d="M368.494,108.237a2.509,2.509,0,0,1-.636-.082,2.471,2.471,0,0,1-1.752-3.023l8.57-32.223a2.47,2.47,0,1,1,4.773,1.271l-8.57,32.222A2.468,2.468,0,0,1,368.494,108.237Z" transform="translate(13.333 -71.075)" fill="#ffd300"/>
            <path id="Caminho_27" data-name="Caminho 27" d="M112.67,291.219a2.548,2.548,0,0,1-.024-.642,2.47,2.47,0,0,1,2.687-2.232l33.2,3.066a2.47,2.47,0,1,1-.455,4.918l-33.2-3.065A2.472,2.472,0,0,1,112.67,291.219Z" transform="translate(-112.636 36.935)" fill="#fd7201"/>
            <path id="Caminho_28" data-name="Caminho 28" d="M278.487,427.613a2.44,2.44,0,0,1-.587-.262,2.469,2.469,0,0,1-.82-3.4L294.452,395.5a2.469,2.469,0,1,1,4.214,2.575L281.3,426.531A2.47,2.47,0,0,1,278.487,427.613Z" transform="translate(-31.064 89.623)" fill="#262626"/>
            <path id="Caminho_29" data-name="Caminho 29" d="M461.346,261.379a2.538,2.538,0,0,1,.392-.509,2.471,2.471,0,0,1,3.494.006l23.543,23.611a2.47,2.47,0,1,1-3.5,3.487l-23.543-23.612A2.468,2.468,0,0,1,461.346,261.379Z" transform="translate(60.557 22.923)" fill="#ff2c45"/>
            <path id="Caminho_30" data-name="Caminho 30" d="M460.15,153.789a2.471,2.471,0,0,1,2.448-3.059l33.337.65a2.469,2.469,0,1,1-.1,4.938l-33.337-.648A2.469,2.469,0,0,1,460.15,153.789Z" transform="translate(60.093 -31.475)" fill="#fff"/>
            <path id="Caminho_31" data-name="Caminho 31" d="M144.45,400.586a2.517,2.517,0,0,1-.446-.463,2.469,2.469,0,0,1,.515-3.455L171.3,376.807a2.47,2.47,0,1,1,2.942,3.969l-26.782,19.861A2.472,2.472,0,0,1,144.45,400.586Z" transform="translate(-97.284 80.677)" fill="#fff"/>
            <path id="Caminho_32" data-name="Caminho 32" d="M611.334,131a2.543,2.543,0,0,1,.47.439,2.472,2.472,0,0,1-.332,3.478l-25.7,21.239a2.47,2.47,0,0,1-3.146-3.809l25.7-21.239A2.472,2.472,0,0,1,611.334,131Z" transform="translate(120.569 -41.511)" fill="#30a0fc"/>
            <path id="Caminho_33" data-name="Caminho 33" d="M604.155,421.228a2.471,2.471,0,0,1-3.84-.78l-14.646-29.953a2.47,2.47,0,1,1,4.439-2.169l14.645,29.953A2.467,2.467,0,0,1,604.155,421.228Z" transform="translate(122.405 85.955)" fill="#fd7201"/>
          </g>
        </g>
        <g id="Grupo_6" data-name="Grupo 6" transform="translate(37.065 85.241)">
          <g id="Grupo_4" data-name="Grupo 4">
            <path id="Caminho_34" data-name="Caminho 34" d="M99.88,129.633a3.022,3.022,0,1,0-3.023,3.021A3.023,3.023,0,0,0,99.88,129.633Z" transform="translate(-93.836 -126.61)" fill="#c6bbb5"/>
            <path id="Caminho_35" data-name="Caminho 35" d="M115.373,129.633a3.022,3.022,0,1,0-3.023,3.021A3.023,3.023,0,0,0,115.373,129.633Z" transform="translate(-86.134 -126.61)" fill="#c6bbb5"/>
            <path id="Caminho_36" data-name="Caminho 36" d="M130.866,129.633a3.022,3.022,0,1,0-3.021,3.021A3.022,3.022,0,0,0,130.866,129.633Z" transform="translate(-78.431 -126.61)" fill="#c6bbb5"/>
            <path id="Caminho_37" data-name="Caminho 37" d="M146.36,129.633a3.023,3.023,0,1,0-3.023,3.021A3.023,3.023,0,0,0,146.36,129.633Z" transform="translate(-70.729 -126.61)" fill="#c6bbb5"/>
            <path id="Caminho_38" data-name="Caminho 38" d="M161.853,129.633a3.023,3.023,0,1,0-3.023,3.021A3.023,3.023,0,0,0,161.853,129.633Z" transform="translate(-63.027 -126.61)" fill="#c6bbb5"/>
            <path id="Caminho_39" data-name="Caminho 39" d="M99.88,141.341a3.022,3.022,0,1,0-3.023,3.021A3.023,3.023,0,0,0,99.88,141.341Z" transform="translate(-93.836 -120.789)" fill="#c6bbb5"/>
            <path id="Caminho_40" data-name="Caminho 40" d="M115.373,141.341a3.022,3.022,0,1,0-3.023,3.021A3.023,3.023,0,0,0,115.373,141.341Z" transform="translate(-86.134 -120.789)" fill="#c6bbb5"/>
            <path id="Caminho_41" data-name="Caminho 41" d="M130.866,141.341a3.022,3.022,0,1,0-3.021,3.021A3.022,3.022,0,0,0,130.866,141.341Z" transform="translate(-78.431 -120.789)" fill="#c6bbb5"/>
            <path id="Caminho_42" data-name="Caminho 42" d="M146.36,141.341a3.023,3.023,0,1,0-3.023,3.021A3.023,3.023,0,0,0,146.36,141.341Z" transform="translate(-70.729 -120.789)" fill="#c6bbb5"/>
            <path id="Caminho_43" data-name="Caminho 43" d="M161.853,141.341a3.023,3.023,0,1,0-3.023,3.021A3.023,3.023,0,0,0,161.853,141.341Z" transform="translate(-63.027 -120.789)" fill="#c6bbb5"/>
            <path id="Caminho_44" data-name="Caminho 44" d="M99.88,153.049a3.022,3.022,0,1,0-3.023,3.021A3.023,3.023,0,0,0,99.88,153.049Z" transform="translate(-93.836 -114.969)" fill="#c6bbb5"/>
            <path id="Caminho_45" data-name="Caminho 45" d="M115.373,153.049a3.022,3.022,0,1,0-3.023,3.021A3.023,3.023,0,0,0,115.373,153.049Z" transform="translate(-86.134 -114.969)" fill="#c6bbb5"/>
            <path id="Caminho_46" data-name="Caminho 46" d="M130.866,153.049a3.022,3.022,0,1,0-3.021,3.021A3.022,3.022,0,0,0,130.866,153.049Z" transform="translate(-78.431 -114.969)" fill="#c6bbb5"/>
            <path id="Caminho_47" data-name="Caminho 47" d="M146.36,153.049a3.023,3.023,0,1,0-3.023,3.021A3.023,3.023,0,0,0,146.36,153.049Z" transform="translate(-70.729 -114.969)" fill="#c6bbb5"/>
            <path id="Caminho_48" data-name="Caminho 48" d="M161.853,153.049a3.023,3.023,0,1,0-3.023,3.021A3.023,3.023,0,0,0,161.853,153.049Z" transform="translate(-63.027 -114.969)" fill="#c6bbb5"/>
          </g>
          <g id="Grupo_5" data-name="Grupo 5" transform="translate(787.681 250.934)">
            <path id="Caminho_49" data-name="Caminho 49" d="M681.931,320.657a3.022,3.022,0,1,0,3.023-3.023A3.023,3.023,0,0,0,681.931,320.657Z" transform="translate(-589.148 -282.577)" fill="#c6bbb5"/>
            <path id="Caminho_50" data-name="Caminho 50" d="M666.438,320.657a3.022,3.022,0,1,0,3.021-3.023A3.021,3.021,0,0,0,666.438,320.657Z" transform="translate(-596.851 -282.577)" fill="#c6bbb5"/>
            <path id="Caminho_51" data-name="Caminho 51" d="M650.945,320.657a3.022,3.022,0,1,0,3.021-3.023A3.021,3.021,0,0,0,650.945,320.657Z" transform="translate(-604.553 -282.577)" fill="#c6bbb5"/>
            <path id="Caminho_52" data-name="Caminho 52" d="M635.451,320.657a3.023,3.023,0,1,0,3.023-3.023A3.023,3.023,0,0,0,635.451,320.657Z" transform="translate(-612.256 -282.577)" fill="#c6bbb5"/>
            <path id="Caminho_53" data-name="Caminho 53" d="M619.958,320.657a3.022,3.022,0,1,0,3.023-3.023A3.023,3.023,0,0,0,619.958,320.657Z" transform="translate(-619.958 -282.577)" fill="#c6bbb5"/>
            <path id="Caminho_54" data-name="Caminho 54" d="M681.931,308.947a3.022,3.022,0,1,0,3.023-3.021A3.023,3.023,0,0,0,681.931,308.947Z" transform="translate(-589.148 -288.397)" fill="#c6bbb5"/>
            <path id="Caminho_55" data-name="Caminho 55" d="M666.438,308.947a3.022,3.022,0,1,0,3.021-3.021A3.022,3.022,0,0,0,666.438,308.947Z" transform="translate(-596.851 -288.397)" fill="#c6bbb5"/>
            <path id="Caminho_56" data-name="Caminho 56" d="M650.945,308.947a3.022,3.022,0,1,0,3.021-3.021A3.022,3.022,0,0,0,650.945,308.947Z" transform="translate(-604.553 -288.397)" fill="#c6bbb5"/>
            <circle id="Elipse_1" data-name="Elipse 1" cx="3.022" cy="3.022" r="3.022" transform="translate(23.196 17.528)" fill="#c6bbb5"/>
            <circle id="Elipse_2" data-name="Elipse 2" cx="3.022" cy="3.022" r="3.022" transform="translate(0 17.528)" fill="#c6bbb5"/>
            <path id="Caminho_57" data-name="Caminho 57" d="M681.931,297.241a3.022,3.022,0,1,0,3.023-3.023A3.023,3.023,0,0,0,681.931,297.241Z" transform="translate(-589.148 -294.218)" fill="#c6bbb5"/>
            <path id="Caminho_58" data-name="Caminho 58" d="M666.438,297.241a3.022,3.022,0,1,0,3.021-3.023A3.021,3.021,0,0,0,666.438,297.241Z" transform="translate(-596.851 -294.218)" fill="#c6bbb5"/>
            <path id="Caminho_59" data-name="Caminho 59" d="M650.945,297.241a3.022,3.022,0,1,0,3.021-3.023A3.021,3.021,0,0,0,650.945,297.241Z" transform="translate(-604.553 -294.218)" fill="#c6bbb5"/>
            <path id="Caminho_60" data-name="Caminho 60" d="M635.451,297.241a3.023,3.023,0,1,0,3.023-3.023A3.023,3.023,0,0,0,635.451,297.241Z" transform="translate(-612.256 -294.218)" fill="#c6bbb5"/>
            <path id="Caminho_61" data-name="Caminho 61" d="M619.958,297.241a3.022,3.022,0,1,0,3.023-3.023A3.023,3.023,0,0,0,619.958,297.241Z" transform="translate(-619.958 -294.218)" fill="#c6bbb5"/>
          </g>
        </g>
        <g id="Grupo_11" data-name="Grupo 11" transform="translate(9.016)">
          <g id="Grupo_7" data-name="Grupo 7" transform="translate(525.641 54.717)">
            <path id="Caminho_62" data-name="Caminho 62" d="M631.217,343.411c4.553,11.762,14.656,40.26,14.435,61.819a6.245,6.245,0,0,1-3.216,5.5c-1.2-7.667-4.755-22.017-7.005-30.834a27.238,27.238,0,0,0-5.754-11.254c-9.63-11.016-12.016-27.363-12.016-27.363,1.743-.711,3.554-1.355,5.382-1.913A6.732,6.732,0,0,1,631.217,343.411Z" transform="translate(-331.009 9.545)" fill="#fff"/>
            <path id="Caminho_63" data-name="Caminho 63" d="M568.326,370.39a6.689,6.689,0,0,1,1.54,8.969c-6.8,10.627-23.878,35.571-41.428,48.094a6.244,6.244,0,0,1-6.346.626c5.5-5.5,14.994-16.788,20.782-23.811a26.978,26.978,0,0,0,5.7-11.271c3.232-14.283,15.028-25.841,15.028-25.841C565.211,368.157,566.8,369.239,568.326,370.39Z" transform="translate(-378.522 23.502)" fill="#fff"/>
            <path id="Caminho_64" data-name="Caminho 64" d="M648.118,410a5.207,5.207,0,0,1-1.337.49c-2.014.458-4.6-.084-7.615-3.265l-7.649-10.035a30.553,30.553,0,0,0-7.379-6.921l-16.787-11.152.609-1.912,3.487-10.949a11.968,11.968,0,0,0-1-9.562l-2.488-4.382-1.726-3.03c1.675-.744,8.716-5.348,17.109-8.731,0,0,2.386,16.347,12.016,27.363a27.239,27.239,0,0,1,5.754,11.254C643.363,387.984,646.918,402.334,648.118,410Z" transform="translate(-336.691 10.274)" fill="#ff2c45"/>
            <path id="Caminho_65" data-name="Caminho 65" d="M564.7,370.041s-11.8,11.558-15.028,25.841a26.977,26.977,0,0,1-5.7,11.271c-5.788,7.023-15.281,18.31-20.782,23.811a5.333,5.333,0,0,1-1.184-.779c-1.557-1.353-2.64-3.774-1.845-8.073l3.605-12.082A30.61,30.61,0,0,0,525,399.976l-.88-20.12,3.487-1.168,9.324-3.114a11.906,11.906,0,0,0,7.141-6.448l2.758-6.075.762-1.692C549.164,362.274,557.016,365.235,564.7,370.041Z" transform="translate(-379.616 20.619)" fill="#ff2c45"/>
            <path id="Caminho_66" data-name="Caminho 66" d="M686.351,297.375l-11.22-.9L688.5,307.14a3.536,3.536,0,0,1-4.044,5.786L668.9,303.4l7.26,10.525a2.929,2.929,0,0,1,.524,1.675,2.963,2.963,0,0,1-4.908,2.252L656.2,304.431a1.822,1.822,0,0,0-3,1.117L652.286,312a3.695,3.695,0,0,1-7.278.2l-2.081-10.425a11.485,11.485,0,0,1-.2-3.232l.457-6.007a13.337,13.337,0,0,0-2.2-8.411c-12.557-18.97-27.736-42.155-33.777-51.378a16.825,16.825,0,0,0-6.888-6.025c-4.162-1.979-8.02-4.027-11.625-6.126-1.844-1.066-3.6-2.132-5.3-3.214-1.641-1.017-3.232-2.065-4.738-3.114,0,0,16.669-12.32,19.918-27.6q1.091.889,2.234,1.726c1.777,1.32,3.554,2.725,5.313,4.214,18.632,15.771,34.861,39.751,34.861,39.751,5.67,8.733,13.115,31.256,16.551,42.239a11.547,11.547,0,0,0,6.685,7.345,30.818,30.818,0,0,1,10.441,7.4l12.336,1.472a3.283,3.283,0,0,1,2.911,3.283v.22A3.318,3.318,0,0,1,686.351,297.375Z" transform="translate(-350.402 -66.229)" fill="#f8ba81"/>
            <path id="Caminho_67" data-name="Caminho 67" d="M603.368,355.342l3.96-7.716,5.077,1.168,2.488,4.382a11.968,11.968,0,0,1,1,9.562L612.4,373.687l-15.111-6.448Z" transform="translate(-341.135 13.792)" fill="#f8ba81"/>
            <path id="Caminho_68" data-name="Caminho 68" d="M553.441,329.1a47.5,47.5,0,0,1,7.176-.779,37.821,37.821,0,0,1,15.043,2.4s39.312,14.164,56.691,26.519l-3.96,7.716c-3.2-2.132-6.734-3.538-10.034-5.584a87.629,87.629,0,0,0-9.326-5.517,72.226,72.226,0,0,0-28.8-6.9c-11.152-.389-19.731-2.707-28.074-10.339a39.03,39.03,0,0,1-5.2-5.957A61.76,61.76,0,0,1,553.441,329.1Z" transform="translate(-366.159 4.179)" fill="#0663b7"/>
            <path id="Caminho_69" data-name="Caminho 69" d="M558.1,393.494l.948,3.214-1.439.829-17.617,10.17-2.2,1.27c-2.741-5.939-24.234-34.285-24.234-34.285-11.947-14.57-18.987-25.961-23.082-34.574a26.042,26.042,0,0,1,7.818-31.9l55.947-42.645s10.017,14.688,44.693,5.939c0,0,12.708-1.675,24.216.982-1.862,1.523-4.518,6.583-6.075,8.731-5.7,7.836-12.253,14.79-18.345,22.3-8.631,10.594-17.549,22.084-20.358,35.894-1.133,5.6-1.184,11.878,1.557,17.04a19.582,19.582,0,0,0,2.843,3.807,61.765,61.765,0,0,0-6.481,1.557,39.028,39.028,0,0,0,5.2,5.957c8.344,7.633,16.922,9.95,28.075,10.339a72.227,72.227,0,0,1,28.8,6.9,87.614,87.614,0,0,1,9.326,5.517c3.3,2.047,6.836,3.452,10.034,5.584l-6.074,11.9-.491.948-89.624-14.672A23.076,23.076,0,0,1,558.1,393.494Zm-1.353-93.718c-.88-.424-2.066.3-3.047.846-4.738,2.607-8.986,6.328-13.4,9.41-4.113,2.86-8.445,5.432-12.658,8.156-2.335,1.506-5.653,2.758-7.412,4.975-3.181,3.976-2.5,11.574,1.219,15.1a47.989,47.989,0,0,1-5.348,1.117c.642,2.385.339,5.246.948,7.649,1.168,4.382,4.806,7.835,8.055,10.729,4.553,4.027,9.46,9.663,14.926,12.387q-.052-1.143,0-2.285c.153-3.2.491-6.819,1.066-10.881,1.421-9.934,4.282-22.643,9.392-38.8C552.276,312.485,554.341,306.359,556.745,299.776Z" transform="translate(-395.489 -27)" fill="#0275f2"/>
            <path id="Caminho_70" data-name="Caminho 70" d="M603.71,274.309l-.153.255s5.146,20.24-17.835,43.2c0,0-22.779,25.588-25.553,39.43a47.516,47.516,0,0,0-7.176.778,19.576,19.576,0,0,1-2.843-3.807c-2.741-5.162-2.69-11.44-1.557-17.04,2.809-13.81,11.727-25.3,20.358-35.894,6.092-7.514,12.642-14.468,18.345-22.3,1.557-2.148,4.213-7.209,6.075-8.731A31.979,31.979,0,0,1,603.71,274.309Z" transform="translate(-365.71 -24.701)" fill="#0663b7"/>
            <path id="Caminho_71" data-name="Caminho 71" d="M562.145,127.221s5.45,3.334,3.572,9.459c0,0,11.845,10.459-1.608,23.947.169-2.285-.255-5.957-4.806-5.992a2.246,2.246,0,0,0-1.828.948,3.818,3.818,0,0,1-3.13,1.642,3.741,3.741,0,0,1-1.624-.373,3.83,3.83,0,0,1-2.2-3.469,3.788,3.788,0,0,1,.2-1.2l2.419-7.311a5.953,5.953,0,0,0-1.421-6.092,6.007,6.007,0,0,1-1.777-4.264,5.191,5.191,0,0,1,.051-.729l.728-5.974s-8.395-9.392-25.757-3.6a9.464,9.464,0,0,0-4.349,3.012s-2.336-21.661,17.719-20.984c0,0,21.61.338,20.747,14.79C559.083,121.027,559.623,125.766,562.145,127.221Z" transform="translate(-379.297 -106.222)" fill="#95342d"/>
            <path id="Caminho_72" data-name="Caminho 72" d="M563.739,160.771a79.826,79.826,0,0,1-6.888,38.736c-1.877,4.027-4.331,7.954-8.055,10.357-6.261,4.044-14.943,2.639-20.053-2.623-6.872-7.09-6.719-17.939-7.227-27.518l5.737-5.279.22-.067a85.266,85.266,0,0,1,2.876,16.8s1.017,9.324,8.462,9.8a9.5,9.5,0,0,0,4.315-.828c3.723-1.642,10.561-6.668,12.744-21.864a35.259,35.259,0,0,0-1.371-15.01,26.3,26.3,0,0,1-.981-5.23l.3-.034C554.042,158.012,558.187,159.18,563.739,160.771Z" transform="translate(-378.808 -80.474)" fill="#e5e5e5"/>
            <path id="Caminho_73" data-name="Caminho 73" d="M559.532,161.49a43.132,43.132,0,0,0-2.132,16.957h.018a26.3,26.3,0,0,0,.981,5.23,35.259,35.259,0,0,1,1.371,15.01c-2.183,15.2-9.02,20.222-12.744,21.864a9.5,9.5,0,0,1-4.315.828c-7.445-.473-8.462-9.8-8.462-9.8a85.261,85.261,0,0,0-2.876-16.8,79.079,79.079,0,0,0-5.855-14.994c15.365-3.707,15.942-16.382,15.942-16.382-11.745,5.5-18.514,6.685-22.441,6.228-5.448-.677-5.348-4.586-5.348-4.586,0-12.846,5.366-30.326,8.344-39.041.169-.475.322-.931.475-1.353a9.228,9.228,0,0,1,1.539-2.776,9.463,9.463,0,0,1,4.349-3.012c17.362-5.788,25.757,3.6,25.757,3.6l-.728,5.974a5.191,5.191,0,0,0-.051.729,6.007,6.007,0,0,0,1.777,4.264,5.953,5.953,0,0,1,1.421,6.092l-2.419,7.311a3.784,3.784,0,0,0-.2,1.2,3.831,3.831,0,0,0,2.2,3.469,3.74,3.74,0,0,0,1.624.373,3.818,3.818,0,0,0,3.131-1.642,2.246,2.246,0,0,1,1.828-.948c4.551.034,4.975,3.707,4.806,5.992v.016a6.8,6.8,0,0,1-1.049,3.283C564.761,161.117,561.867,161.608,559.532,161.49Zm-19.816-29.937a1.356,1.356,0,1,0-2.589-.71,1.353,1.353,0,1,0,2.589.71Zm-13.876,0a1.347,1.347,0,1,0-1.693,1.117A1.44,1.44,0,0,0,525.84,131.553Z" transform="translate(-382.708 -100.875)" fill="#f8ba81"/>
            <path id="Caminho_74" data-name="Caminho 74" d="M540.331,353.718l5.093,13.132-2.758,6.075a11.906,11.906,0,0,1-7.141,6.448l-9.324,3.114-3.487-18.6Z" transform="translate(-378.213 16.82)" fill="#f8ba81"/>
            <path id="Caminho_75" data-name="Caminho 75" d="M543.659,289.307c.981-.542,2.166-1.27,3.047-.846-2.4,6.583-4.469,12.709-6.263,18.4A55.617,55.617,0,0,1,520.914,323.3a51.424,51.424,0,0,1-9.51,3.64c-3.723-3.521-4.4-11.119-1.219-15.1,1.759-2.217,5.077-3.469,7.412-4.975,4.213-2.725,8.546-5.3,12.658-8.156C534.673,295.635,538.92,291.914,543.659,289.307Z" transform="translate(-385.449 -15.685)" fill="#0663b7"/>
            <path id="Caminho_76" data-name="Caminho 76" d="M531.231,125.311a1.742,1.742,0,0,1,1.045,2.192,1.609,1.609,0,1,1-3.077-.844A1.747,1.747,0,0,1,531.231,125.311Z" transform="translate(-375.025 -96.755)"/>
            <path id="Caminho_77" data-name="Caminho 77" d="M539.684,147.986s-.576,12.675-15.942,16.382a53.767,53.767,0,0,0-6.5-10.154C521.17,154.671,527.939,153.487,539.684,147.986Z" transform="translate(-380.932 -85.459)" fill="#0b0a1c"/>
            <path id="Caminho_78" data-name="Caminho 78" d="M512.1,315.332a51.425,51.425,0,0,0,9.51-3.64s7.936,14.183,10.137,22.355c-.575,4.062-.913,7.683-1.066,10.881q-.052,1.143,0,2.285c-5.466-2.725-10.374-8.36-14.927-12.387-3.249-2.894-6.887-6.346-8.055-10.729-.609-2.4-.305-5.264-.948-7.649A47.973,47.973,0,0,0,512.1,315.332Z" transform="translate(-386.147 -4.073)" fill="#0663b7"/>
            <path id="Caminho_79" data-name="Caminho 79" d="M521.942,125.324a1.82,1.82,0,1,1-1.988,1.331A1.689,1.689,0,0,1,521.942,125.324Z" transform="translate(-379.62 -96.748)"/>
            <path id="Caminho_80" data-name="Caminho 80" d="M629.08,298.3a169.37,169.37,0,0,1,4.991,37.111,17.367,17.367,0,0,0-5.939-6.245,31.975,31.975,0,0,0-10.341-4.111q-1.091-.254-2.183-.457a80.752,80.752,0,0,0-22.034-.526c-34.674,8.749-44.693-5.939-44.693-5.939l-.93-8.395-.051-.422-.051-.424-2.961-26.485-.051-.508-.051-.49-.728-6.516-.593-5.315a36.592,36.592,0,0,0-3.655-12.337c-.306-.609-.627-1.235-.948-1.877-2.335-4.688-4.942-10.172-7.447-15.434-.135.034-.271.067-.389.085-.406.1-.811.2-1.2.287a37.591,37.591,0,0,1-15.687.051,35.244,35.244,0,0,1-14.081-6.432,16.865,16.865,0,0,1-1.32-1.1l2.625-5.957.371-.813,8.191-18.547a65.816,65.816,0,0,1,3.774-7.294c.084-.135.151-.271.237-.406a3.058,3.058,0,0,1,.253-.389,67.326,67.326,0,0,1,11.61-14.114l7.04-6.5c.508,9.579.355,20.427,7.225,27.518,5.111,5.262,13.792,6.667,20.054,2.623,3.722-2.4,6.176-6.33,8.055-10.357a79.844,79.844,0,0,0,6.889-38.736c12.082,3.485,30.917,9,30.917,9a6.525,6.525,0,0,1,1.759.779c.136.067.255.153.389.237s.254.169.389.254c4.738,3.214,12.422,11.711,18.124,18.377.085.118.186.22.271.322.033.034.067.051.084.085.069.084.136.151.2.237a83.142,83.142,0,0,0,11.1,10.847c-3.045,14.283-17.8,25.993-19.714,27.449l-.2.153c1.506,1.049,3.1,2.1,4.738,3.114,1.371,4.231,1.692,13.724,1.726,21.441v1.133c0,5.906-.169,10.526-.169,10.526,0,3.436.271,7.971.609,12.286a120.2,120.2,0,0,0,1.608,12.067c.033.151.049.3.084.457s.051.322.085.473Q627.9,293.74,629.08,298.3Z" transform="translate(-390.131 -79.558)" fill="#262626"/>
            <path id="Caminho_81" data-name="Caminho 81" d="M565.926,220.987l-11.2,17.853-7.616,12.116a24.51,24.51,0,0,1-29.073,10.035c-19.276-6.921-47.723-17.159-55.88-20.087a12,12,0,0,0-3.909-.762c-6.5-.084-13-3.891-15.991-5.9a12.975,12.975,0,0,0-3.994-1.828l-3.756-1.015a7.4,7.4,0,0,1-3.52-2.115l-3.605-3.909a1.892,1.892,0,0,1-.526-1.3,1.933,1.933,0,0,1,.915-1.641,1.907,1.907,0,0,1,2.2.1l3.3,2.521,8.445,1.861-11.136-6.43-4.095-8.68a2.905,2.905,0,0,1-.287-1.288,3.018,3.018,0,0,1,5.517-1.675l1.877,2.792a16.206,16.206,0,0,0,9.393,6.685l2.978.778-7.074-8.022-1.168-4.857a3.379,3.379,0,0,1-.084-.711,3.04,3.04,0,0,1,5.974-.795l.3,1.117A15.672,15.672,0,0,0,449.7,214.3l3.74,1.624a3.6,3.6,0,0,0,4.993-3.789l-1.355-9.884v-.1A3.179,3.179,0,0,1,459.871,199a3.134,3.134,0,0,1,3.452,2.556l1.761,9.51c1.015,3.25,2.4,11.034,2.927,13.944.118.711.187,1.135.187,1.135l4.484,1.184,15.6,4.078a25.647,25.647,0,0,0,5.787.813c5.855.169,12.828.761,18.514,1.353a17.662,17.662,0,0,0,16.822-8.258l2.03-3.283,4.688-7.565a36.2,36.2,0,0,0,29.768,6.381Z" transform="translate(-426.196 -60.105)" fill="#f8ba81"/>
            <path id="Caminho_82" data-name="Caminho 82" d="M528.874,122.865A6.721,6.721,0,0,1,532,121.606a7.663,7.663,0,0,1,3.458.278,6.794,6.794,0,0,1,2.952,1.868,6.576,6.576,0,0,1,1.635,2.954,27.94,27.94,0,0,0-2.491-1.949,9.674,9.674,0,0,0-2.616-1.264A17.368,17.368,0,0,0,528.874,122.865Z" transform="translate(-375.15 -98.616)" fill="#95342d"/>
            <path id="Caminho_83" data-name="Caminho 83" d="M525.878,123.117a27.293,27.293,0,0,0-3.267.244c-.508.049-1.015.145-1.564.2a10.891,10.891,0,0,1-1.8.117,4.257,4.257,0,0,1,3.16-1.993,4.347,4.347,0,0,1,1.945.216A2.727,2.727,0,0,1,525.878,123.117Z" transform="translate(-379.938 -98.547)" fill="#95342d"/>
            <path id="Caminho_84" data-name="Caminho 84" d="M516.78,139.307a5.193,5.193,0,0,0,4.147,2.425,13.976,13.976,0,0,0,4.908-.651,24.393,24.393,0,0,0,2.439-.816c.814-.29,1.624-.6,2.428-.952,1.632-.642,3.214-1.416,4.93-2.02a25.154,25.154,0,0,1-4.343,3.2,21.936,21.936,0,0,1-4.992,2.211,11.49,11.49,0,0,1-5.6.319,5.978,5.978,0,0,1-2.578-1.3A4.148,4.148,0,0,1,516.78,139.307Z" transform="translate(-381.163 -90.775)"/>
            <path id="Caminho_85" data-name="Caminho 85" d="M519.832,132.113a2.979,2.979,0,0,1,1.382-1.318,4.127,4.127,0,0,1,1.865-.442,3.717,3.717,0,0,1,3.25,1.759c-.677.036-1.22-.022-1.75-.034s-1.014-.039-1.5-.033C522.085,132.022,521.135,132.1,519.832,132.113Z" transform="translate(-379.645 -94.224)"/>
            <path id="Caminho_86" data-name="Caminho 86" d="M599.987,316.956a17.366,17.366,0,0,0-5.939-6.245,31.974,31.974,0,0,0-10.341-4.111q-1.091-.254-2.183-.457c.22-3.656,2.827-6.583,3.571-10.341,1.2-6.092,1.066-13.233,1.033-19.41-.051-11.134-5.822-20.831-9.562-30.985-2.876-7.853-6.074-16.127-7.987-24.267-1.573-6.718-2.216-17.921,1.186-24.165,4.551,4.484,9.9,7.7,14.74,12.015l-.2.153c1.506,1.049,3.1,2.1,4.738,3.114,1.371,4.231,1.692,13.724,1.726,21.441v1.133c0,5.906-.169,10.526-.169,10.526,0,3.436.271,7.971.609,12.286a120.224,120.224,0,0,0,1.608,12.067c.033.151.049.3.084.457s.051.322.085.473q.838,4.646,2.014,9.206A169.37,169.37,0,0,1,599.987,316.956Z" transform="translate(-356.047 -61.104)"/>
            <path id="Caminho_87" data-name="Caminho 87" d="M547.081,306.491h.033a.656.656,0,0,1,.187-.016h.237c6.176,0,11.762,2.132,17.159,4.2a61.641,61.641,0,0,0,13.539,3.994,32.983,32.983,0,0,0,4.282.287c10.594,0,21.017-5.28,29.107-14.909a87.1,87.1,0,0,1,14.57-14.2l-.169-.93c-.051.033-.118.084-.169.118A87.887,87.887,0,0,0,610.981,299.5c-8.986,10.7-20.9,15.907-32.644,14.317-4.671-.627-9.088-2.319-13.335-3.943-5.483-2.081-11.136-4.247-17.448-4.247a4.588,4.588,0,0,0-.542.017h-.033Zm-3.063-27.33a18.241,18.241,0,0,1,1.759,1.066,89.652,89.652,0,0,1,7.074,5.551c5.533,4.671,10.779,9.088,19.225,9.934,1.082.1,2.2.169,3.367.169,9.341,0,21.526-3.96,31.967-20.291,1.844-2.86,3.469-5.872,5.042-8.782A85.119,85.119,0,0,1,621,253.151a34.737,34.737,0,0,1,2.978-3.114V248.9c-.1.085-.2.169-.287.254a34.249,34.249,0,0,0-3.334,3.451,84.8,84.8,0,0,0-8.648,13.793c-1.573,2.91-3.2,5.906-5.009,8.749-6.363,9.934-17.532,21.406-34.539,19.714-8.191-.813-13.335-5.144-18.767-9.731a89.245,89.245,0,0,0-7.141-5.617,19.27,19.27,0,0,0-2.1-1.235c-.084-.034-.153-.085-.237-.118Zm-43.525-55.54c.049,0,.1.016.151.016a58.363,58.363,0,0,1,25.926,8.242c.644.406,1.286.829,1.912,1.27,6.7,4.449,12.54,9.865,18.175,15.094,5.482,5.077,11.643,10,19.614,11.676a32.563,32.563,0,0,0,6.836.711c13.843,0,26.67-8.7,33.253-23.167,2.488-5.5,3.689-11.474,4.84-17.228l.118-.593c1.133-5.634,2.4-12.015,5.179-17.717A82.221,82.221,0,0,1,626.33,185.9l-.558-.644-.051.051a84.088,84.088,0,0,0-9.984,16.246c-2.809,5.8-4.095,12.236-5.246,17.922l-.118.591c-1.151,5.721-2.336,11.627-4.789,17.058-7.48,16.466-23.218,25.3-39.141,21.983-7.769-1.642-13.81-6.5-19.208-11.474-5.668-5.262-11.523-10.694-18.276-15.18-.626-.457-1.286-.88-1.946-1.286a59.175,59.175,0,0,0-26.146-8.36Zm12.336-26.654a.591.591,0,0,1,.169.016,4.81,4.81,0,0,1,1.488.475c3.893,2.03,7.92,6.092,11.965,12.083,7.885,11.642,18.734,25.146,32.813,26.432a19.794,19.794,0,0,0,2,.085c13.386,0,24.538-12.151,27.82-24.606a84.447,84.447,0,0,0,1.913-11l.067-.424c.66-5.246,1.353-10.661,3.52-15.873,1.133-2.743,5.4-12.049,12.913-17.177l.151-.1c-.135-.085-.253-.169-.389-.255s-.253-.169-.389-.237c-7.6,5.3-11.913,14.672-13.064,17.43-2.2,5.331-2.91,10.814-3.587,16.111l-.051.424a85.923,85.923,0,0,1-1.9,10.9c-3.367,12.726-15.1,25.148-28.938,23.878-13.706-1.252-24.4-14.587-32.169-26.061-4.129-6.11-8.258-10.255-12.287-12.353a6.064,6.064,0,0,0-1.557-.542Z" transform="translate(-389.26 -76.31)" fill="#444241"/>
            <path id="Caminho_88" data-name="Caminho 88" d="M560.948,189.141c2.374,2.108,4.722,4.222,7.022,6.378l6.926,6.421c2.307,2.136,4.631,4.252,7,6.312,2.385,2.042,4.758,4.1,7.317,5.98a45.1,45.1,0,0,1-8.144-4.951,88.834,88.834,0,0,1-7.318-6.1A105.171,105.171,0,0,1,560.948,189.141Z" transform="translate(-359.205 -64.999)" fill="#7f7f7e"/>
            <path id="Caminho_89" data-name="Caminho 89" d="M525.915,220.1c-.406.1-.811.2-1.2.287a37.591,37.591,0,0,1-15.687.051,20.272,20.272,0,0,0,2.521-3.012,39.916,39.916,0,0,0,3.08-6.956,67.5,67.5,0,0,0,3.165-10.543,97.15,97.15,0,0,0,3.671,9.8C522.921,212.989,524.883,216.662,525.915,220.1Z" transform="translate(-385.017 -59.637)"/>
            <path id="Caminho_90" data-name="Caminho 90" d="M513.671,194.9l3.128,8.38c1.06,2.776,2.089,5.557,3.2,8.309,2.147,5.535,4.481,10.974,6.68,16.555a69.264,69.264,0,0,1-4.562-7.742c-1.385-2.66-2.575-5.414-3.692-8.2A77.03,77.03,0,0,1,513.671,194.9Z" transform="translate(-382.708 -62.137)" fill="#7f7f7e"/>
            <path id="Caminho_91" data-name="Caminho 91" d="M530.979,215.845l-11.2,17.853a56.271,56.271,0,0,0-12.473-9.239c-2.37-1.3-7.818-4.2-10.814-7.565l4.688-7.565a36.2,36.2,0,0,0,29.768,6.381Z" transform="translate(-391.249 -54.962)" fill="#db8f52"/>
            <path id="Caminho_92" data-name="Caminho 92" d="M606.12,192.607c-1.337,7.649-2.165,15.111-8.46,20.95a91.824,91.824,0,0,1-8.969,7.04c-1.844-1.066-3.6-2.132-5.3-3.214-1.641-1.017-3.232-2.065-4.738-3.114,0,0,16.669-12.32,19.918-27.6q1.091.889,2.234,1.726C602.584,189.713,604.361,191.117,606.12,192.607Z" transform="translate(-350.402 -66.229)" fill="#db8f52"/>
            <path id="Caminho_93" data-name="Caminho 93" d="M526.967,323.913c.331-1.8.768-3.583,1.15-5.378l1.324-5.339c.819-3.584,2.061-7.034,3.205-10.514,1.2-3.463,2.4-6.926,3.726-10.342q2.019-5.111,4.416-10.07c-.459,1.782-1.022,3.524-1.53,5.285-.545,1.747-1.162,3.467-1.663,5.228-1.031,3.509-2.187,6.972-3.346,10.435-1.18,3.454-2.458,6.878-3.569,10.354l-1.77,5.191C528.26,320.477,527.666,322.208,526.967,323.913Z" transform="translate(-376.098 -18.7)"/>
            <path id="Caminho_94" data-name="Caminho 94" d="M555.444,368.437c-2.809-.267-5.6-.639-8.4-.957a40.624,40.624,0,0,1-4.2-.677c-.7-.153-1.413-.278-2.11-.457-.681-.228-1.377-.421-2.049-.678a25.642,25.642,0,0,1-16.033-19.174,25.224,25.224,0,0,1-.1-8.6l1.061-8.415c.578-2.765,1.153-5.527,1.8-8.267-.274,2.812-.684,5.592-.982,8.383l-.585,8.386a25.491,25.491,0,0,0,3.3,15.787,26.02,26.02,0,0,0,12.025,10.7c.626.28,1.279.5,1.919.755.654.205,1.323.359,1.988.543,1.31.4,2.711.627,4.09.9C549.935,367.259,552.7,367.795,555.444,368.437Z" transform="translate(-378.45 0.661)"/>
            <path id="Caminho_95" data-name="Caminho 95" d="M534.368,339.666a60.41,60.41,0,0,1,12.491-7.2,52.773,52.773,0,0,1,6.815-2.484c2.358-.56,4.692-1.241,7.084-1.665a41.2,41.2,0,0,1,14.542.165c4.839.922,9.146,3.178,13.518,5.09-2.31-.663-4.578-1.428-6.867-2.138a35.688,35.688,0,0,0-6.872-1.669,47.2,47.2,0,0,0-14.054.222c-2.328.38-4.6,1.043-6.914,1.532-2.3.558-4.529,1.364-6.767,2.15-2.232.811-4.424,1.741-6.58,2.756C538.584,337.4,536.463,338.5,534.368,339.666Z" transform="translate(-372.419 3.914)"/>
            <path id="Caminho_96" data-name="Caminho 96" d="M503.634,322.3a31.667,31.667,0,0,0,5.652-1.015c1.839-.518,3.717-.834,5.5-1.491a61.172,61.172,0,0,0,10.347-4.644,63.122,63.122,0,0,0,9.329-6.463,83.693,83.693,0,0,0,8.23-7.981,51.077,51.077,0,0,1-3.388,4.7,56.316,56.316,0,0,1-3.976,4.249,46.907,46.907,0,0,1-9.362,6.965,45.962,45.962,0,0,1-10.8,4.412C511.356,321.836,507.509,322.646,503.634,322.3Z" transform="translate(-387.698 -9.535)"/>
            <path id="Caminho_97" data-name="Caminho 97" d="M560.961,232.57c-.593,1.235-4.129,2.3-5.517,2.961-2.759,1.3-5.737,2.081-8.478,3.113-4.367,1.642-10.967,3.893-16.229,4.536l-.593-5.315a36.593,36.593,0,0,0-3.655-12.336c-.305-.609-.627-1.235-.948-1.877a39.844,39.844,0,0,0,4.111,3.571,18.627,18.627,0,0,0,4.908,3.08c2.2.728,4.942.677,7.21,1.252C548.115,233.144,554.816,234.074,560.961,232.57Z" transform="translate(-376.807 -47.842)"/>
            <path id="Caminho_98" data-name="Caminho 98" d="M460.41,218.69c-2.234,3.063-6.177,3.994-9.528,5.161.9-1.539,2.572-2.707,3.622-4.18a6.955,6.955,0,0,0,1.235-3.3c.118.711.187,1.135.187,1.135Z" transform="translate(-413.924 -51.461)" fill="#db8f52"/>
          </g>
          <g id="Grupo_8" data-name="Grupo 8" transform="translate(0 72.035)">
            <path id="Caminho_99" data-name="Caminho 99" d="M336.143,240.722a3.247,3.247,0,0,1-3.114,3.25l-15.518.626-1.642,5.313-.219-.067s-12.049,7.056-21.222,1.777l-29.835,1.506-26.483,1.337A24.108,24.108,0,0,1,216.855,243.8c-1.422-2.133-2.912-4.469-4.384-6.9a97.809,97.809,0,0,1-9.139-18.565,43.9,43.9,0,0,0,29.057-9.663,91.61,91.61,0,0,0,2.352,9.917c.136.439.271.862.424,1.268,4.484,12.489,15.754,13.184,27.787,14.774,8.9,1.168,21.086,6.075,29.733,2.2l7.294-12.169a18.757,18.757,0,0,1,2.25-3.029l3.216-3.571a4.1,4.1,0,0,1,5.533-.491,4.077,4.077,0,0,1,1.252,4.857l-3.689,6.042a1.573,1.573,0,0,0,1.659,2.352l15.365-3.181a3.609,3.609,0,0,1,4.316,2.285,3.549,3.549,0,0,1,.2,1.168,3.634,3.634,0,0,1-2.419,3.4l-11.694,3.012,16.771-.018A3.251,3.251,0,0,1,336.143,240.722Z" transform="translate(-11.351 -72.607)" fill="#b45551"/>
            <path id="Caminho_100" data-name="Caminho 100" d="M292.95,236.475a2.656,2.656,0,0,1,1.539,3.876,3.372,3.372,0,0,1-2.4,1.813,2.681,2.681,0,0,1-.795-.118L278.5,237.984l1.635-5.316Z" transform="translate(26.02 -60.677)" fill="#b45551"/>
            <path id="Caminho_101" data-name="Caminho 101" d="M274.353,418.841c3.927,5.077,3.554,8.411,2.708,10.188a3.672,3.672,0,0,1-1.591,1.692c-1.337-.813-2.605-1.726-3.909-2.539-1.624-1.032-3.418-1.776-5.026-2.809a90.37,90.37,0,0,1-8.951-6.685c-2.556-2.115-5.246-4.146-7.649-6.447-2.166-2.083-4.1-4.485-6.194-6.634-3.25-3.318-6.448-6.888-10.172-9.663-4.518-3.369-9.663-5.586-13.657-9.613a21.782,21.782,0,0,1-2.994-3.723c-.22-.338-.424-.71-.609-1.066,3.367-4.433,6.921-9.1,8.529-11.134a3.47,3.47,0,0,1,2.776-1.388c3.485.1,5.685,4.146,6.8,6.989a5.261,5.261,0,0,0,4.147,3.334,38.867,38.867,0,0,0,14.943-.813c.913-.237,1.4-.422,1.4-.422,3.909.779,5.212,16.838,5.212,16.838C262.863,408.011,274.353,418.841,274.353,418.841Z" transform="translate(-4.9 7.109)" fill="#fff"/>
            <path id="Caminho_102" data-name="Caminho 102" d="M277.234,426.562a3.734,3.734,0,0,1-1.286.44c-5.6.829-16.28-4.349-16.28-4.349-17.532-9.071-36.282-24.234-44.675-31.341a6.288,6.288,0,0,1-.948-8.613c1.2-1.575,2.589-3.419,4.027-5.315.186.356.389.728.609,1.066a21.783,21.783,0,0,0,2.994,3.723c3.994,4.027,9.139,6.245,13.657,9.613,3.723,2.774,6.921,6.345,10.172,9.663,2.1,2.148,4.027,4.551,6.194,6.634,2.4,2.3,5.093,4.331,7.649,6.447a90.364,90.364,0,0,0,8.951,6.685c1.608,1.033,3.4,1.777,5.026,2.809C274.629,424.836,275.9,425.749,277.234,426.562Z" transform="translate(-6.664 11.268)" fill="#9b9b9b"/>
            <path id="Caminho_103" data-name="Caminho 103" d="M297.5,339.82c-.558,11.458-2.421,22.9-3.638,34.286-.779,7.26-3.369,17.448-2.539,24.013,0,0-1.641,3-12.624,2.657a90.1,90.1,0,0,1-11.085-1.1,2.372,2.372,0,0,1-.642-.186c-2.843-1.27-1.506-7.581-2.37-11.068-1.71-6.887-3.249-13.859-4.4-20.866a108.86,108.86,0,0,1,.237-35.842c.018-.067.018-.135.034-.2s.016-.118.034-.186c-2.065-1.235-4.113-2.5-6.075-3.791a74.391,74.391,0,0,0-11.1-5.8,38.686,38.686,0,0,0-4.129-1.93c-.153-.049-.287-.084-.44-.118-1.133,13.893,2.437,27.516,1.743,41.41-.473,9.546-8.919,16.433-18.006,18.937-5.888,1.624-13.1,2.183-19.156,2.386-11.609.422-23.352.389-34.945.22-8.309-.118-17.126,1.082-25.282-.542-3.114-.626-10.188.322-11.643-2.065a1.768,1.768,0,0,1-.287-1c0-6.838-.609-22.8-.609-22.8,3.147-2.707,7.683-4.449,11.762-6.074.406-.153.779-.322,1.168-.475,16.076-6.5,37.568-8.935,55.387-3.74l.018-.051.033-.135q-.862-1.143-1.726-2.285c-1.912-2.5-3.842-5.044-5.5-7.718-2.556-4.146-4.756-8.409-7.5-12.471-4.162-6.194-10-11.66-14.621-17.566-5.262-6.736-10.1-14.739-11.321-23.387-.49-3.487-1.708-10.476-1.217-14.808a65.733,65.733,0,0,0,18.428,1.812c13.606-.373,27.194-3.842,41.037-5.162,2.3-.22,16.467-2.25,17.515.626-.1-.287-.22-.591-.3-.879,3.944.693,8.462,6.447,11.389,8.782,5.466,4.366,10.678,8.817,16.331,13.013,8.749,6.5,17.684,12.693,26.89,18.565,3.418,2.183,7.293,4.722,8.444,8.733C299.175,321.341,297.906,331.325,297.5,339.82Z" transform="translate(-47.523 -45.461)" fill="#03d06f"/>
            <path id="Caminho_104" data-name="Caminho 104" d="M245.113,362.825a109.01,109.01,0,0,0,4.638,19.122,38.868,38.868,0,0,1-14.943.813,5.261,5.261,0,0,1-4.147-3.334c-1.117-2.843-3.316-6.887-6.8-6.989l.54-10.288C229.7,363.569,238.176,365.075,245.113,362.825Z" transform="translate(-1.146 3.693)" fill="#b45551"/>
            <path id="Caminho_105" data-name="Caminho 105" d="M246.462,353.342c4.942,8.073,1.49,13.386,1.49,13.386-.44.169-.88.338-1.32.475-6.938,2.25-15.416.744-20.713-.677a51.674,51.674,0,0,1-5.11-1.626l1.3-10.187a2.372,2.372,0,0,0,.642.186C243.806,358.182,246.462,353.342,246.462,353.342Z" transform="translate(-2.663 -0.685)" fill="#048240"/>
            <path id="Caminho_106" data-name="Caminho 106" d="M263.441,232.233a45.582,45.582,0,0,1-9.477,5.77,42.227,42.227,0,0,1-19.58,3.893c-.253-.762-.491-1.49-.693-2.217q-.737,1.473-1.422,2.945c-1.082,2.285-2.047,4.6-2.927,6.972-7.565,20.629-8.106,44.271-.728,65.034.084.287.2.591.3.879-1.048-2.876-15.213-.846-17.515-.626-13.182,1.27-26.128,4.467-39.09,5.095a68.282,68.282,0,0,1-20.375-1.744c-1.642-.422-3.3-.913-4.942-1.488-.728-.254,7.26-41.038,7.784-44.574,2.674-18.379,4.706-36.96,4.926-55.558.017-.255.017-.526.017-.779-1.9.508-3.825.931-5.77,1.27-17.786-15.6-12.269-30.53-12.269-30.53,6.6-3.147,13.352-5.939,19.867-8.613,16.669-6.836,33.237-13.284,51-16.686l.118.524a13.667,13.667,0,0,0,2.623,5.653l-.067.067L218.6,178.08l4.738,14.909c3.2,7.26,6.837,7.82,9.443,6.854a6.709,6.709,0,0,0,4.129-5.026l3.758-18.006.322.069c8.291,8.14,13.724,18.665,17.244,29.632C260.92,214.938,261.817,223.653,263.441,232.233Z" transform="translate(-42.402 -96.169)" fill="#30a0fc"/>
            <path id="Caminho_107" data-name="Caminho 107" d="M225.8,165.1a68.782,68.782,0,0,1-2.928,13.979A86.831,86.831,0,0,0,219.9,189.99l-.322,1.506L215.817,209.5a6.712,6.712,0,0,1-4.129,5.026c-2.607.966-6.245.406-9.443-6.854l-4.738-14.909c7.784,3.047,17.226-6.3,17.226-6.3-8.951,2.37-14.6.525-18.023-1.912a11.765,11.765,0,0,1-2.5-2.419,13.667,13.667,0,0,1-2.623-5.653l-.118-.524-1.606-7.48c-6.483,0-6.5-4.857-6.5-4.857a5.773,5.773,0,0,1,4.484-6.617l-.338-8.731-.186-4.569c.524-1.117.744-2.539,1.659-3.605.626-.744,1.117-1.066,1.3-2.081a8.66,8.66,0,0,1,.558-2.86c.829-1.422,2.878-1.591,4.231-1.286a6.142,6.142,0,0,0,2.538.135c1.642-.373,2.268-1.9,4.113-1.557,2.488.457,4.569,1.71,7.141.88,2.15-.695,4.231-2.556,6.5-.982.575.424.93,1,1.657,1.2s1.4-.136,2.133-.136a2.2,2.2,0,0,1,2.081,1.084c1.133,1.877.287,4.451,1.539,6.143,1.406,1.9,3.47,2.843,3.825,5.448a29.919,29.919,0,0,1,0,4.08c0,.811-.255,2.132.1,2.876.371.8,1.286.695,2.081.8v-.034a4.69,4.69,0,0,1,4.18,5.077S232.841,165.1,225.8,165.1Zm-9.224-11.118a1.919,1.919,0,1,0-2.234-1.541A1.942,1.942,0,0,0,216.578,153.979Zm-18.716.3a1.927,1.927,0,1,0-2.234-1.556A1.947,1.947,0,0,0,197.862,154.283Z" transform="translate(-21.314 -110.855)" fill="#b45551"/>
            <path id="Caminho_108" data-name="Caminho 108" d="M227.8,126.543c6.126,2.336,5.128,8.546,4.873,14a99.161,99.161,0,0,1-3.012,20.205v.034c-.795-.1-1.71,0-2.081-.8-.356-.744-.1-2.065-.1-2.876a29.916,29.916,0,0,0,0-4.08c-.355-2.605-2.419-3.553-3.825-5.448-1.252-1.692-.406-4.265-1.539-6.143a2.2,2.2,0,0,0-2.081-1.084c-.729,0-1.406.338-2.133.136s-1.082-.779-1.657-1.2c-2.268-1.574-4.349.287-6.5.982-2.572.829-4.653-.424-7.141-.88-1.844-.338-2.47,1.184-4.113,1.557a6.141,6.141,0,0,1-2.538-.135c-1.353-.305-3.4-.136-4.231,1.286a8.659,8.659,0,0,0-.558,2.86c-.186,1.015-.677,1.337-1.3,2.081-.915,1.066-1.135,2.488-1.659,3.605l.186,4.569h-.151c-2.454-4.5-12.067-25.419-2.674-28.245,1.421-.422,2.725-.067,3.909-1.1,1.15-1,1.049-2.843,2.166-3.893,2.047-1.946,1.606.033,3.62.237,2.641.255,3.318-2.014,5.077-3.367,2.725-2.083,3.216-.66,5.466.677,2.166,1.27,2.421.642,4.84.186,2.572-.491,2.132.118,4.1,1.066,3.875,1.879,6.7-1.286,9.459,2.421C225.53,124.986,225.565,125.679,227.8,126.543Z" transform="translate(-22.194 -117.789)" fill="#0b0a1c"/>
            <path id="Caminho_109" data-name="Caminho 109" d="M207.817,145.624a1.916,1.916,0,0,1-1.541,2.234,1.919,1.919,0,0,1-.693-3.774A1.9,1.9,0,0,1,207.817,145.624Z" transform="translate(-11.013 -104.734)"/>
            <path id="Caminho_110" data-name="Caminho 110" d="M193.109,167.821c3.419,2.437,9.071,4.282,18.023,1.912,0,0-9.442,9.342-17.226,6.3l-3.369-10.559.067-.067A11.763,11.763,0,0,0,193.109,167.821Z" transform="translate(-17.712 -94.118)" fill="#0b0a1c"/>
            <path id="Caminho_111" data-name="Caminho 111" d="M195.333,145.815a1.927,1.927,0,1,1-2.25-1.541A1.947,1.947,0,0,1,195.333,145.815Z" transform="translate(-17.228 -104.637)"/>
            <path id="Caminho_112" data-name="Caminho 112" d="M186.5,208.7c-4.349.744-9.275.913-14.081,1.472-4.941.542-9.746,1.49-13.724,3.876a55.5,55.5,0,0,0-9.764,8.055q-16.906,16.221-33.9,32.407s-2.5,4.282-4.569,7.26l-6.854,12.235a3.425,3.425,0,0,1-6.414-1.675,2.8,2.8,0,0,1,.033-.524,26.353,26.353,0,0,1,3.047-9.308s-22.168,6.938-19.376-5.313l.2-.389c-2.792-1.439-4.586-4.078-3.705-8.8l.153-.186a5.84,5.84,0,0,1-2.132-4.959,13.938,13.938,0,0,1,.524-3.758,2.539,2.539,0,0,1,2.607-1.726,2.589,2.589,0,0,1,2.3,2.1v.051a5.656,5.656,0,0,0,6.736,4.384,23.231,23.231,0,0,0,4.551-1.355A20.17,20.17,0,0,1,96.08,241.3c3.351-.711,8.731-1.388,11.271.744a14.371,14.371,0,0,1,2.639-4.924c10.865-14.79,23.067-29.733,36.926-41.85a95.881,95.881,0,0,1,14.79-10.476c4.045-2.419,8.258-4.586,12.524-6.617C174.229,178.174,168.712,193.1,186.5,208.7Z" transform="translate(-74.949 -87.769)" fill="#b45551"/>
            <path id="Caminho_113" data-name="Caminho 113" d="M134.727,348.369a1.78,1.78,0,0,0,.287,1c-2.3,1.337-9.781-.389-9.781-.389-.169-.508-.322-1.033-.457-1.557-2.133-7.92-1.2-16.788-.644-20.578.186-1.2.322-1.9.322-1.9l9.663.626S134.727,341.532,134.727,348.369Z" transform="translate(-51.068 -14.801)" fill="#048240"/>
            <path id="Caminho_114" data-name="Caminho 114" d="M128.606,326.742l.693.1c-.558,3.791-1.49,12.658.644,20.578,0,0-4.384.44-12.795,4.873a38.789,38.789,0,0,1-4.078-14.4,5.25,5.25,0,0,1,2.352-4.771c2.523-1.726,5.974-4.756,5.3-8.174Z" transform="translate(-56.234 -14.801)" fill="#b45551"/>
            <path id="Caminho_115" data-name="Caminho 115" d="M134.649,327.7c.677,3.418-2.774,6.448-5.3,8.174A5.25,5.25,0,0,0,127,340.642a38.79,38.79,0,0,0,4.078,14.4c.44.829.728,1.27.728,1.27.1,3.994-15.28,8.8-15.28,8.8-12.134,5.55-20.173,19.14-20.173,19.14-4.078,4.959-7.412,5.313-9.324,4.891a3.791,3.791,0,0,1-2-1.151c.473-1.49,1.1-2.945,1.608-4.4.642-1.81.964-3.723,1.624-5.533a94.52,94.52,0,0,1,4.551-10.188c1.506-2.961,2.877-6.041,4.6-8.884,1.557-2.572,3.469-4.975,5.093-7.5,2.539-3.909,5.3-7.818,7.192-12.067,2.3-5.128,3.334-10.661,6.381-15.433a21.723,21.723,0,0,1,2.961-3.74c.269-.288.591-.558.9-.829,5.077,2.3,10.407,4.755,12.742,5.855A3.487,3.487,0,0,1,134.649,327.7Z" transform="translate(-70.164 -17.548)" fill="#fff"/>
            <path id="Caminho_116" data-name="Caminho 116" d="M120.44,320.525c-.305.271-.627.542-.9.829a21.724,21.724,0,0,0-2.961,3.74c-3.047,4.771-4.08,10.3-6.381,15.433-1.9,4.249-4.653,8.158-7.192,12.067-1.624,2.521-3.536,4.924-5.093,7.5-1.726,2.843-3.1,5.923-4.6,8.884a94.526,94.526,0,0,0-4.551,10.188c-.66,1.81-.982,3.723-1.624,5.533-.508,1.455-1.135,2.91-1.608,4.4a3.833,3.833,0,0,1-.728-1.184c-2.048-5.28.66-16.838.66-16.838,4.975-19.105,15.636-40.733,20.729-50.481a6.307,6.307,0,0,1,8.191-2.827C116.192,318.578,118.29,319.543,120.44,320.525Z" transform="translate(-70.66 -18.652)" fill="#9b9b9b"/>
            <path id="Caminho_117" data-name="Caminho 117" d="M188.876,143.444a5.894,5.894,0,0,1,1.529-2.557,7.09,7.09,0,0,1,2.559-1.672,6.111,6.111,0,0,1,3.069-.349,5.466,5.466,0,0,1,2.759,1.16c-1.015.058-1.907.018-2.776.16a9.72,9.72,0,0,0-2.463.612A21.254,21.254,0,0,0,188.876,143.444Z" transform="translate(-18.538 -107.343)"/>
            <path id="Caminho_118" data-name="Caminho 118" d="M203.05,138.841a6.409,6.409,0,0,1,2.991-.687,7.9,7.9,0,0,1,3.075.608,6.71,6.71,0,0,1,2.562,1.865,5.71,5.71,0,0,1,1.34,2.783,27.129,27.129,0,0,0-2.235-1.813,11.316,11.316,0,0,0-2.327-1.279A26.64,26.64,0,0,0,203.05,138.841Z" transform="translate(-11.492 -107.665)"/>
            <path id="Caminho_119" data-name="Caminho 119" d="M97.4,229.492a5.666,5.666,0,0,1-.808-5.227,14.97,14.97,0,0,1,2.568-4.7,55.725,55.725,0,0,1,6.887-7.745,55.583,55.583,0,0,1-5.527,8.751,22.4,22.4,0,0,0-2.689,4.138A6.709,6.709,0,0,0,97.4,229.492Z" transform="translate(-64.562 -71.04)"/>
            <path id="Caminho_120" data-name="Caminho 120" d="M196.347,151.243a9.027,9.027,0,0,0,5.2.952,14.187,14.187,0,0,0,2.6-.57c.864-.283,1.728-.612,2.644-.94-.323.359-.7.659-1.057,1a13.015,13.015,0,0,1-1.229.789,8.189,8.189,0,0,1-2.831.894,6.644,6.644,0,0,1-2.982-.365A4.839,4.839,0,0,1,196.347,151.243Z" transform="translate(-14.824 -101.435)"/>
            <path id="Caminho_121" data-name="Caminho 121" d="M193.793,156.325a14.764,14.764,0,0,0,4.189,3.653,9.186,9.186,0,0,0,5.143,1.187,13.933,13.933,0,0,0,5.14-1.663c.783-.491,1.585-.973,2.372-1.49.759-.555,1.5-1.145,2.3-1.687-.611.732-1.283,1.416-1.933,2.135-.717.638-1.479,1.244-2.259,1.826a12.4,12.4,0,0,1-5.53,2.051,9.049,9.049,0,0,1-5.713-1.584A10.932,10.932,0,0,1,193.793,156.325Z" transform="translate(-16.094 -98.631)"/>
            <path id="Caminho_122" data-name="Caminho 122" d="M95.311,234.627a23.742,23.742,0,0,1-6.285,1.226,19.838,19.838,0,0,1-6.495-.6,12.185,12.185,0,0,1-3.078-1.412,7.237,7.237,0,0,1-2.339-2.557,8.031,8.031,0,0,1-.183-6.477,9.734,9.734,0,0,0,1.316,5.8A8.481,8.481,0,0,0,83,233.633a28.113,28.113,0,0,0,6.016.9C91.086,234.63,93.182,234.677,95.311,234.627Z" transform="translate(-74.485 -64.583)"/>
            <path id="Caminho_123" data-name="Caminho 123" d="M94.115,231.022a26.248,26.248,0,0,1-13-.852,9.443,9.443,0,0,1-5.385-4.185,5.924,5.924,0,0,1-.581-3.425,12.792,12.792,0,0,1,.743-3.193,19.5,19.5,0,0,0,.087,3.2,5.6,5.6,0,0,0,.9,2.761,6.767,6.767,0,0,0,2.1,1.957,13.04,13.04,0,0,0,2.717,1.294,36.7,36.7,0,0,0,6.063,1.521C89.845,230.444,91.96,230.76,94.115,231.022Z" transform="translate(-75.101 -67.29)"/>
            <path id="Caminho_124" data-name="Caminho 124" d="M163.576,271.829c-.371,9.528,1.608,17.888,5.128,26.67,1.219,3.063,2.607,4.773,1.591,7.514a68.282,68.282,0,0,1-20.375-1.744c-1.642-.422-3.3-.913-4.942-1.488-.728-.254,7.26-41.038,7.784-44.574,2.674-18.379,4.706-36.96,4.926-55.558a31.9,31.9,0,0,1,5.348-2.386c3.909-1.421,7.969-2,11.321-4.518,1.523-1.151,2.5-2.437,4.095-3.283,1.71-.9,3.705-1.268,6.379-3.1a126.421,126.421,0,0,1-8.478,31.56c-2.927,7.058-6.718,13.928-9.443,21.069C163.407,251.184,163.932,262.167,163.576,271.829Z" transform="translate(-40.385 -82.205)" fill="#0663b7"/>
            <path id="Caminho_125" data-name="Caminho 125" d="M223.615,218.189a42.227,42.227,0,0,1-19.58,3.893c-.253-.762-.491-1.49-.693-2.217q-.737,1.473-1.422,2.945c.609-3.689,4.113-8.36,5.619-10.8,1.844-3,3.791-5.89,6.65-10.883a25.84,25.84,0,0,0,4.417,12.456C219.977,215.465,222.278,216.5,223.615,218.189Z" transform="translate(-12.053 -76.356)" fill="#0663b7"/>
            <path id="Caminho_126" data-name="Caminho 126" d="M199.964,231.535a71.152,71.152,0,0,1,7.766-17.916A133.115,133.115,0,0,1,218.883,197.6c-2.987,5.8-6.447,11.287-9.694,16.868C205.9,220.037,202.828,225.679,199.964,231.535Z" transform="translate(-13.026 -78.109)"/>
            <path id="Caminho_127" data-name="Caminho 127" d="M188.518,188.178c-1.568,1.27-3.216,2.431-4.864,3.6-1.683,1.112-3.388,2.2-5.132,3.22A76.83,76.83,0,0,1,167.6,200.3a59.659,59.659,0,0,1-11.688,3.334c-3.961.94-8.056.847-12.067,1.046,1.981-.412,3.963-.716,5.932-1.075.985-.171,1.984-.261,2.955-.485l2.9-.756a86.751,86.751,0,0,0,11.359-3.641c3.719-1.418,7.33-3.113,10.917-4.873C181.484,192.077,184.982,190.117,188.518,188.178Z" transform="translate(-40.925 -82.795)"/>
            <path id="Caminho_128" data-name="Caminho 128" d="M235.165,219.856c-.575.373-1.151.762-1.761,1.1-5.2,2.978-10.949,4.959-15.451,9.037a32.626,32.626,0,0,0-5.483,6.9,97.809,97.809,0,0,1-9.139-18.565,43.9,43.9,0,0,0,29.057-9.663,91.61,91.61,0,0,0,2.352,9.917C234.878,219.027,235.013,219.45,235.165,219.856Z" transform="translate(-11.351 -72.607)" fill="#8e302e"/>
            <path id="Caminho_129" data-name="Caminho 129" d="M157.842,208.7c-4.349.744-9.275.913-14.081,1.472-4.282-4.333-7.665-10.019-8.68-15.045-.609-3.029-1.524-6.667-2.032-10.339,4.045-2.419,8.258-4.586,12.524-6.617C145.573,178.174,140.056,193.1,157.842,208.7Z" transform="translate(-46.292 -87.769)" fill="#8e302e"/>
            <path id="Caminho_130" data-name="Caminho 130" d="M201.844,337.038c-.66,3.232-1.117,7.26-2.605,10.323a46.115,46.115,0,0,1-9.088-2.878l.033-.135c-2.419-3.232-5.059-6.516-7.225-10-2.556-4.146-4.756-8.409-7.5-12.471-4.162-6.194-10-11.66-14.621-17.566-5.262-6.736-10.1-14.739-11.321-23.387-.49-3.487-1.708-10.476-1.217-14.808a65.731,65.731,0,0,0,18.428,1.812c2.5,12.082,16.38,20.78,22.863,29.868,5.262,7.345,9.51,13.268,11.829,22.321A36.254,36.254,0,0,1,201.844,337.038Z" transform="translate(-38.766 -44.05)" fill="#05a052"/>
            <path id="Caminho_131" data-name="Caminho 131" d="M232.527,325.5c-2.674-1.3-5.246-2.792-7.818-4.333.016-.067.016-.118.034-.186-2.065-1.235-4.113-2.5-6.075-3.791a74.392,74.392,0,0,0-11.1-5.8,38.692,38.692,0,0,0-4.129-1.93,3.252,3.252,0,0,1-.542-1.015c-1.066-3.2.355-8.46,1.1-11.491.829-3.3,1.184-9.577,3.385-12.878.219,4.942,6.463,10.272,9.73,13.335,4.991,4.62,11.542,7.007,16.4,11.745C237.874,313.4,238.467,322.185,232.527,325.5Z" transform="translate(-11.759 -35.12)" fill="#05a052"/>
            <path id="Caminho_132" data-name="Caminho 132" d="M204.913,345.8c-.319-2.891-.641-5.77-1.049-8.645l-1.046-8.653a86.007,86.007,0,0,1-.38-17.517c.534-5.755.838-11.624,2.27-17.349a53.039,53.039,0,0,1,2.921-8.287c.594-1.332,1.213-2.659,1.928-3.937a8.35,8.35,0,0,1,2.759-3.354,4.665,4.665,0,0,0-1.38,1.633,18.981,18.981,0,0,0-.979,1.921c-.59,1.316-1.084,2.674-1.556,4.041a53.117,53.117,0,0,0-2.424,8.267c-1.1,5.629-1.356,11.411-1.854,17.207a108.791,108.791,0,0,0-.013,17.265l.576,8.686C204.816,339.987,204.974,342.894,204.913,345.8Z" transform="translate(-11.94 -38.11)"/>
            <path id="Caminho_133" data-name="Caminho 133" d="M236.109,378.05a90.082,90.082,0,0,1-11.085-1.1,2.368,2.368,0,0,1-.642-.186c-2.843-1.27-1.506-7.581-2.37-11.068-1.71-6.887-3.249-13.859-4.4-20.866a108.86,108.86,0,0,1,.237-35.842c2.556.473,5.382,2.725,7.667,4.044a62.323,62.323,0,0,0,.9,10.645,34.149,34.149,0,0,0,1.371,6.143c.575,1.557,1.337,2.894,1.759,4.485a24.694,24.694,0,0,1,.051,12.708c-.728,3.03-.153,6.6.085,9.748.371,5.466,2.876,10.306,4.28,15.485a47.432,47.432,0,0,0,2.032,5.5C236.023,377.846,236.074,377.948,236.109,378.05Z" transform="translate(-4.933 -22.735)" fill="#05a052"/>
            <path id="Caminho_134" data-name="Caminho 134" d="M234.464,318.415q-4.15-1.875-8.134-4.027c-2.681-1.379-5.243-3.023-7.832-4.593-2.49-1.654-5.062-3.117-7.715-4.524l-4.009-2.109a23.911,23.911,0,0,0-3.939-2.21,17.845,17.845,0,0,1,4.3,1.464c1.382.526,2.83,1.059,4.214,1.663a51.227,51.227,0,0,1,8.068,4.3L227,313.259Q230.818,315.7,234.464,318.415Z" transform="translate(-11.598 -26.731)"/>
            <path id="Caminho_135" data-name="Caminho 135" d="M203.768,330.326c-3.165-.389-6.261-1.861-9.511-2.065-5.093-.338-10.154-.287-15.263-.829-3.1-.32-6.143-.135-9.257-.151-6.312,0-12.607-.389-18.919-.457-3.1-.051-9.326.32-11.78-2.285a2.36,2.36,0,0,1-.608-.9c.406-.153.779-.322,1.168-.475,16.076-6.5,37.568-8.935,55.387-3.74l.018-.051.033-.135q-.862-1.143-1.726-2.285c1.455.626,2.843,1.3,4.2,2a26.26,26.26,0,0,1,6.7,5.146C205.646,325.605,207.323,330.75,203.768,330.326Z" transform="translate(-43.617 -18.943)" fill="#05a052"/>
            <path id="Caminho_136" data-name="Caminho 136" d="M198.509,326.724a72.251,72.251,0,0,0-17.5-6.9,128.811,128.811,0,0,0-18.629-3.126,54.928,54.928,0,0,1,19.053,1.49,48.837,48.837,0,0,1,9.047,3.289A36.415,36.415,0,0,1,198.509,326.724Z" transform="translate(-31.708 -19.031)"/>
          </g>
          <g id="Grupo_9" data-name="Grupo 9" transform="translate(184.308)">
            <path id="Caminho_137" data-name="Caminho 137" d="M385.437,355.868c-5.23,9-17.922,9.832-27.11,10.983a308.98,308.98,0,0,1-43.3,2.723l-.22-.016c.355-3.418.591-7.107.728-10.916.067-2.047.118-4.111.135-6.21l7.176-3.824c11.609-6.7,20.1-10.645,22.354-11.643.389-.187.593-.271.593-.271a279.646,279.646,0,0,1-18.006-24.1c-2.419-3.605-4.738-7.243-6.972-10.949A32.178,32.178,0,0,0,332.4,299.6c2.878-1.219,3.385-4.451,6.228-5.737,3.842-1.743,10.492-.811,14.434.085,2.539.575,5.23,1.488,7.463.067q2.971,5.558,5.906,11.118,7.97,14.952,15.891,29.9c1.879,3.5,3.756,7.091,4.484,11.05A14.475,14.475,0,0,1,385.437,355.868Z" transform="translate(-140.242 41.292)" fill="#ffcd7d"/>
            <path id="Caminho_138" data-name="Caminho 138" d="M382.874,317.955a5.267,5.267,0,0,1-1.168,1c-2.234,1.421-4.924.508-7.463-.067-3.942-.9-10.592-1.828-14.434-.085-2.843,1.286-3.351,4.518-6.228,5.737a32.179,32.179,0,0,1-11.592,2.048c-2.758.084-5.517-.018-8.055-.136-.829-.033-1.624-.067-2.4-.1-9.273-.422-19.478,2.692-28.227-.389-1.184-.406-1.93-.828-2.572-.964-.813-.186-1.49.069-2.641,1.27-2.2,2.25-1.573,2.91-5.33,3.4-1.675.22-3.487.508-5.364.813-5.095.811-10.61,1.641-15.163,1-.355-4.3,2.014-8.951,3.605-12.828,5.313-12.979,9.764-26.3,14.232-39.6,2.183-6.5,4.078-13.235,6.683-19.58.491-1.186,4.706-11.66,5.653-11.509,2.538.424,5.11,1.186,7.767,1.761,6.059,1.321,11.795,2.674,18.006,2.572,8.022-.118,15.043-.981,22.523-4.027a49.425,49.425,0,0,0,6.11-3.267,28.106,28.106,0,0,1,4.484-2.285c.508.458-.169,2.133,0,3.554a233.2,233.2,0,0,0,6.838,37.2C371.588,295.854,376.9,306.65,382.874,317.955Z" transform="translate(-161.423 16.353)" fill="#0275f2"/>
            <path id="Caminho_139" data-name="Caminho 139" d="M362.838,239.239c-.034,2.589-.034,7.835.22,13.859.355,7.8,1.184,16.907,3.063,23.236h-.016c-12.558,8.073-29.953,8.038-42.29,6.617a108.562,108.562,0,0,1-15.063-2.776,145.441,145.441,0,0,0-11.489-37.637,174.569,174.569,0,0,0-14.013-25.468c-.422-.627-.8-1.253-1.184-1.9q-1.853-3.225-3.842-6.55c-6.363-10.61-13.622-21.8-20.391-31.882,13.588-4.62,16.229-12.473,16.229-12.473l12.86,18.8c2.894,3.452,5.822,4.349,8.156,4.3.762.746,23.117,22.406,40.04,1.355a39.871,39.871,0,0,0,3.52,5.008c4.435,5.4,11.187,12.9,17.244,16.4a.018.018,0,0,0,.018.018,51.786,51.786,0,0,0,5.042,5.719c4.164,4.062,8.309,9.764,6.634,15.247a14.242,14.242,0,0,1-4.7,6.414S362.855,238.139,362.838,239.239Z" transform="translate(-168.564 -22.646)" fill="#ff2c45"/>
            <path id="Caminho_140" data-name="Caminho 140" d="M349.212,239.122a19.257,19.257,0,0,0,2.319,5.381c-3.469,1.3-6.921,4.062-10.594,5.551-7.48,3.047-14.5,3.909-22.525,4.027-6.21.1-11.947-1.252-18.006-2.572-2.656-.575-5.228-1.337-7.767-1.761-.186-2.283-.457-4.551-.8-6.785,0,0,35.791,10.017,57.351-3.842Z" transform="translate(-151.656 14.566)" fill="#fff"/>
            <path id="Caminho_141" data-name="Caminho 141" d="M328.4,146.4a13.079,13.079,0,0,1,1.981,11.474s8.715,7.615,4.213,18.157c0,0,1.642,9.189-3.418,13.624a8.633,8.633,0,0,1-3.165,1.81s.271,12.371-9.628,13.182h-.018c-.389-.761-.728-1.523-1.05-2.318-.457-1.049-.862-2.132-1.219-3.216-.237-.693-.439-1.388-.626-2.1-.913-3.385-1.4-5.957-1.4-5.957a15.442,15.442,0,0,0,1.371-1.4,17.155,17.155,0,0,0,3.891-9.511c.813-7.6,1.422-24.436-7.918-29.817,0,0-13.149-1.608-17.482-11.389a23.1,23.1,0,0,0-5.55-4.231s6.65-12.3,17.177-6.8a14.168,14.168,0,0,1,1.523.9s13.335-2.725,14.892,11.271a24.066,24.066,0,0,1,6.43,6.312Z" transform="translate(-153.381 -41.429)" fill="#f98800"/>
            <path id="Caminho_142" data-name="Caminho 142" d="M330.736,207.94c-6.059-3.5-12.811-11-17.246-16.4a39.869,39.869,0,0,1-3.52-5.008,27.591,27.591,0,0,1-1.556-2.861c9.9-.811,9.628-13.182,9.628-13.182a8.633,8.633,0,0,0,3.165-1.81l.084.1s-.118.525-.271,1.457A49.3,49.3,0,0,0,330.736,207.94Z" transform="translate(-143.418 -20.454)" fill="#ce0f2f"/>
            <path id="Caminho_143" data-name="Caminho 143" d="M359.487,350.067c-.051,6.008-.3,11.88-.862,17.126a74.164,74.164,0,0,1-1.726,10.237,23.514,23.514,0,0,1-5.2,9.731,18.146,18.146,0,0,1-20.662,4.738L228.268,350.169l-1.184-.491s-4.435-9.815,15.2-13.284l13.131,2.368a125.409,125.409,0,0,0,18.7,1.455,90.894,90.894,0,0,1,21.237,2.692,134.444,134.444,0,0,1,29.379,10.914c-.051-.422-.1-.846-.169-1.268-1.93-14.774-4.5-28.533-6.448-37.908-1.573-7.582-2.707-12.286-2.707-12.286,3.756-.491,3.13-1.151,5.33-3.4,1.151-1.2,1.828-1.455,2.641-1.27.642.136,1.388.558,2.572.964,8.749,3.081,18.954-.033,28.227.389.778.034,1.573.069,2.4.1,0,0,.542,4.62,1.151,11.762C358.59,320.943,359.6,335.937,359.487,350.067Z" transform="translate(-184.065 43.657)" fill="#ffcd7d"/>
            <path id="Caminho_144" data-name="Caminho 144" d="M328.837,174.628a24.066,24.066,0,0,0-6.43-6.312c-1.557-14-14.892-11.27-14.892-11.27a14.175,14.175,0,0,0-1.524-.9,37.516,37.516,0,0,1,.287-3.927,27.557,27.557,0,0,0,.22-2.91c.018-.253.018-.508.018-.761.1-8.124-.118-33.457-6.194-49.584a9.481,9.481,0,0,0-3.791-4.655,16.721,16.721,0,0,1-3.318-2.69c-.253-.287-.491-.575-.761-.829l-4.282-3.807a2.067,2.067,0,0,1,1.37-3.605,2.02,2.02,0,0,1,1.286.458l4.706,3.74a.681.681,0,0,0,1.082-.677l-4.264-11.847a1.691,1.691,0,0,1,1.27-2,1.85,1.85,0,0,1,.422-.051,1.688,1.688,0,0,1,1.608,1.168l5.4,12.016-2.065-13.928a2.254,2.254,0,0,1,2.1-2.589h.1a2.264,2.264,0,0,1,2.234,1.827l2.421,12.236a.346.346,0,0,0,.677.016l1.708-6.108a2.12,2.12,0,0,1,4.164.558,1.93,1.93,0,0,1-.051.44l-1.353,6.565a15.2,15.2,0,0,0,.287,7.243l1.219,4.113L324.182,144.9q.865,3.6,1.608,7.26A182.829,182.829,0,0,1,328.837,174.628Z" transform="translate(-153.82 -69.674)" fill="#ffcd7d"/>
            <path id="Caminho_145" data-name="Caminho 145" d="M316.014,146.193c9.341,5.381,8.731,22.219,7.918,29.817a17.155,17.155,0,0,1-3.891,9.511,15.451,15.451,0,0,1-1.371,1.4c-9.171,8.478-23.929,3.029-24.571,2.792l-.018-.016-4.975.169-.591-17.939c-9.41,3.707-9.41-4.011-9.41-4.011,0-6.346,5.855-5.719,5.855-5.719,13.944-10.392,13.572-27.4,13.572-27.4C302.865,144.585,316.014,146.193,316.014,146.193Zm-6.2,40.293c10.223-.964,8.309-15.214,8.309-15.214-8,10.29-20.069,3.03-20.069,3.03C299.8,188.432,309.819,186.485,309.819,186.485Zm5.162-23.32a1.749,1.749,0,0,0,1.455-2.014,1.758,1.758,0,0,0-3.469.575A1.743,1.743,0,0,0,314.981,163.166Zm-16.635,2.792a1.76,1.76,0,0,0,1.439-2.014,1.75,1.75,0,1,0-3.452.575A1.758,1.758,0,0,0,298.346,165.958Z" transform="translate(-157.989 -37.295)" fill="#ffcd7d"/>
            <path id="Caminho_146" data-name="Caminho 146" d="M321.194,179.464a27.583,27.583,0,0,0,1.556,2.861c-16.922,21.051-39.278-.609-40.038-1.355a9.2,9.2,0,0,0,4.941-1.657s20.274,16.973,32.458-2.166h.016c.322.795.66,1.557,1.05,2.318Z" transform="translate(-156.196 -16.245)" fill="#fff"/>
            <path id="Caminho_147" data-name="Caminho 147" d="M318.6,179.967h-.017c-12.184,19.14-32.458,2.166-32.458,2.166l-.338-10.492,4.975-.169.018.016c.54.609,12.065,13,26.6,5.262C317.736,177.835,318.141,178.917,318.6,179.967Z" transform="translate(-154.668 -19.066)" fill="#ffcd7d"/>
            <path id="Caminho_148" data-name="Caminho 148" d="M315.1,175.575c.187.71.389,1.4.626,2.1-14.536,7.734-26.061-4.653-26.6-5.262.642.237,15.4,5.686,24.571-2.792C313.691,169.618,314.182,172.19,315.1,175.575Z" transform="translate(-153.01 -19.987)" fill="#0b0a1c"/>
            <path id="Caminho_149" data-name="Caminho 149" d="M311.834,159.162s1.913,14.25-8.309,15.214c0,0-10.017,1.946-11.76-12.184C291.765,162.192,303.83,169.452,311.834,159.162Z" transform="translate(-151.695 -25.185)" fill="#fff"/>
            <path id="Caminho_150" data-name="Caminho 150" d="M305.2,152.888a1.758,1.758,0,0,1-3.469.575,1.758,1.758,0,0,1,3.469-.575Z" transform="translate(-146.752 -29.031)"/>
            <path id="Caminho_151" data-name="Caminho 151" d="M294.073,154.755a1.75,1.75,0,1,1-3.452.575,1.75,1.75,0,1,1,3.452-.575Z" transform="translate(-152.277 -28.105)"/>
            <path id="Caminho_152" data-name="Caminho 152" d="M292.376,203.947c-2.336.051-5.264-.846-8.156-4.3l-12.862-18.8-8.089-11.811.067-.051a17.551,17.551,0,0,1,9.85-16.229c-.864-14.841,13.792-16.025,13.792-16.025,4.129-7.329,9.748-6.432,13.877-4.231a23.1,23.1,0,0,1,5.55,4.231s.373,17.006-13.572,27.4c0,0-5.855-.627-5.855,5.719,0,0,0,7.718,9.41,4.011l.591,17.939.338,10.492A9.2,9.2,0,0,1,292.376,203.947Z" transform="translate(-165.862 -39.222)" fill="#f98800"/>
            <path id="Caminho_153" data-name="Caminho 153" d="M286.4,214.278a174.777,174.777,0,0,1,14.012,25.468H300.4a7.6,7.6,0,0,1-9.681-1.1c-23.32,10.745-23.54-10.121-23.54-10.121-28.278-10.729-9.7-34.827-9.7-34.827-12.387-14.6.762-23.811.762-23.811q1.345,2.005,2.741,4.062c8.174,12.184,17.075,25.977,24.233,38.432C285.607,213.025,285.98,213.651,286.4,214.278Z" transform="translate(-171.718 -19.853)" fill="#f98800"/>
            <path id="Caminho_154" data-name="Caminho 154" d="M293.708,204.746s-2.641,7.853-16.229,12.473q-1.4-2.057-2.741-4.062c-1.506-2.217-2.979-4.366-4.4-6.43-1.033-1.523-2.048-2.979-3.029-4.384a183.15,183.15,0,0,1-21.882-42.561l-16.753-46.825-1.252-4.095a15.027,15.027,0,0,0-3.741-6.212l-4.738-4.738a2.088,2.088,0,0,1-.626-1.506,2.191,2.191,0,0,1,.44-1.286,2.1,2.1,0,0,1,3.063-.3l4.789,4.164a.358.358,0,0,0,.575-.391l-4.7-11.558a2.244,2.244,0,0,1,4.113-1.794l5.939,12.777L230.434,85a1.919,1.919,0,0,1-.051-.44,1.686,1.686,0,0,1,1.133-1.608,1.713,1.713,0,0,1,2.166.982l2.945,12.235a.675.675,0,0,0,1.268-.034l1.879-5.7a2.057,2.057,0,0,1,3.943,1.168l-1.473,5.533a6.21,6.21,0,0,0-.186,1.117,16.3,16.3,0,0,1-1.3,4.08,9.733,9.733,0,0,0-.627,5.956c3.809,16.822,17.533,38.11,22.068,44.846a28.844,28.844,0,0,0,2.217,2.928c5.228,5.939,11.913,20.307,14.536,26.212a33.594,33.594,0,0,0,2.86,5.111l3.809,5.551,2.2,3.214Z" transform="translate(-188.21 -63.121)" fill="#ffcd7d"/>
            <path id="Caminho_155" data-name="Caminho 155" d="M252.157,312.327c5.533,6.956,4.264,17.448,4.264,17.448-19.629,3.469-15.2,13.284-15.2,13.284l1.184.491c-2.216,2.217-11.2,2.148-13.419,2.081-.389,0-.762,0-1.151.018l-21.846.744c-6.55.542-7.785-4.384-7.785-4.384,8.427-8.411,40.429-25.806,49.431-30.63A3.584,3.584,0,0,1,252.157,312.327Z" transform="translate(-198.207 50.276)" fill="#ff2c45"/>
            <path id="Caminho_156" data-name="Caminho 156" d="M286.723,154.084a6.116,6.116,0,0,1,1.571-2.472,7.475,7.475,0,0,1,2.5-1.645,6.167,6.167,0,0,1,3.018-.388,5.1,5.1,0,0,1,2.723,1.154,21.145,21.145,0,0,0-2.72.166,10.222,10.222,0,0,0-2.412.645A28.851,28.851,0,0,0,286.723,154.084Z" transform="translate(-154.202 -29.973)" fill="#f98800"/>
            <path id="Caminho_157" data-name="Caminho 157" d="M299.62,149.816A6.6,6.6,0,0,1,301.8,148a8.4,8.4,0,0,1,2.72-.924,6.822,6.822,0,0,1,2.934.235,4.584,4.584,0,0,1,2.337,1.7,15.486,15.486,0,0,0-2.593-.409,14.953,14.953,0,0,0-2.44.144C303.116,148.985,301.491,149.449,299.62,149.816Z" transform="translate(-147.79 -31.221)" fill="#f98800"/>
            <path id="Caminho_158" data-name="Caminho 158" d="M297.541,158.545a34.5,34.5,0,0,0,3.527-.067,6.152,6.152,0,0,0,1.5-.335c.529-.157,1.029-.449,1.7-.732a2.958,2.958,0,0,1-1,1.85,3.581,3.581,0,0,1-2.012.9,4.267,4.267,0,0,1-2.112-.319A3.5,3.5,0,0,1,297.541,158.545Z" transform="translate(-148.824 -26.056)"/>
            <path id="Caminho_159" data-name="Caminho 159" d="M295.509,158.275c.219,1.027-1.112,2.181-2.973,2.577s-3.545-.117-3.764-1.144,1.112-2.181,2.973-2.577S295.29,157.248,295.509,158.275Z" transform="translate(-153.195 -26.261)" fill="#e5a548"/>
            <path id="Caminho_160" data-name="Caminho 160" d="M310.7,155.874c.022,1.051-1.5,1.934-3.4,1.973s-3.46-.779-3.482-1.828,1.5-1.933,3.4-1.973S310.679,154.824,310.7,155.874Z" transform="translate(-145.704 -27.73)" fill="#e5a548"/>
            <path id="Caminho_161" data-name="Caminho 161" d="M327.106,299.146s.542,4.62,1.151,11.762c-1.422.016-2.861.051-4.265.1-6.82.287-13.859.085-20.7.642a90.536,90.536,0,0,0-14.656,3c-1.573-7.582-2.707-12.286-2.707-12.286,3.756-.491,3.13-1.151,5.33-3.4,1.151-1.2,1.828-1.455,2.641-1.27.642.136,1.388.558,2.572.964,8.749,3.081,18.954-.033,28.227.389C325.482,299.079,326.277,299.113,327.106,299.146Z" transform="translate(-154.594 43.657)" fill="#d8983d"/>
            <path id="Caminho_162" data-name="Caminho 162" d="M364.438,305.132c-.406.153-.8.305-1.184.424-10.661,3.4-22.1,3.418-32.915,6.176a41.5,41.5,0,0,1-4.553.864c-2.419-3.605-4.739-7.243-6.972-10.949a32.178,32.178,0,0,0,11.592-2.048c2.878-1.219,3.385-4.451,6.228-5.737,3.842-1.743,10.492-.811,14.434.085,2.539.575,5.23,1.488,7.463.067Q361.5,299.573,364.438,305.132Z" transform="translate(-138.248 41.292)" fill="#d8983d"/>
            <path id="Caminho_163" data-name="Caminho 163" d="M338.488,336.1c-4.449,2.64-9.341,3.773-14.214,5.466-2.1.728-6.212,3.045-8.986,2.436.067-2.047.118-4.111.135-6.21l7.176-3.824c11.609-6.7,20.1-10.645,22.354-11.643a9.183,9.183,0,0,1,3.47,3.283C351.688,331.075,342.076,333.969,338.488,336.1Z" transform="translate(-140.001 55.931)" fill="#d8983d"/>
            <path id="Caminho_164" data-name="Caminho 164" d="M326.589,310.589c4.445,5.1,8.643,10.33,12.938,15.494,2.133,2.593,4.4,5.069,6.514,7.683q3.225,3.874,6.221,7.983-3.714-3.432-7.21-7.107c-2.325-2.449-4.662-4.894-6.83-7.483A122.346,122.346,0,0,1,326.589,310.589Z" transform="translate(-134.382 50.096)"/>
            <path id="Caminho_165" data-name="Caminho 165" d="M317.565,320.122c.241,2.383.374,4.776.564,7.168l.388,7.188a124.963,124.963,0,0,1-.009,14.406,90.942,90.942,0,0,1-1.8,14.34,29.958,29.958,0,0,1-2.267,6.924,22.505,22.505,0,0,1-4.265,5.836,26.682,26.682,0,0,0,5.253-13.006,138.407,138.407,0,0,0,1.388-14.187c.266-4.756.419-9.528.4-14.307l.084-7.173C317.394,324.917,317.426,322.523,317.565,320.122Z" transform="translate(-142.541 54.835)"/>
            <path id="Caminho_166" data-name="Caminho 166" d="M301.511,346.559c-1.1.135-3.047-1.388-3.978-1.913-2.809-1.557-5.381-3.367-8.106-5.077-3.807-2.368-7.614-4.789-11.423-7.192a18.912,18.912,0,0,1-5.466-4.5,134.445,134.445,0,0,1,29.379,10.914c-.051-.422-.1-.846-.169-1.268a9.768,9.768,0,0,1,.795,2.336C302.932,341.753,303.575,346.3,301.511,346.559Z" transform="translate(-161.254 58.69)" fill="#d8983d"/>
            <path id="Caminho_167" data-name="Caminho 167" d="M289.429,317.686c1.7,6.581,2.9,13.275,3.978,19.981l.743,5.039c.234,1.68.334,3.382.461,5.077q.388,5.084.448,10.187-1.044-5.012-1.759-10.034c-.437-3.355-1.021-6.691-1.568-10.032C290.714,331.21,289.821,324.5,289.429,317.686Z" transform="translate(-152.856 53.624)"/>
            <path id="Caminho_168" data-name="Caminho 168" d="M356.287,238.907c-3.807-1.386-7.767-2.774-11.982-2.234-2.639.34-5.144,2.115-7.614,3.318A49.074,49.074,0,0,1,324,244.018c-3.452.626-8.377-.253-11.491,1.371-2.487,1.286-2.556,5.228-1.777,8.105,1.253,4.586,3.5,8.782,5.28,13.149.186.457.593,1.235,1.033,2.116a108.558,108.558,0,0,1-15.063-2.776,145.44,145.44,0,0,0-11.489-37.637,174.575,174.575,0,0,0-14.013-25.468c-.422-.627-.8-1.253-1.184-1.9q-1.853-3.225-3.842-6.55c6.532.389,13.437-3.012,19.5-.948,4.755,1.624,5.533,9.646,6.328,13.911a101.459,101.459,0,0,0,2.454,11.845c.948,3.114,1.184,6.854,2.827,9.713,3.893,6.719,11.423,6.87,18.039,5.821,4.553-.71,7.26-1.945,11.338-3.789,2.674-1.219,4.824-3.148,7.361-4.756,4.891-3.114,11.492,1.184,16.805-2.894C356.067,225.928,356.033,232.882,356.287,238.907Z" transform="translate(-161.793 -8.454)" fill="#ce0f2f"/>
            <path id="Caminho_169" data-name="Caminho 169" d="M325.723,194.915c1.359,1.481,2.72,2.939,4.2,4.277a53.767,53.767,0,0,1,4.3,4.268,20.432,20.432,0,0,1,3.358,5.207,11.409,11.409,0,0,1,.9,6.319,10.484,10.484,0,0,1-.455,1.609,15.477,15.477,0,0,1-2.454,4.056,11.8,11.8,0,0,1-5.167,3.622,12.6,12.6,0,0,1-6.2.4,19.641,19.641,0,0,1-5.676-2.141c3.74,1.32,7.894,2.03,11.413.525a11.353,11.353,0,0,0,4.394-3.424,11.943,11.943,0,0,0,2.478-4.939,9.99,9.99,0,0,0-.713-5.42,22.523,22.523,0,0,0-2.891-5,56.21,56.21,0,0,0-3.887-4.509A42.342,42.342,0,0,1,325.723,194.915Z" transform="translate(-138.388 -7.411)"/>
            <path id="Caminho_170" data-name="Caminho 170" d="M291.314,210.683a25.3,25.3,0,0,0,.9,5.843,16.746,16.746,0,0,0,2.354,5.242,11.182,11.182,0,0,0,4.152,3.653l1.271.564a7.689,7.689,0,0,0,1.346.376c.458.1.9.25,1.37.3l1.419.091a13.123,13.123,0,0,0,2.857-.031l1.439-.1,1.425-.231a30.66,30.66,0,0,0,5.569-1.63,40.244,40.244,0,0,0,5.279-2.62c1.773-.913,3.515-1.877,5.315-2.747-3.27,2.292-6.388,4.753-10.07,6.559a25.926,25.926,0,0,1-5.774,2.008,17.389,17.389,0,0,1-3.051.409,14.43,14.43,0,0,1-3.095.07l-1.557-.126c-.518-.067-1.026-.24-1.536-.356a11.312,11.312,0,0,1-2.955-1.129,11.655,11.655,0,0,1-4.491-4.361A18.64,18.64,0,0,1,291.314,210.683Z" transform="translate(-152.006 0.428)"/>
            <path id="Caminho_171" data-name="Caminho 171" d="M356.661,247.56c-.609,3.08-4.7,72.836-6.288,77.269-1.577-20.262-2.526-41.3-6.384-61.257a8.339,8.339,0,0,0-1.792-4.36,5.917,5.917,0,0,0-5.078-1.416c-5.02.717-8.54,5.466-10.116,10.284-2.283,6.978-3.291,14.657-4.626,21.872-1.388,7.5-4.655,28.965-5.5,36.462-3.619-17.752-.63-36.882-6.811-54.05a3.993,3.993,0,0,0-1.543-2.285c-2.3-1.28-3.247,2.9-3.574,4.253-3.053,12.615-7.068,24.862-10.392,37.4-1.574,5.941-3.452,12.811-7.158,17.99-5.095.811-10.61,1.641-15.163,1-.355-4.3,2.014-8.951,3.605-12.828,5.313-12.979,9.764-26.3,14.232-39.6,2.183-6.5,4.078-13.235,6.683-19.58.491-1.186,4.706-11.66,5.653-11.509,2.538.424,5.11,1.186,7.767,1.761,6.059,1.32,11.795,2.674,18.006,2.572,8.022-.118,15.043-.981,22.523-4.027a49.437,49.437,0,0,0,6.11-3.267A6.687,6.687,0,0,1,356.661,247.56Z" transform="translate(-161.423 17.112)" fill="#0663b7"/>
            <path id="Caminho_172" data-name="Caminho 172" d="M297.941,262.848a23.637,23.637,0,0,0-1.6,4.735c-.37,1.623-.671,3.256-.885,4.9s-.328,3.306-.409,4.962-.106,3.319-.088,4.979v.055l0,.015c-.437,5.432-.9,10.859-1.512,16.274-.29,2.71-.662,5.411-.988,8.116q-.523,4.056-1.195,8.1.047-4.1.251-8.182c.156-2.72.268-5.445.46-8.162.353-5.438.855-10.863,1.38-16.286l0,.072c.042-1.7.121-3.393.274-5.083.2-1.687.421-3.372.771-5.035a32.544,32.544,0,0,1,1.329-4.911A19.176,19.176,0,0,1,297.941,262.848Z" transform="translate(-151.948 26.362)"/>
            <path id="Caminho_173" data-name="Caminho 173" d="M333.424,309.214c-.569-1.924-1.031-3.869-1.551-5.8l-1.379-5.839c-.888-3.9-1.765-7.8-2.425-11.744-.587-3.954-1.171-7.908-1.626-11.881l-.677-5.962c-.165-2-.386-3.982-.5-5.986.492,1.945.876,3.9,1.318,5.857l1.142,5.881c.756,3.92,1.385,7.862,2.008,11.8s1.451,7.846,2.035,11.8l.913,5.921C332.929,305.244,333.23,307.218,333.424,309.214Z" transform="translate(-135.039 25.94)"/>
            <path id="Caminho_174" data-name="Caminho 174" d="M276.433,167.126s-2.641,7.853-16.229,12.473q-1.4-2.057-2.741-4.062c-1.506-2.217-2.979-4.366-4.4-6.43.338-.085.677-.169,1.015-.271a35.446,35.446,0,0,0,10.374-5.4,49.861,49.861,0,0,0,6.092-4.908Z" transform="translate(-170.936 -25.5)" fill="#d8983d"/>
            <path id="Caminho_175" data-name="Caminho 175" d="M322.693,148.191a24.066,24.066,0,0,0-6.43-6.312c-1.557-14-14.892-11.27-14.892-11.27a14.177,14.177,0,0,0-1.524-.9,37.524,37.524,0,0,1,.287-3.927,27.549,27.549,0,0,0,.22-2.91c2.861-.118,6.008.255,8.038.305a24.049,24.049,0,0,1,5.484.779c1.979.524,3.909,1.1,5.77,1.759A182.829,182.829,0,0,1,322.693,148.191Z" transform="translate(-147.677 -43.237)" fill="#d8983d"/>
          </g>
          <g id="Grupo_10" data-name="Grupo 10" transform="translate(350.274 59.054)">
            <path id="Caminho_176" data-name="Caminho 176" d="M522.66,227.173a8.414,8.414,0,0,1-.744,3.5l-4.247,9.375a2.823,2.823,0,0,1-5.4-1.168,2.568,2.568,0,0,1,.085-.711l1.675-6.346a2.892,2.892,0,0,0,3.351-2.843,2.9,2.9,0,0,0-1.286-2.4l-3.74-2.521-5.179-4.113,1.675-4.146.626.255,7.938,3.265a8.526,8.526,0,0,1,4.449,4.247A8.4,8.4,0,0,1,522.66,227.173Z" transform="translate(-210.57 -56.082)" fill="#f8ba81"/>
            <path id="Caminho_177" data-name="Caminho 177" d="M517.085,383.586c1.759,9,4.264,28.8-4.282,41.291a3.5,3.5,0,0,1-4.146,1.355c2.741-10.7,4.688-21.171,4.129-32.493-.407-7.953-2.91-15.636-2.708-23.674.1-4.2.711-8.36,1.084-12.54.033-.355.1-.8.186-1.27l3.52.305s2.454,3.587,1.608,17.024A39.577,39.577,0,0,0,517.085,383.586Z" transform="translate(-209.834 13.745)" fill="#fff"/>
            <path id="Caminho_178" data-name="Caminho 178" d="M520.638,394.229c.558,11.321-1.388,21.8-4.129,32.493l-.305-.153c-.964-.558-1.759-1.675-1.759-3.825,0,0-6.736-17.024-10.865-22.625-1.133-1.54-2.132-3.2-3.114-4.857l-7.6-12.98a13.019,13.019,0,0,1,4.264-3.689,11.947,11.947,0,0,0,6.025-8.326c.677-3.452.778-8.309-.626-14.994l16.669,1.472c-.085.475-.153.915-.186,1.27-.373,4.18-.982,8.344-1.084,12.54C517.727,378.593,520.23,386.276,520.638,394.229Z" transform="translate(-217.684 13.256)" fill="#030d16"/>
            <path id="Caminho_179" data-name="Caminho 179" d="M513.657,226.235l-1.472,6.6A5.929,5.929,0,0,1,507.4,237.4a6.607,6.607,0,0,1-1,.084,6.007,6.007,0,0,1-3.554-1.166l-1.437-1.068a2.658,2.658,0,0,1,1.59-4.788,2.782,2.782,0,0,1,.964.186l.609.237a1.981,1.981,0,0,0,2.623-1.235l1.964-6.041,3.113,1.946Z" transform="translate(-213.971 -52.199)" fill="#dd9357"/>
            <path id="Caminho_180" data-name="Caminho 180" d="M506.915,222.131l1.166.728c-.017,2.048-2.385,5.009-2.385,5.009-2.183,2.183-5.128,1.421-6.972.575a1.826,1.826,0,0,1-.8-2.607l.085-.135a1.914,1.914,0,0,1,1.659-.846c2.1-.051,2-2.47,2-2.47A24.614,24.614,0,0,0,506.915,222.131Z" transform="translate(-215.3 -52.935)" fill="#dd9357"/>
            <path id="Caminho_181" data-name="Caminho 181" d="M504.525,355.526c1.4,6.685,1.3,11.541.626,14.994a11.947,11.947,0,0,1-6.025,8.326,13.019,13.019,0,0,0-4.264,3.689l-6.008-2.945,7.058-24.826Z" transform="translate(-219.679 13.003)" fill="#f8ba81"/>
            <path id="Caminho_182" data-name="Caminho 182" d="M536.013,396.741l-7.057,24.826c-25.6-21.441-65.644-40.733-84.867-49.364a38.349,38.349,0,0,1-19.427-19.529c-4.18-9.459-8.411-21.355-11.525-30.663-2.978-8.817-4.942-15.316-4.942-15.316,9.952-6.87,24.454-17.921,34.27-30.054a43.493,43.493,0,0,0,4.247-6.314l3.824,23.456,6.854,41.9a24.08,24.08,0,0,0,4.164,10.086,23.787,23.787,0,0,0,8.224,7.141,43.66,43.66,0,0,0,9.866,3.705,71.636,71.636,0,0,1,37.382,23.591,60.762,60.762,0,0,0,9.866,9.579Z" transform="translate(-259.779 -28.974)" fill="#fd7201"/>
            <path id="Caminho_183" data-name="Caminho 183" d="M480.787,294.828a43.5,43.5,0,0,1-4.247,6.313c-9.815,12.133-24.318,23.183-34.27,30.054-6.532,4.5-11.1,7.192-11.1,7.192-25.806,12.489-29.817,33.422-29.817,33.422a172.279,172.279,0,0,1-22.643,57.758l-16.466,27.787-22.592-6.025,44.913-112.774a201.954,201.954,0,0,1,12.337-25.57c7.09-12.354,16.753-29.158,24.606-42.815.018-.016.018-.033.034-.049l-9.866-38.415c.693-.355,1.4-.693,2.148-1.049,5.3-2.47,9.715-5.179,15.705-5.821a134.457,134.457,0,0,1,14.5-.931c.762,0,1.49-.016,2.234-.067a28.919,28.919,0,0,0,11.169-2.792,39.329,39.329,0,0,0,7.108,7.412c12.336,10.068,17.954,24.031,20.493,34.623A44.35,44.35,0,0,1,480.787,294.828Z" transform="translate(-293.855 -53.474)" fill="#fd7201"/>
            <path id="Caminho_184" data-name="Caminho 184" d="M428.764,183.522c-.558-.269-1.117-.558-1.659-.828a52.219,52.219,0,0,1-1.184,6.245,104.119,104.119,0,0,1-7.6,19.985s5.788,5.568,11.356-5.8c0,0,13.555-.609,13.555-13.284A148.248,148.248,0,0,1,428.764,183.522Z" transform="translate(-254.745 -72.541)" fill="#ff293f"/>
            <path id="Caminho_185" data-name="Caminho 185" d="M434.056,222.575a30.134,30.134,0,0,1-13.4,2.86,129.417,129.417,0,0,0-13.268.795c-.424.051-.829.085-1.235.136-5.99.642-10.408,3.351-15.705,5.821-.744.356-1.455.695-2.148,1.049l-1.235-4.789-.389-.542A47.532,47.532,0,0,1,411.5,219.5c.8-.034,1.624-.085,2.454-.136,6.159-.32,13.25-.795,17.532-1.388a15.533,15.533,0,0,0,2.352,4.3C433.9,222.371,433.989,222.473,434.056,222.575Z" transform="translate(-270.478 -55.003)" fill="#f8ba81"/>
            <path id="Caminho_186" data-name="Caminho 186" d="M413.447,163.834c-3.926,8.022-16.753,6.872-16.753,6.872a14.3,14.3,0,0,1-4.5-.66c-3.824-1.2-6.3-4.045-7.818-7.683-3.622-8.664-1.912-21.983-.558-29.208.575-3.114,1.1-5.095,1.1-5.095,9.139-6.041,12.929-11.592,12.929-11.592s6.481,15.5,21.661,17.126c0,0-1.473,5.551.981,9.308,0,0,8.8-2.132,9.291,5.06,0,0,.355,6.346-8.309,4.722V174.5c-2.47,18.123-19.732,23.336-25.148,24.537a9.11,9.11,0,0,1-3.52.153c-7.09-1.219-4.6-9.375-4.4-10.052.034-.034.034-.051.034-.051l.355-1.777,1.355-6.854C409.724,182.467,413.262,164.883,413.447,163.834ZM409.3,140.954a1.747,1.747,0,1,0-1.844,1.642A1.746,1.746,0,0,0,409.3,140.954Zm-16.838-1.048a1.755,1.755,0,1,0-1.861,1.641A1.758,1.758,0,0,0,392.463,139.906Z" transform="translate(-272.699 -105.465)" fill="#f8ba81"/>
            <path id="Caminho_187" data-name="Caminho 187" d="M399.822,131.581a1.755,1.755,0,1,1-1.846,1.641A1.746,1.746,0,0,1,399.822,131.581Z" transform="translate(-264.861 -97.953)"/>
            <path id="Caminho_188" data-name="Caminho 188" d="M394.057,154.977s12.828,1.15,16.753-6.872c-.186,1.05-3.723,18.633-23.3,16.618l2.047-10.407A14.3,14.3,0,0,0,394.057,154.977Z" transform="translate(-270.063 -89.737)" fill="#0b0a1c"/>
            <path id="Caminho_189" data-name="Caminho 189" d="M388.58,130.88a1.755,1.755,0,1,1-1.862,1.642A1.758,1.758,0,0,1,388.58,130.88Z" transform="translate(-270.457 -98.301)"/>
            <path id="Caminho_190" data-name="Caminho 190" d="M467.752,184a26.458,26.458,0,0,0-2.878-5.854c-3.587-4.789-3.909-14.317-3.909-14.317-1.049-16.787-14.536-27.33-22.135-31.967a16.918,16.918,0,0,1-6.616-7.767,28.245,28.245,0,0,0-8.6-10.983c-10.255-8.156-21.542-1.3-21.542-1.3s-16.314-3.927-19.58,9.95c0,0-1.624,8.8,0,15.163h0a20.52,20.52,0,0,0-2.928,21.035s2.674,8.055,6.956,8.055c-3.622-8.664-1.912-21.983-.558-29.208h0c.575-3.114,1.1-5.095,1.1-5.095,9.137-6.041,12.928-11.592,12.928-11.592s6.481,15.5,21.661,17.126c0,0-1.472,5.551.982,9.308,0,0,8.8-2.132,9.291,5.06a5.115,5.115,0,0,1-.576,2.419c-.811,1.591-2.825,3.216-7.733,2.3V178.15l12.522,2.2c.558.1,1.117.2,1.659.322a57.847,57.847,0,0,1,6.312,1.675,59.339,59.339,0,0,1,9.934,4.315h0a58.1,58.1,0,0,1,7.8,5.162l4.875,3.824,2.25,1.761a22.88,22.88,0,0,0,.355-2.961A26.552,26.552,0,0,0,467.75,184" transform="translate(-274.846 -109.119)" fill="#ff293f"/>
            <path id="Caminho_191" data-name="Caminho 191" d="M488.483,185.806a69.988,69.988,0,0,1-8.139,13.064,28.12,28.12,0,0,1-7.31,6.667,43.064,43.064,0,0,0-4.62-2.047,148.033,148.033,0,0,1-14.1-6.126c-.135-.067-.255-.118-.373-.187s-.253-.118-.371-.186c-.289-.153-.576-.287-.864-.44-.153-.067-.287-.135-.422-.2-.187,1.539-.475,3.114-.813,4.67v.018c-.118.524-.237,1.048-.373,1.557s-.27,1.048-.406,1.557a106.7,106.7,0,0,1-7.192,18.428,23.368,23.368,0,0,0-2.352,9.155,3.638,3.638,0,0,0-.034.422c0,.136-.016.289-.016.424a31.041,31.041,0,0,0,.186,4.384,35.921,35.921,0,0,0,3.283,11.389,13.362,13.362,0,0,1-3.638.811c-4.857.677-13.369,1.186-19.985,1.524a47.911,47.911,0,0,0-19.749,5.33,43.323,43.323,0,0,0-5.077,3.08c-.406.271-.795.558-1.184.847-1.2.9-1.844,1.455-1.844,1.455a58.14,58.14,0,0,0-1.406-17.922c-.033-.151-.067-.3-.1-.439-.034-.153-.085-.305-.12-.458-.169-.591-.338-1.168-.54-1.726-2.725-8.258-7.159-12.133-9.359-13.639a11.3,11.3,0,0,0-1.286-.762.137.137,0,0,0-.051-.016c-8.868-7.294-8.326-15.805-6.159-21.813.22-.626.457-1.219.693-1.777l-7.09,1.455.322-13.69.016-.813.016-.829.034-1.421.135-6.583.051-1.861,6.245-2.472.406-.169.389-.153,11.762-4.7.389-.153.389-.151,8.191-3.267-.355,1.777s0,.016-.034.051c-.2.677-2.69,8.833,4.4,10.052a9.112,9.112,0,0,0,3.52-.153c5.415-1.2,22.676-6.414,25.148-24.537l12.522,2.2c.389.067.779.135,1.151.22l.508.1c.169.033.355.067.524.118a57.841,57.841,0,0,1,15.316,5.652c.135.067.271.153.406.22s.271.153.406.237a57.814,57.814,0,0,1,7.4,4.926l4.518,3.536.728.575,1.879,1.473Z" transform="translate(-279.924 -86.196)" fill="#ffd300"/>
            <path id="Caminho_192" data-name="Caminho 192" d="M383.493,191.407l-.186,8.833-.338,14.5a143.753,143.753,0,0,1-14.317,3.216,110.533,110.533,0,0,1-23.522,1.71,8.542,8.542,0,0,1-8.174-9.444c2.827-24.606,18.006-58.011,18.006-58.011l1.71-5.719c-1.862-6.9.948-11.254,1.217-11.643a24.783,24.783,0,0,0,2.048,8.615,2.533,2.533,0,0,0,4.84-1.033v-3.165c.118.746.2,1.439.287,2.014a1.9,1.9,0,0,0,3.774-.439v-.051l.118-.018a4.412,4.412,0,0,0,.524.475,2.554,2.554,0,0,0,4.027-1.573h1.862l1.743-3.825a2.732,2.732,0,0,1,2.5-1.624,2.849,2.849,0,0,1,.9.153,2.762,2.762,0,0,1,1.743,3.351l-1.1,3.893A12.389,12.389,0,0,1,376.5,148.3l-.406.305a18.936,18.936,0,0,0-4.027,4.2,24.665,24.665,0,0,1-6.126,5.331c-.846.862-1.642,3.063-2.285,5.415a53.941,53.941,0,0,0-1.71,10.914c-.558,9.731-2.961,24.2-2.961,24.2L373.9,194.25l5.653-1.675Z" transform="translate(-295.222 -96.637)" fill="#f8ba81"/>
            <path id="Caminho_193" data-name="Caminho 193" d="M363.143,133.92a65.343,65.343,0,0,1,.424,6.736,1.741,1.741,0,0,1-.067.508,2.556,2.556,0,0,1-4.029,1.574,4.416,4.416,0,0,1-.524-.475l-.118.018-.913-9.139a3.637,3.637,0,0,0-.88-1.337l.1-.118a8.861,8.861,0,0,1,3.367-.424A2.956,2.956,0,0,1,363.143,133.92Z" transform="translate(-285.213 -98.125)" fill="#f8ba81"/>
            <path id="Caminho_194" data-name="Caminho 194" d="M385.047,397.035a4.147,4.147,0,0,1-1.675,4.84,13.641,13.641,0,0,1-3.08,1.337,25.773,25.773,0,0,1-6.989,1.133,104.05,104.05,0,0,0-12.116,1.573,24.311,24.311,0,0,0-6.126,1.9,78.29,78.29,0,0,1-44.371,6.108,1.946,1.946,0,0,1-1.49-2.639,10.817,10.817,0,0,1,1-1.979c1.37.338,2.725.659,4.095.862a51.793,51.793,0,0,0,14.012-.084c12.828-1.693,24-8.242,36.283-11.762,3.976-1.151,8.089-1.93,12.149-2.69a53.754,53.754,0,0,1,7.7-.491Z" transform="translate(-309.062 33.076)" fill="#fff"/>
            <path id="Caminho_195" data-name="Caminho 195" d="M384.06,401.591a53.74,53.74,0,0,0-7.7.491c-4.06.761-8.173,1.539-12.149,2.69-12.287,3.52-23.456,10.068-36.283,11.762a51.793,51.793,0,0,1-14.012.084c-1.37-.2-2.725-.524-4.095-.862,4.162-6.668,15.314-11.982,21.288-14.452a17.218,17.218,0,0,0,6.77-4.993L348.455,383.4a9.092,9.092,0,0,0,.864-1.235s11.642,15.805,28.7.862Z" transform="translate(-308.685 26.625)" fill="#030d16"/>
            <path id="Caminho_196" data-name="Caminho 196" d="M356.689,140.881c-.237-1.759-.558-3.74-.829-5.042a3.627,3.627,0,0,0-.118-.508.991.991,0,0,0-.084-.322,1.438,1.438,0,0,0-.085-.287,4.014,4.014,0,0,0-2.048-2.336,1.432,1.432,0,0,0-.355-.118l.186-.542s3.554-1.81,5.6.2a3.637,3.637,0,0,1,.88,1.337l.913,9.139v.051a1.9,1.9,0,0,1-3.774.439C356.892,142.32,356.807,141.627,356.689,140.881Z" transform="translate(-287.135 -98.251)" fill="#f8ba81"/>
            <path id="Caminho_197" data-name="Caminho 197" d="M350.924,136.06q-.027-.813,0-1.675a2.66,2.66,0,0,1,3.367-2.5,1.433,1.433,0,0,1,.355.118,4.014,4.014,0,0,1,2.048,2.336,1.433,1.433,0,0,1,.085.287,1.515,1.515,0,0,1,.084.322,3.639,3.639,0,0,1,.118.508c.271,1.3.593,3.283.829,5.042v3.165a2.533,2.533,0,0,1-4.84,1.033,24.822,24.822,0,0,1-2.047-8.615Z" transform="translate(-288.257 -97.862)" fill="#f8ba81"/>
            <path id="Caminho_198" data-name="Caminho 198" d="M363.956,380.887l.948,5.77c-17.058,14.943-28.7-.862-28.7-.862a9.776,9.776,0,0,0,.54-1.017l4.62-9.916Z" transform="translate(-295.569 22.995)" fill="#f8ba81"/>
            <path id="Caminho_199" data-name="Caminho 199" d="M387.43,142.431c2.336,2,4.9,3.611,7.635,3.628a9.438,9.438,0,0,0,4.032-.879c.671-.262,1.285-.677,1.964-1,.63-.4,1.255-.829,1.954-1.208a21.737,21.737,0,0,1-1.437,1.859,13.643,13.643,0,0,1-1.852,1.509,8.358,8.358,0,0,1-4.7,1.409,8.031,8.031,0,0,1-4.635-1.647A9.22,9.22,0,0,1,387.43,142.431Z" transform="translate(-270.102 -92.557)"/>
            <path id="Caminho_200" data-name="Caminho 200" d="M383.417,130.118a6.077,6.077,0,0,1,2.084-2.053,7.432,7.432,0,0,1,2.807-1.033,6.16,6.16,0,0,1,3.023.3,5.1,5.1,0,0,1,2.392,1.732,21.767,21.767,0,0,0-2.687-.446,10.325,10.325,0,0,0-2.491.084A28.5,28.5,0,0,0,383.417,130.118Z" transform="translate(-272.097 -100.246)" fill="#ff293f"/>
            <path id="Caminho_201" data-name="Caminho 201" d="M396.811,128.929a6.577,6.577,0,0,1,2.526-1.274,8.381,8.381,0,0,1,2.852-.289,6.836,6.836,0,0,1,2.8.886,4.571,4.571,0,0,1,1.891,2.183,15.5,15.5,0,0,0-2.431-.978,15.021,15.021,0,0,0-2.4-.406C400.4,128.908,398.712,128.994,396.811,128.929Z" transform="translate(-265.438 -100.056)" fill="#ff293f"/>
            <path id="Caminho_202" data-name="Caminho 202" d="M389.362,137.526a34.079,34.079,0,0,0,3.454.738,6.168,6.168,0,0,0,1.542.015c.551-.034,1.1-.207,1.825-.331a2.971,2.971,0,0,1-1.394,1.578,3.575,3.575,0,0,1-2.165.419,4.288,4.288,0,0,1-1.985-.79A3.508,3.508,0,0,1,389.362,137.526Z" transform="translate(-269.141 -94.996)"/>
            <path id="Caminho_203" data-name="Caminho 203" d="M362.508,133.027a17.785,17.785,0,0,1,.927,3.59c.085.608.186,1.219.234,1.83l.079.918a2.4,2.4,0,0,1,.016.485c-.027.222-.061.443-.1.659l.018-.075a3.153,3.153,0,0,1-2.584,2.446,2.663,2.663,0,0,1-1.726-.314,2.747,2.747,0,0,1-1.055-1.2,4,4,0,0,0,1.317.487,2.276,2.276,0,0,0,1.157-.174,2.2,2.2,0,0,0,1.264-1.575l.019-.076a.988.988,0,0,1,.015-.241c0-.1-.02-.283-.018-.421l-.034-.894c-.028-.6,0-1.193.006-1.792A18.539,18.539,0,0,1,362.508,133.027Z" transform="translate(-284.578 -97.233)"/>
            <path id="Caminho_204" data-name="Caminho 204" d="M358.948,132.507a59.357,59.357,0,0,1,1.728,9.056l0,.052v.081l0-.075a2.707,2.707,0,0,1-2.855,2.96,2.631,2.631,0,0,1-1.978-1.066,2.691,2.691,0,0,1-.461-1.039c-.069-.4-.066-.575-.1-.873a62.247,62.247,0,0,1-.311-6.525,44.261,44.261,0,0,1,1.741,6.315c.048.237.1.6.145.734a1.133,1.133,0,0,0,.237.413,1.153,1.153,0,0,0,.816.389,1.121,1.121,0,0,0,1.136-1.159v-.126l0,.081A58.99,58.99,0,0,1,358.948,132.507Z" transform="translate(-286.245 -97.491)"/>
            <path id="Caminho_205" data-name="Caminho 205" d="M357.866,138.925c.187.795.3,1.59.413,2.385.042.424.111.735.12,1.25a3.017,3.017,0,0,1-.4,1.415,3.153,3.153,0,0,1-2.514,1.565,3.322,3.322,0,0,1-2.788-1.213,3.133,3.133,0,0,1-.413-.683l-.24-.585c-.148-.383-.293-.767-.416-1.159a18.727,18.727,0,0,1-.578-2.386,14.231,14.231,0,0,1-.072-4.87c.428,1.571.85,3.074,1.352,4.545.267.731.506,1.464.808,2.174l.436,1.069.229.512a1.59,1.59,0,0,0,.214.326,1.864,1.864,0,0,0,2.884-.019,2.1,2.1,0,0,0,.4-.808c.072-.278.1-.762.151-1.132C357.568,140.515,357.68,139.72,357.866,138.925Z" transform="translate(-288.312 -96.429)"/>
            <path id="Caminho_206" data-name="Caminho 206" d="M450.535,293.784a38.521,38.521,0,0,1-6.125,4.67c-7.785,5.28-16.873,8.411-23.794,14.943a101.271,101.271,0,0,0-7.48,8.615c-2.978-8.817-4.942-15.316-4.942-15.316,9.952-6.87,24.454-17.921,34.27-30.054a43.493,43.493,0,0,0,4.247-6.314Z" transform="translate(-259.779 -28.974)" fill="#d85d09"/>
            <path id="Caminho_207" data-name="Caminho 207" d="M400.779,319c2.8-2.042,5.652-3.987,8.466-5.977,2.875-1.9,5.616-4,8.354-6.087,5.465-4.193,10.841-8.5,15.879-13.176a108.834,108.834,0,0,0,14.061-14.951,43.1,43.1,0,0,0,4.981-8.914,47.293,47.293,0,0,0,2.957-9.865,42.028,42.028,0,0,1-2.183,10.163,43.675,43.675,0,0,1-4.685,9.359,40.889,40.889,0,0,1-3.165,4.181c-1.114,1.338-2.259,2.65-3.446,3.92q-3.539,3.829-7.381,7.357a183.726,183.726,0,0,1-16.25,12.971C412.753,312.044,406.729,315.515,400.779,319Z" transform="translate(-263.466 -34.091)"/>
            <path id="Caminho_208" data-name="Caminho 208" d="M422.348,222.911c-1.93,2.369-4.366,3.842-6.736,5.99-2.115,1.946-2.368,4.147-2.674,6.821-.473,4.129-1.573,6.7-2.994,10.576-1.3,3.538-3.267,6.354-4.705,9.67a51.823,51.823,0,0,1-3.722,7.523,40.835,40.835,0,0,1-3.927,5.754c.018-.016.018-.033.034-.049l-9.866-38.415c.693-.355,1.4-.693,2.148-1.049,5.3-2.47,9.715-5.179,15.705-5.821a134.448,134.448,0,0,1,14.5-.931C420.876,222.978,421.6,222.962,422.348,222.911Z" transform="translate(-269.939 -52.547)" fill="#d85d09"/>
            <path id="Caminho_209" data-name="Caminho 209" d="M411.689,237.831c-.855,1.868-1.8,3.681-2.7,5.523l-2.858,5.433c-1.907,3.622-3.93,7.177-5.953,10.732-2.059,3.533-4.116,7.07-6.288,10.538l-3.262,5.2c-1.142,1.7-2.232,3.434-3.418,5.113.853-1.868,1.8-3.683,2.7-5.526l2.855-5.436c1.906-3.622,3.923-7.179,5.95-10.733,2.06-3.533,4.12-7.067,6.3-10.534l3.265-5.2C409.412,241.24,410.5,239.508,411.689,237.831Z" transform="translate(-270.213 -45.13)"/>
            <path id="Caminho_210" data-name="Caminho 210" d="M392.593,212.133c.355,6.887,4.72,16.009,4.417,23.183a43.321,43.321,0,0,0-5.077,3.08c-.406.271-.795.558-1.184.847-1.2.9-1.844,1.455-1.844,1.455a58.139,58.139,0,0,0-1.406-17.922c-.033-.151-.067-.3-.1-.439-.034-.153-.085-.305-.12-.458-.169-.591-.338-1.168-.54-1.726-2.725-8.258-7.159-12.133-9.359-13.639a11.3,11.3,0,0,0-1.286-.762c.389.034,2.776.356,3.147.305,2.387-.338,4.637-.66,6.414-2.234,2.065-1.777,3.452-4.2,5.788-5.568,2.183-1.27,4.942-.931,7.26-1.388a16.8,16.8,0,0,1-3.976,5.517C392.017,205.092,392.406,208.393,392.593,212.133Z" transform="translate(-275.738 -65.494)" fill="#d8af05"/>
            <path id="Caminho_211" data-name="Caminho 211" d="M386.9,173.414c-.118,2.132-2.4,5.212-3.671,6.9-1.675,2.285-3.605,4.18-4.84,6.787a80.01,80.01,0,0,1-4.315,8.478c.22-.626.457-1.219.693-1.777l-7.09,1.455.322-13.69.016-.813.016-.829.034-1.421c4.095.051,7.853-1.4,11.88-2.419a20.184,20.184,0,0,0,5.211-1.675C385.829,174.04,386.049,173.447,386.9,173.414Z" transform="translate(-279.924 -77.154)" fill="#d8af05"/>
            <path id="Caminho_212" data-name="Caminho 212" d="M551.751,248.943a2.893,2.893,0,0,1-3.352,2.843,2.271,2.271,0,0,1-.811-.253l-2.961-1.455-1.388-.677-3.114-1.946-2.4-1.49-1.168-.728a24.6,24.6,0,0,1-5.246.255,20.416,20.416,0,0,1-14.435-6.956,19.735,19.735,0,0,0-8-5.433l-24-8.766a72.493,72.493,0,0,1-16.009-8.275l-5.009-3.452-15.094-10.39-5.027-3.452a50.874,50.874,0,0,0-5.685-3.385,28.12,28.12,0,0,0,7.311-6.667,69.987,69.987,0,0,0,8.139-13.064l5.366,4.2,26.026,20.426c2.843,2.234,5.772,4.384,8.749,6.414l30.579,20.933a19.144,19.144,0,0,0,3.436,1.828l15.569,6.312-1.675,4.146,5.177,4.113,3.741,2.521A2.9,2.9,0,0,1,551.751,248.943Z" transform="translate(-244.938 -76.042)" fill="#f8ba81"/>
            <path id="Caminho_213" data-name="Caminho 213" d="M471.335,171.633a29.294,29.294,0,0,0-10.8,10.865c-2.1,3.52-3.875,7.141-5.584,10.645-.49,1.015-1,2.03-1.488,3.045.118.067.253.118.371.186s.238.12.373.187c.507-1.015,1.015-2.032,1.506-3.047,1.71-3.485,3.469-7.09,5.55-10.576a28.364,28.364,0,0,1,10.628-10.645.814.814,0,0,1,.169-.085Zm-20.713,29.953a58.542,58.542,0,0,1-5.45,8.207c-8.986,11.3-24.944,19.732-38.043,13.944a20.322,20.322,0,0,1-8.8-6.921,18.678,18.678,0,0,1-.981-1.624c-.475-.9-.846-1.812-1.219-2.69-.948-2.285-1.844-4.451-4.214-6.043a18.8,18.8,0,0,0-5.939-2.285,32.81,32.81,0,0,1-3.334-.981,19.6,19.6,0,0,1-6.414-4.045,33.648,33.648,0,0,1-4.755-5.4,40.425,40.425,0,0,1-3.2-4.959c-.118-.2-.238-.424-.356-.627L367.9,189l-.016.813a42.445,42.445,0,0,0,2.91,4.451,35.4,35.4,0,0,0,4.857,5.517,20.437,20.437,0,0,0,6.685,4.2,32.836,32.836,0,0,0,3.418,1.015,17.623,17.623,0,0,1,5.686,2.183c2.166,1.439,3.012,3.487,3.909,5.652.373.9.762,1.845,1.252,2.776.322.593.678,1.168,1.033,1.692a21.075,21.075,0,0,0,9.155,7.227,23.174,23.174,0,0,0,9.426,1.946c11.067,0,22.49-7.176,29.615-16.127a60.569,60.569,0,0,0,4.755-6.989c.136-.509.271-1.033.406-1.557s.255-1.033.373-1.557C451.113,200.69,450.875,201.13,450.622,201.587Zm-7.853-44.642-.508-.1c-3.571,3.181-6.312,7.7-8.953,12.065a61.982,61.982,0,0,1-5.55,8.225c-5.551,6.363-15.772,10.052-24.842,8.968-5.162-.626-9.6-3.705-12.507-8.648a23.944,23.944,0,0,1-2.672-6.9.059.059,0,0,0-.018-.051l-.389.151-.389.153a24.421,24.421,0,0,0,2.741,7.09,17.715,17.715,0,0,0,13.133,9.055,30.281,30.281,0,0,0,3.283.186c8.427,0,17.244-3.656,22.3-9.46a61.576,61.576,0,0,0,5.635-8.326c2.674-4.417,5.433-8.969,9-12.082a2.525,2.525,0,0,1,.253-.2C443.125,157.012,442.939,156.978,442.77,156.945Zm16.246,5.99c-.135-.067-.271-.153-.406-.22-4.789,3.705-8.293,9.8-11.1,14.706l-.711,1.235c-.524.9-1.015,1.794-1.506,2.657a68.674,68.674,0,0,1-5.2,8.207,25.718,25.718,0,0,1-7.311,6.532c-6.769,4.027-11.88,3.214-18.344,2.166-1.828-.289-3.706-.593-5.754-.813a25.876,25.876,0,0,0-6.5.44,24.564,24.564,0,0,1-6.312.44c-4.873-.475-8.951-4.147-12.607-7.412-.338-.3-.677-.609-.981-.931a27.062,27.062,0,0,1-7.09-14.367c0-.018-.018-.051-.018-.069l-.389.153-.406.169a27.922,27.922,0,0,0,7.294,14.723c.338.322.677.626,1.066.982,3.705,3.334,7.9,7.09,13.048,7.6a25.956,25.956,0,0,0,6.516-.44,24.546,24.546,0,0,1,6.3-.44c2.03.2,3.891.508,5.7.795a49.681,49.681,0,0,0,7.9.864,20.569,20.569,0,0,0,11.017-3.147,26.549,26.549,0,0,0,7.547-6.736,70.646,70.646,0,0,0,5.246-8.293c.491-.88,1-1.761,1.523-2.656l.711-1.237c2.792-4.89,6.279-10.983,11.017-14.57a.87.87,0,0,1,.151-.1C459.286,163.088,459.152,163,459.015,162.935ZM438.15,230.542a52.919,52.919,0,0,0-9.443-.728c-5.855.22-10.526,3.114-15.027,5.906a60.358,60.358,0,0,1-7.261,4.044,27.017,27.017,0,0,1-14.892,2.048.577.577,0,0,1-.169-.034c.034.153.085.305.12.458.033.135.067.287.1.439a30.26,30.26,0,0,0,3.893.271,27.817,27.817,0,0,0,11.287-2.4,60.956,60.956,0,0,0,7.379-4.111c4.6-2.861,8.968-5.551,14.6-5.772a51.759,51.759,0,0,1,9.291.728c.982.136,1.946.271,2.927.389h.034c0-.135.016-.287.016-.424a3.638,3.638,0,0,1,.034-.422C440.079,230.812,439.114,230.676,438.15,230.542Z" transform="translate(-279.818 -85.393)" fill="#ffea92"/>
            <path id="Caminho_214" data-name="Caminho 214" d="M393.893,165c-1.24,2.371-2.506,4.734-3.864,7.04-1.338,2.321-2.686,4.629-4.1,6.9-1.4,2.282-2.834,4.533-4.279,6.782s-2.961,4.458-4.481,6.661l-.006.007-.039.054a27.162,27.162,0,0,0-1.958,2.689c-.6.949-1.1,1.961-1.668,2.946a27.567,27.567,0,0,0-2.34,6.393,18.437,18.437,0,0,1,.47-3.434,20.641,20.641,0,0,1,1.021-3.339c.491-1.051.925-2.139,1.472-3.174A21.534,21.534,0,0,1,376,191.514l-.045.06c1.4-2.273,2.846-4.511,4.286-6.761s2.891-4.491,4.382-6.709c1.467-2.231,3.03-4.406,4.542-6.6S392.27,167.143,393.893,165Z" transform="translate(-278.19 -81.335)"/>
            <path id="Caminho_215" data-name="Caminho 215" d="M376.058,208.478l.052.014h0a11.7,11.7,0,0,0,6.5-.785,14.493,14.493,0,0,0,5.212-3.828l1.031-1.276a9.4,9.4,0,0,1,1.228-1.331,10.614,10.614,0,0,1,3.065-1.925,10.428,10.428,0,0,1,7.165-.281l-.094-.025.418.127.057.025a21.792,21.792,0,0,0,6.628,1.72,17.18,17.18,0,0,0,6.8-.623,14.488,14.488,0,0,0,5.947-3.439A19.4,19.4,0,0,0,422.5,194.3c.722-.939,1.332-1.964,2.038-2.943-.537,1.064-1.021,2.183-1.663,3.207a20.082,20.082,0,0,1-2.216,2.9,15.568,15.568,0,0,1-6.116,4.087,17.307,17.307,0,0,1-7.363.982,22.5,22.5,0,0,1-7.228-1.822l.057.025a.626.626,0,0,1-.123-.042l-.094-.025a9.255,9.255,0,0,0-8.752,1.71,11.032,11.032,0,0,0-1.115,1.1l-1.181,1.277a15.157,15.157,0,0,1-5.857,3.713,11.259,11.259,0,0,1-6.781.039h0Z" transform="translate(-275.755 -68.237)"/>
            <path id="Caminho_216" data-name="Caminho 216" d="M372.95,172.419l-.186,8.833-.338,14.5a143.747,143.747,0,0,1-14.317,3.216c1.1-2.961,2.352-5.957,3.334-8.833,1.117-3.369,2.419-6.837,2.539-10.425a16.178,16.178,0,0,0-.627-4.451l5.653-1.675Z" transform="translate(-284.679 -77.649)" fill="#dd9357"/>
            <path id="Caminho_217" data-name="Caminho 217" d="M356.814,189.916a4.754,4.754,0,0,1-.575.373,17.091,17.091,0,0,1-8.953,2.166,23.176,23.176,0,0,1,1.05-8.393c.964-3.589,1.439-7.294,2.3-10.881.424-1.726,1.235-3.351,1.591-5.111a54.713,54.713,0,0,0,.981-7.243c.187-2.825-.084-8.7,2.674-10.441,1.388-.88,3.538.542,4.857-.034Z" transform="translate(-290.101 -88.75)" fill="#dd9357"/>
            <path id="Caminho_218" data-name="Caminho 218" d="M378.879,172.419a152.435,152.435,0,0,1-16.108,5.653,148.754,148.754,0,0,1-16.587,4.026,172.921,172.921,0,0,1,32.695-9.679Z" transform="translate(-290.607 -77.649)"/>
            <path id="Caminho_219" data-name="Caminho 219" d="M490.7,217.655a23.381,23.381,0,0,0,4.267,3.28,21.21,21.21,0,0,0,4.854,2.124,24.113,24.113,0,0,0,10.437.491.8.8,0,0,1,.543.108l.01.006c2.232,1.379,4.487,2.728,6.7,4.149l-.076-.042,4.048,2.023a2.181,2.181,0,0,0,3.021-.548,2.248,2.248,0,0,0-.526-3.116l-3.649-2.656-.024-.018h0c-1.641-1.478-3.316-2.912-4.926-4.43,1.843,1.225,3.62,2.532,5.43,3.8l-.025-.018,3.831,2.386a3.536,3.536,0,0,1,1.091,4.848,3.64,3.64,0,0,1-2.258,1.588,3.762,3.762,0,0,1-1.388.042,4.025,4.025,0,0,1-1.3-.452l-4.053-1.948-.076-.042-6.674-4.177.554.114a22.678,22.678,0,0,1-11.032-1.047A19.278,19.278,0,0,1,490.7,217.655Z" transform="translate(-218.763 -55.16)"/>
            <path id="Caminho_220" data-name="Caminho 220" d="M458.862,179.849a44.1,44.1,0,0,1-10.1,22.372l-5.027-3.452a50.874,50.874,0,0,0-5.685-3.385,28.12,28.12,0,0,0,7.311-6.667,69.987,69.987,0,0,0,8.139-13.064Z" transform="translate(-244.938 -76.042)" fill="#dd9357"/>
            <path id="Caminho_221" data-name="Caminho 221" d="M391.292,136.349c.008,1.051-1.529,1.912-3.43,1.925s-3.451-.828-3.457-1.879,1.529-1.912,3.43-1.924S391.284,135.3,391.292,136.349Z" transform="translate(-271.606 -96.514)" fill="#dd8968"/>
            <path id="Caminho_222" data-name="Caminho 222" d="M405.081,137.328c-.19,1.033-1.861,1.591-3.731,1.247s-3.234-1.46-3.044-2.493,1.859-1.591,3.731-1.247S405.269,136.3,405.081,137.328Z" transform="translate(-264.704 -96.384)" fill="#dd8968"/>
            <path id="Caminho_223" data-name="Caminho 223" d="M430.436,184.893c-.118-.067-.253-.118-.371-.186-.289-.153-.576-.287-.864-.44-.153-.067-.287-.135-.422-.2-.187,1.539-.475,3.114-.813,4.67v.018c-.118.524-.237,1.048-.373,1.557s-.269,1.048-.406,1.557a106.7,106.7,0,0,1-7.192,18.428,23.368,23.368,0,0,0-2.352,9.155,3.638,3.638,0,0,0-.034.422c0,.136-.016.289-.016.424a31.046,31.046,0,0,0,.186,4.384,15.649,15.649,0,0,1-2.419-4.908,19.541,19.541,0,0,1,.66-10.1c.913-2.843,3.131-5.095,4.213-7.751,1.27-3.08,1.473-7.345,1.693-10.661.253-3.842-.8-7.531-.66-11.321,2.285,1.641,5.28,2.521,7.614,3.842A4.778,4.778,0,0,1,430.436,184.893Z" transform="translate(-256.417 -73.912)" fill="#d8af05"/>
            <path id="Caminho_224" data-name="Caminho 224" d="M417.282,178.884l4.966,2.388c1.641.811,3.291,1.608,4.951,2.371,3.324,1.526,6.626,3.1,9.98,4.526,3.325,1.521,6.755,2.663,10.1,4.412a34.9,34.9,0,0,1,4.8,2.8c1.509,1.084,2.949,2.225,4.355,3.415a72.9,72.9,0,0,0-9.709-5.039c-3.292-1.394-6.852-2.541-10.219-4.039a110.237,110.237,0,0,1-9.9-4.923A87.874,87.874,0,0,1,417.282,178.884Z" transform="translate(-255.261 -74.435)"/>
            <path id="Caminho_225" data-name="Caminho 225" d="M413.953,218.9a30.3,30.3,0,0,1-2.725,3.08c-1.27,1.27-2.539,2.539-3.842,3.791-.424.051-.829.085-1.235.136-5.99.642-10.408,3.351-15.705,5.821-.744.356-1.455.695-2.148,1.049l-1.235-4.789-.389-.542a47.532,47.532,0,0,1,24.826-8.409C412.294,219,413.123,218.949,413.953,218.9Z" transform="translate(-270.478 -54.542)" fill="#dd9357"/>
          </g>
        </g>
      </g>
    </g>
  </g>
</svg>
