<svg xmlns="http://www.w3.org/2000/svg" width="102.6" height="23.769" viewBox="0 0 102.6 23.769">
  <g id="Camada_2" data-name="Camada 2" transform="translate(-0.03 0.012)">
    <g id="Camada_1" data-name="Camada 1" transform="translate(0.03 -0.012)">
      <g id="Symbols">
        <g id="UI_brand_color_horizontal" data-name="UI/brand/color/horizontal">
          <g id="Combined-Shape">
            <path id="Caminho_1" data-name="Caminho 1" d="M61.684,4.521a9.618,9.618,0,1,1-9.517,9.618,9.618,9.618,0,0,1,9.517-9.618Zm31.526-.407a9.618,9.618,0,0,1,9.268,7.248.775.775,0,0,1-.447.911h0l-3.729,1.5-9.019,3.434a5.024,5.024,0,0,0,8.679-1.375.526.526,0,0,1,.487-.351h3.893a.294.294,0,0,1,.283.356,9.567,9.567,0,0,1-18.971-2.263,9.652,9.652,0,0,1,9.573-9.466Zm-61.048.464h0a.419.419,0,0,1,.379.413V8.482a.407.407,0,0,1-.4.4,7.1,7.1,0,0,0-2.919.815,4.9,4.9,0,0,0-2.5,2.365V22.524a.662.662,0,0,1-.69.668H22.548a.668.668,0,0,1-.679-.656V5.166a.345.345,0,0,1,.351-.345h3.74a.351.351,0,0,1,.356.345v2.1S27.8,4.063,32.161,4.578Zm50.468,0h0A.419.419,0,0,1,83,4.991V8.482a.407.407,0,0,1-.4.4,7.1,7.1,0,0,0-2.914.815,4.883,4.883,0,0,0-2.5,2.365V22.524a.668.668,0,0,1-.679.656H73.028a.668.668,0,0,1-.679-.656V5.217a.4.4,0,0,1,.407-.4h3.638a.4.4,0,0,1,.4.4V7.271s1.477-3.208,5.822-2.693Zm-31.82.656a5.092,5.092,0,0,1,1.918-.1h0L46.272,22.626a.786.786,0,0,1-.736.515h-.091a.758.758,0,0,1-.17.051H41.417a.781.781,0,0,1-.736-.515h0L34.221,5.138a5.154,5.154,0,0,1,1.658.045,6.1,6.1,0,0,1,4.4,3.457,7.354,7.354,0,0,1,.39.973h0l2.829,8.26,2.829-8.289a7.672,7.672,0,0,1,.441-1.069,6.133,6.133,0,0,1,4.04-3.282ZM13.026,2.824a5.969,5.969,0,0,1,.888.057h0L21.287,22.44a.566.566,0,0,1-.521.752H16.6a.566.566,0,0,1-.521-.362h0l-2.037-5.488H7.193L5.184,22.83a.566.566,0,0,1-.515.362H.579a.566.566,0,0,1-.515-.758h0L5.456,8.289q.113-.272.221-.526L5.75,7.61l.17-.351a7.757,7.757,0,0,1,7.106-4.436ZM61.684,9.047a5.092,5.092,0,1,0,5.092,5.092,5.092,5.092,0,0,0-5.092-5.092Zm31.526-.317a5.143,5.143,0,0,0-5.092,5.205v.43h0l9.211-3.5a5.035,5.035,0,0,0-4.1-2.144ZM10.684,6.677,7.934,14.14H13.2ZM9.722-.005h2.1c.854,0,1.205.255,1.431.883h0l.221.566h-.464a9.2,9.2,0,0,0-5.7,1.946h0l.883-2.342A1.448,1.448,0,0,1,9.722-.005Z" transform="translate(-0.03 0.012)" fill="#0b3403" fill-rule="evenodd"/>
          </g>
        </g>
      </g>
    </g>
  </g>
</svg>
