<svg xmlns="http://www.w3.org/2000/svg" width="264.467" height="78.474" viewBox="0 0 264.467 78.474">
  <defs>
    <style>
      .cls-1, .cls-2 {
        fill: #05311a;
      }

      .cls-1 {
        fill-rule: evenodd;
      }
    </style>
  </defs>
  <g id="Camada_x0020_1" transform="translate(0 -0.007)">
    <g id="_2756065755712" transform="translate(0 0.007)">
      <path id="Caminho_2" data-name="Caminho 2" class="cls-1" d="M37.667,41.2l2.791.2.026-.136v8.094H37.667V41.2Zm27.282-9.528V33.11a32.463,32.463,0,0,1-30.776,31.8q-.453.024-.905.032H31.832A32.465,32.465,0,0,1,.032,34.164Q.01,33.716,0,33.271V31.8a32.486,32.486,0,0,1,64.919-1.031q.024.453.032.905ZM50,35.855l1.716.1.015,5.354L50,41.325ZM22.366,34.485c1.362-.566,2.258-.31,1.313,1.184l.126-.032.466,1.854-.212.067-5.892-1.575L18.6,35.7c-.3-.2-.857-.223-1.017-.553a1.141,1.141,0,0,1,.268-1.2c.395-.281.991.228,1.231-.276.229-.48-.268-.587.352-1.26.531-.576,1.5-1.06,2.19-.409.73.692.6,1.617.744,2.482ZM2.354,34.048,11.173,35.3l-.144,2.608,2.277.057c-.012-.352-.107-2.015-.048-2.226L24.7,38.783c0,.032-3.675,2.012-4.032,2.222A67.021,67.021,0,0,0,9.751,48.936c-1.9,1.723-1.4,1.845-2.9-.548a30.047,30.047,0,0,1-4.5-14.339ZM59.53,29.6l2.911-.171c1.732,12.928-6.405,25.823-18.192,30.815-12.341,5.227-27.279,1.6-35.458-9.125a64.513,64.513,0,0,1,12.236-9.245c.88-.512,6.513-3.638,7.074-3.615.1,0,1.429.743,1.73.869,2.5,1.049,4.441.93,6.882,1.2l.023,9.969h4.676V40.686c3.414.1,4.756-.534,7.657-1.965v3.526l3.588.007V37.289c0-1.073-.377-1.864.677-1.864a9.075,9.075,0,0,0,2.184-.319c2.892-.75,4.747-2.327,4.009-5.509Zm-46.4,2.145-.067-1-1.546.068c-.471.748.724,1.176-1.846.876a2.021,2.021,0,0,1-1.8-1.092c-2.034-2.969.395-2.284.421-3.847.012-.657-.737-1.839-.663-2.145.206-.846,1.578-.274,1.978-.851.492-.711,1.184-3.747,2.393-3.259a5.267,5.267,0,0,1,2.773,3.091c.515,1.793,3.543.148,2.235,3.163-.39.9-1.113.4-.044,1.836.444.6,1.133,1.223.793,1.98-.583,1.3-3.449,1.268-4.626,1.178ZM40.5,39.7l-.36-.049,0,.374c-.071.843-1.986.579-2.386-.022-.576-.864-1.713-.64-2.646-.7a15.563,15.563,0,0,1-5.393-1.244c-1.455-.689-2.918-2.295-2.522-4.018.379-1.652,2.4-2.3,3.5-3.207-.189-.387-1.907.088-2.113-2.579a4.165,4.165,0,0,1,1.246-3.406c1.5-1.375,3.043.117,3.558-.627.268-.386-.622-1.643.724-3.452,1.332-1.79,3.958-3.365,6.246-2.875,2.135.455,3.908,3.036,4.106,5.091-1.893,1.368-2.519,3.306-1.168,5.407-1.735,1.321-2.538,3.422-.531,5.045,2.057,1.662,3.928,1.358,6.252,1.722a6.015,6.015,0,0,1,.058,1.569c.009.786.129.741-.5,1.179a8.963,8.963,0,0,1-2.183,1.107c-2.348.821-3.506.661-5.883.685ZM54.8,24.826c.886-.367,1.259-.764,2.325-.338a2.11,2.11,0,0,1,1.363,1.6c.138,1.105-.727,1.857-.693,2.147a15.4,15.4,0,0,1,.943,1.994c.631,2.68-2.338,3.874-4.473,4.18-.724.1-2.5-.039-2.737.013l-.1.579c-1.108.332-1.223-.3-1.709-.6-.666-.412-3.242.078-5.654-1.2-.957-.511-1.945-1.778-1.384-2.908.513-1.033,1.878-1.379,2.559-2.047-1.149-.355-1.613-.5-1.693-1.833a2.732,2.732,0,0,1,1.075-2.43c.94-.609,2.6.556,2.373-.763a2.432,2.432,0,0,1,.9-2.486c3.8-3.915,6.71-.242,6.907,4.095Zm-26.055,6.14c-2.736,2.366-3.47,3.007-1.384,6.543-.627.3-1.746,1.018-2.347.312,0-.571.3-.685.035-1.494-.376-1.14-.132-.4-.052-1.381.123-1.535-1.157-1.455-1.8-1.825-.576-.941-.547-2.389-2.4-2.354-1.588.03-2,1.037-2.644,2.087-.528.319-.859.049-1.326.915a2.185,2.185,0,0,0-.061,1.887l-3.536-.805c-.07-.132-.094-1.877-.1-2.17,2.2.075,7.439-.415,5.111-3.925-.442-.667-.905-.75-.467-1.5a4.017,4.017,0,0,0,.408-2.167c-.213-1.981-1.984-.416-2.712-2.373a7.25,7.25,0,0,0-2.387-2.685c-1.453-.94-2.273-.661-3.1.811a12.287,12.287,0,0,0-.8,1.709c-.307.825-.931.425-1.677.889-1.877,1.168-.058,2.187-.17,3.465-.558.644-1.24.477-1.171,1.857A4.738,4.738,0,0,0,7,30.967c1.294,1.938,2.228,1.6,4.343,1.735l-.087,1.668L2.379,33.121c-.711-2.434,1.211-9.743,2.264-12.261a30.151,30.151,0,0,1,57.718,7.66l-3.21.162c-.7-.838,1.047-1.858-.093-3.728a3.276,3.276,0,0,0-3.417-1.5c-.777-4.53-4.15-7.115-8.092-3.68a4.112,4.112,0,0,0-1.45,2.216c-.45,2.163-1-.358-1.2-.818-.763-1.7-1.685-3.2-3.5-3.924-3.31-1.321-8.787,1.806-8.977,5.129-.107,1.883-.715.457-2.2,1.139C27.2,24.9,27.006,29.3,28.747,30.967Z" transform="translate(0 -0.007)"/>
      <path id="Caminho_3" data-name="Caminho 3" class="cls-1" d="M120.287,54.4c4.756-.457,4.575,2.775,4.959,3.3.273.37,1.385.309,2.063.725,1.368.84,1.542,2.709-.119,3.362-1.036.406-4.1.228-5.357.216-1.838-.015-3.678-.035-5.516-.038s-3.178-.664-2.49-2.839c.757-2.4,3.262-1.186,3.472-2.1.408-1.78,1.073-2.437,2.989-2.621Zm-.429-.882c-3.261.486-2.865,2.485-3.6,2.914-.628.366-1.3.029-2.324.905A3.294,3.294,0,0,0,112.8,59.5c-.241,2.167.944,3.385,3.065,3.382,2.155,0,4.315.028,6.472.041,1.665.012,4.45.312,5.834-.616a2.684,2.684,0,0,0,.087-4.34c-.83-.74-1.935-.757-2.208-1.025-.229-.225-.431-1.378-1.12-2.112-1.249-1.332-3.349-1.575-5.071-1.318Z" transform="translate(-96.411 -45.677)"/>
      <path id="Caminho_4" data-name="Caminho 4" class="cls-1" d="M149.9,344.086c3.194-.482,4.354,2.756,1.117,3.253C147.76,347.84,146.57,344.589,149.9,344.086Zm-.023-.931c-4.568.586-3.381,5.671,1.13,5.126C155.505,347.737,154.38,342.578,149.88,343.155Z" transform="translate(-125.666 -293.344)"/>
      <path id="Caminho_5" data-name="Caminho 5" class="cls-1" d="M319.412,313.448c2.4-.448,3.478,2.232.954,2.724C317.908,316.651,316.752,313.946,319.412,313.448Zm.016-.941c-3.89.541-2.836,5.085.889,4.613C324.114,316.638,323.119,311.993,319.428,312.507Z" transform="translate(-270.995 -267.146)"/>
      <path id="Caminho_6" data-name="Caminho 6" class="cls-1" d="M192.88,303.289c2.137-.48,3.588,1.4,1.313,1.958C192.061,305.769,190.462,303.833,192.88,303.289Zm0-.949c-3.587.622-2.309,4.45,1.268,3.864C197.7,305.621,196.444,301.722,192.882,302.34Z" transform="translate(-163.079 -258.431)"/>
      <path id="Caminho_7" data-name="Caminho 7" class="cls-1" d="M60.369,278.765c1.548-.331,2.946.865,1.06,1.231C59.91,280.291,58.448,279.176,60.369,278.765Zm2.882.875c.534-2.09-4.26-2.583-4.7-.512C58.1,281.238,62.724,281.7,63.251,279.64Z" transform="translate(-50.031 -237.508)"/>
      <path id="Caminho_8" data-name="Caminho 8" class="cls-1" d="M276.308,273.454l0-.374.36.049c-.062-.112-.312-.093-.435-.091Z" transform="translate(-236.164 -233.434)"/>
    </g>
    <path id="Caminho_9" data-name="Caminho 9" class="cls-2" d="M547.61,48.926H533.971V64.493h11.641v6.82H533.971V94.594H526.12V41.97h21.49Z" transform="translate(-449.808 -35.877)"/>
    <path id="_1" data-name="1" class="cls-2" d="M711.3,94.594H703.72V41.97H711.3Z" transform="translate(-601.648 -35.877)"/>
    <path id="_2" data-name="2" class="cls-2" d="M817.677,200.518c0,2.778-1.4,4.167-4.167,4.179H799.457q-4.149-.017-4.167-4.179V174.907q.017-4.166,4.167-4.167h14.052c2.768,0,4.167,1.39,4.167,4.167Zm-7.508-2.226V177.145h-7.3v21.146Z" transform="translate(-679.936 -145.969)"/>
    <path id="_3" data-name="3" class="cls-2" d="M1009.442,184.038H1001.8v-7.783l-6.062.149v27.4H988.02V169.848h7.714v1.275q2.393-.448,4.753-.9a27.837,27.837,0,0,1,4.788-.516q4.149.017,4.167,4.167Z" transform="translate(-844.711 -145.088)"/>
    <path id="_4" data-name="4" class="cls-2" d="M1187.6,200.441q-.017,4.151-4.167,4.167H1169.8q-4.149-.017-4.167-4.167V174.817q.018-4.149,4.167-4.167h13.639q4.151.017,4.167,4.167V187.33l-2.124,2.124H1173v9.5h7.232v-5.648h7.37v7.129Zm-7.37-16V176.3H1173v8.139Z" transform="translate(-996.559 -145.892)"/>
    <path id="_5" data-name="5" class="cls-2" d="M1376.05,200.441q-.017,4.151-4.167,4.167h-13.156q-4.149-.017-4.167-4.167v-7.335h7.37v5.716h6.75v-5.407l-11.8-6.923a4.146,4.146,0,0,1-2.319-3.684v-7.991q.017-4.149,4.237-4.167h13.018q4.151.017,4.167,4.167v6.853h-7.3v-5.235h-6.75v4.924l11.768,6.865a4.112,4.112,0,0,1,2.353,3.742v8.472Z" transform="translate(-1158.085 -145.892)"/>
    <path id="_6" data-name="6" class="cls-2" d="M1543.953,150.226h-8.645q-4.149-.017-4.167-4.167V122.812h-3.651v-6.543h3.651V107.04h7.647v9.229h4.959v6.543h-4.959v20.871h5.165Z" transform="translate(-1305.932 -91.508)"/>
    <path id="_7" data-name="7" class="cls-2" d="M1691.451,204.627h-7.37v-1.171c-1.848.264-3.686.54-5.533.8a44.007,44.007,0,0,1-5.51.506q-3.616-.017-3.628-4.167V188.338q.017-4.149,3.765-4.167h10.976v-7.783h-7.37v4.821h-6.956v-6.372q.017-4.149,3.754-4.167h13.707q4.149.017,4.167,4.167v29.791Zm-7.3-6.13v-9.092h-7.37v9.367Z" transform="translate(-1427.267 -145.909)"/>
    <path id="Caminho_10" data-name="Caminho 10" class="cls-2" d="M1029.38,441.891h-1.4v-.284q-2.274.35-2.521.351a1.9,1.9,0,0,1-1.475-.621,2.219,2.219,0,0,1-.563-1.549V433.74a2.2,2.2,0,0,1,.637-1.614,2.174,2.174,0,0,1,1.6-.643h2.324V425.15h1.4v16.741Zm-1.4-1.292v-7.867H1026a1.056,1.056,0,0,0-1.179,1.208v5.57a1.051,1.051,0,0,0,1.179,1.2Q1026.282,440.708,1027.979,440.6Z" transform="translate(-874.976 -363.478)"/>
    <path id="_1-2" data-name="1" class="cls-2" d="M1086.662,477.977a1.1,1.1,0,0,1-1.242,1.242h-3.5a1.1,1.1,0,0,1-1.242-1.242v-7.925a1.1,1.1,0,0,1,1.242-1.242h3.5a1.1,1.1,0,0,1,1.242,1.242Zm-1.424-.007v-7.911H1082.1v7.911Z" transform="translate(-923.931 -400.805)"/>
    <path id="_2-2" data-name="2" class="cls-2" d="M1175.415,440.65a1.2,1.2,0,0,1-.351.895,1.221,1.221,0,0,1-.891.347h-4.222a1.188,1.188,0,0,1-1.241-1.242V426.392a1.188,1.188,0,0,1,1.241-1.242h4.222a1.227,1.227,0,0,1,.891.347,1.2,1.2,0,0,1,.351.895v3.842h-1.491v-3.77H1170.2v14.113h3.725v-4.119h1.491v4.193Z" transform="translate(-999.192 -363.478)"/>
    <path id="_3-2" data-name="3" class="cls-2" d="M1237.672,477.977a1.1,1.1,0,0,1-1.242,1.242h-3.5a1.1,1.1,0,0,1-1.242-1.242v-7.925a1.1,1.1,0,0,1,1.242-1.242h3.5a1.1,1.1,0,0,1,1.242,1.242Zm-1.425-.007v-7.911h-3.133v7.911Z" transform="translate(-1053.037 -400.805)"/>
    <path id="_4-2" data-name="4" class="cls-2" d="M1294.9,478.817h-1.424v-9.138l-3.133.094v9.044h-1.424v-10.41h1.424v.292c.558-.073,1.121-.145,1.691-.226a13.5,13.5,0,0,1,1.684-.132c.789,0,1.184.412,1.184,1.242v9.232Z" transform="translate(-1101.966 -400.403)"/>
    <path id="_5-2" data-name="5" class="cls-2" d="M1352.012,441.891h-1.424v-9.138l-3.133.094v9.044h-1.424V425.15h1.424v6.624c.556-.073,1.111-.142,1.665-.215a13.232,13.232,0,0,1,1.651-.142,1.1,1.1,0,0,1,1.242,1.242Z" transform="translate(-1150.793 -363.478)"/>
    <path id="_6-2" data-name="6" class="cls-2" d="M1408.959,478a1.1,1.1,0,0,1-1.242,1.217h-3.346a1.1,1.1,0,0,1-1.242-1.242v-7.925a1.1,1.1,0,0,1,1.242-1.242h3.346a1.1,1.1,0,0,1,1.242,1.242v3.71l-.482.5h-3.967v3.77h3.068v-1.929h1.381Zm-1.381-4.875v-3.134h-3.068v3.134Z" transform="translate(-1199.61 -400.805)"/>
    <path id="_7-2" data-name="7" class="cls-2" d="M1465.274,477.977a1.1,1.1,0,0,1-1.242,1.242h-3.3a1.1,1.1,0,0,1-1.241-1.242v-7.925a1.1,1.1,0,0,1,1.241-1.242h3.3a1.1,1.1,0,0,1,1.242,1.242V472.1h-1.4v-2.038h-2.958v7.911h2.958v-2.3h1.4Z" transform="translate(-1247.796 -400.805)"/>
    <path id="_8" data-name="8" class="cls-2" d="M1517.166,442.379h-1.446V440.56h1.446Zm-.022,12.687h-1.4v-10.41h1.4Z" transform="translate(-1295.87 -376.652)"/>
    <path id="_9" data-name="9" class="cls-2" d="M1552.656,478.808h-1.424v-9.15l-3.113.113v9.035h-1.4v-9.15l-3.111.113v9.035h-1.424V468.4h1.424v.3q.816-.109,1.632-.231a12.364,12.364,0,0,1,1.641-.135,1.252,1.252,0,0,1,1.037.409c.592-.08,1.176-.164,1.761-.255a14.2,14.2,0,0,1,1.738-.154,1.1,1.1,0,0,1,1.243,1.242V478.8Z" transform="translate(-1318.492 -400.395)"/>
    <path id="_10" data-name="10" class="cls-2" d="M1636.089,478a1.1,1.1,0,0,1-1.242,1.217H1631.5a1.1,1.1,0,0,1-1.241-1.242v-7.925a1.1,1.1,0,0,1,1.241-1.242h3.346a1.1,1.1,0,0,1,1.242,1.242v3.71l-.481.5h-3.967v3.77h3.068v-1.929h1.381Zm-1.381-4.875v-3.134h-3.068v3.134Z" transform="translate(-1393.796 -400.805)"/>
    <path id="_11" data-name="11" class="cls-2" d="M1692.6,478.817h-1.424v-9.138l-3.133.094v9.044h-1.424v-10.41h1.424v.292c.558-.073,1.121-.145,1.691-.226a13.494,13.494,0,0,1,1.684-.132c.789,0,1.184.412,1.184,1.242v9.232Z" transform="translate(-1441.981 -400.403)"/>
    <path id="_12" data-name="12" class="cls-2" d="M1743.21,460.1h-1.98a1.1,1.1,0,0,1-1.242-1.242v-7.918h-1.249v-1.249h1.249V446.45h1.4v3.243h1.819v1.249h-1.819v7.911h1.819Z" transform="translate(-1486.541 -381.688)"/>
    <path id="_13" data-name="13" class="cls-2" d="M1788.062,477.977a1.1,1.1,0,0,1-1.242,1.242h-3.5a1.1,1.1,0,0,1-1.242-1.242v-7.925a1.1,1.1,0,0,1,1.242-1.242h3.5a1.1,1.1,0,0,1,1.242,1.242Zm-1.424-.007v-7.911H1783.5v7.911Z" transform="translate(-1523.595 -400.805)"/>
  </g>
</svg>
